<ttFont>
<head>
    <!-- Most of this table will be recalculated by the compiler -->
    <tableVersion value="1.0"/>
    <fontRevision value="2.004"/>
    <checkSumAdjustment value="0xd0584289"/>
    <magicNumber value="0x5f0f3cf5"/>
    <flags value="00000000 00000011"/>
    <unitsPerEm value="1000"/>
    <created value="Thu Oct  8 10:03:18 2009"/>
    <modified value="Thu Oct  8 10:03:18 2009"/>
    <xMin value="-445"/>
    <yMin value="-316"/>
    <xMax value="1465"/>
    <yMax value="996"/>
    <macStyle value="00000000 00000000"/>
    <lowestRecPPEM value="3"/>
    <fontDirectionHint value="2"/>
    <indexToLocFormat value="0"/>
    <glyphDataFormat value="0"/>
  </head>
          <CharString index="0">
            -37 callsubr
            vhcurveto
            0 -8 0 -11 -5 4 callsubr
            -60 rlineto
            -14 -6 -11 -5 -18 vvcurveto
            -8 7 -32 26 7 5 2 3 6 vhcurveto
            133 59 rlineto
            24 11 4 13 11 vvcurveto
            endchar
          </CharString>
          <CharString index="1">
            716 30 -87 callgsubr
            -46 hlineto
            -189 528 rlineto
            34 -12 -20 0 -21 hhcurveto
            -19 hlineto
            -19 -22 0 -33 -12 hvcurveto
            -189 -529 rlineto
            -46 -80 callgsubr
            159 hlineto
            15 26 0 30 31 2 callgsubr
            hvcurveto
            -40 hlineto
            40 111 rlineto
            277 hlineto
            40 -111 rlineto
            -40 -73 callsubr
            159 hlineto
            146 callgsubr
            return
          </CharString>
          <CharString index="2">
            hlineto
            -106 callgsubr
            return
          </CharString>
          <CharString index="3">
            rmoveto
            -118 43 -6 2 -7 0 -6 -2 rlinecurve
            -118 -43 -36 -13 18 -54 36 11 rlinecurve
            109 33 109 -33 36 -11 18 54 -35 13 rlinecurve
            return
          </CharString>
          <CharString index="4">
            499 31 rmoveto
            30 -25 0 -15 -38 -9 4 4 -9 vhcurveto
            216 vlineto
            73 -55 82 -138 -42 -100 0 -73 -30 21 -16 24 17 26 10 36 1 vhcurveto
            8 1 1 16 2 vhcurveto
            1 12 13 0 12 hhcurveto
            73 50 -31 -71 hvcurveto
            -180 -3 -111 -55 -91 vvcurveto
            return
          </CharString>
          <CharString index="5">
            -78 callgsubr
            -12 callsubr
            vhcurveto
            -85 callgsubr
            return
          </CharString>
          <CharString index="6">
            hlineto
            -102 callgsubr
            return
          </CharString>
          <CharString index="7">
            60 callgsubr
            endchar
          </CharString>
          <CharString index="8">
            80 -64 71 -90 19 vhcurveto
            -148 31 rlineto
            -27 6 -72 27 62 vvcurveto
            50 56 49 84 105 44 -53 -68 13 vhcurveto
            -17 3 3 -15 29 34 callgsubr
            132 56 callsubr
            -22 -2 -7 -44 -15 vhcurveto
            44 -52 -70 7 -40 hhcurveto
            -125 -81 -80 -84 -50 26 -36 23 -22 hvcurveto
            41 -38 35 -7 91 -19 43 -9 rcurveline
            62 -13 15 -3 33 -28 rrcurveto
            0 32 -28 -43 vvcurveto
            -54 -51 -58 -92 -55 -51 12 16 -28 vhcurveto
            -36 22 -16 25 -3 45 rrcurveto
            14 -1 -1 19 -32 hhcurveto
            85 callgsubr
            hvcurveto
            -132 vlineto
            -16 0 -25 30 22 3 10 38 14 vhcurveto
            return
          </CharString>
          <CharString index="9">
            hlineto
            -97 callsubr
            return
          </CharString>
          <CharString index="10">
            -106 callgsubr
            54 -17 callgsubr
            return
          </CharString>
          <CharString index="11">
            rmoveto
            16 -15 16 -16 -11 -6 -5 -6 -7 vhcurveto
            hintmask 00100000
            -28 -30 -26 -16 -14 hhcurveto
            -10 -8 9 12 -13 hvcurveto
            hintmask 00010000
            -88 callgsubr
            hintmask 00100000
            -16 15 -16 16 11 6 5 6 7 vhcurveto
            hintmask 00010000
            28 30 26 16 14 hhcurveto
            10 8 -9 -12 13 hvcurveto
            hintmask 00100000
            -91 callsubr
          </CharString>
          <CharString index="12">
            rmoveto
            48 -23 19 -24 -22 -15 -17 -20 -5 1 -30 36 -3 vhcurveto
            -1 -13 -2 -24 -30 -24 rrcurveto
            -5 -5 -6 -4 -11 vvcurveto
            -10 11 -13 13 17 50 45 67 vhcurveto
            endchar
          </CharString>
          <CharString index="13">
            308 30 -87 callgsubr
            -59 489 59 -101 callsubr
            -187 -105 callsubr
            59 -489 -59 -105 callsubr
            return
          </CharString>
          <CharString index="14">
            -25 callsubr
            -499 -1 hlineto
            -302 526 rlineto
            34 -20 -22 0 -21 hhcurveto
            -95 -98 callsubr
            164 -90 callsubr
            499 1 hlineto
            302 -526 rlineto
            -34 20 22 0 21 hhcurveto
            32 9 6 35 hvcurveto
            509 78 callgsubr
            hvcurveto
            return
          </CharString>
          <CharString index="15">
            527 36 callgsubr
            -141 -105 callsubr
            41 hlineto
            -98 -301 -23 63 -95 238 rlineto
            38 -101 callsubr
            -140 -73 callsubr
            41 hlineto
            151 -370 -9 -23 0 -2 -13 -37 rlinecurve
            -23 -7 -28 -82 -84 hhcurveto
            -4 -11 0 5 hvcurveto
            3 2 5 8 vvcurveto
            28 -20 16 -23 -27 -17 -18 -26 -43 40 -39 58 92 61 83 62 21 vhcurveto
            155 453 61 callsubr
            return
          </CharString>
          <CharString index="16">
            -13 13 20 -21 34 hhcurveto
            27 28 16 17 23 hvcurveto
            20 15 29 22 18 vvcurveto
            endchar
          </CharString>
          <CharString index="17">
            -101 callsubr
            -54 return
          </CharString>
          <CharString index="18">
            727 580 118 callsubr
            -26 callsubr
            23 hlineto
            -175 -236 -174 236 rlineto
            23 -34 callgsubr
            48 hlineto
            225 -306 rlineto
            -183 -38 callsubr
            183 hlineto
            225 306 rlineto
            48 hlineto
            101 callsubr
            return
          </CharString>
          <CharString index="19">
            hlineto
            -16 -24 0 -31 -30 25 0 15 hvcurveto
            54 -489 -69 callsubr
            return
          </CharString>
          <CharString index="20">
            711 30 rmoveto
            31 -24 0 -16 vhcurveto
            -54 489 -28 callgsubr
            -202 -339 202 54 hlineto
            15 25 0 30 31 -24 0 -16 hvcurveto
            -177 -88 callsubr
            226 339 -226 -15 callgsubr
            return
          </CharString>
          <CharString index="21">
            -105 callsubr
            54 return
          </CharString>
          <CharString index="22">
            -15 -25 0 -30 -31 24 0 16 hvcurveto
            return
          </CharString>
          <CharString index="23">
            rmoveto
            32 -23 0 -17 vhcurveto
            -298 hlineto
            62 callgsubr
            -32 24 0 17 hvcurveto
            297 hlineto
            16 24 57 callsubr
          </CharString>
          <CharString index="24">
            130 callgsubr
            -16 vhcurveto
            -44 -3 callsubr
            -78 -73 callsubr
            49 -309 -98 callgsubr
            return
          </CharString>
          <CharString index="25">
            265 30 -83 callsubr
            return
          </CharString>
          <CharString index="26">
            72 31 43 50 55 vvcurveto
            94 -127 74 -145 vhcurveto
            -268 -88 callsubr
            214 143 hlineto
            57 47 -12 -11 22 hvcurveto
            return
          </CharString>
          <CharString index="27">
            rmoveto
            16 -15 16 -16 -11 -6 -5 -6 -7 vhcurveto
            hintmask 00010000
            -28 -30 -26 -16 -14 hhcurveto
            -10 -8 9 12 -13 hvcurveto
            hintmask 00001000
            -88 callgsubr
            hintmask 00010000
            -16 15 -16 16 11 6 5 6 7 vhcurveto
            hintmask 00001000
            28 30 26 16 14 hhcurveto
            10 8 -9 -12 13 hvcurveto
            hintmask 00010000
            -91 callsubr
          </CharString>
          <CharString index="28">
            -13 callsubr
            104 rmoveto
            -8 -7 -32 -26 -7 -5 2 3 -6 4 callsubr
            59 rlineto
            -24 11 -4 13 11 vvcurveto
            20 15 15 20 vhcurveto
            0 8 0 11 -5 vhcurveto
            133 -60 rlineto
            14 -6 11 -5 -18 vvcurveto
            endchar
          </CharString>
          <CharString index="29">
            -102 callgsubr
            -74 callgsubr
            return
          </CharString>
          <CharString index="30">
            vvcurveto
            -43 36 -52 63 38 38 26 33 24 vhcurveto
            7 9 -4 21 -8 7 -9 5 -22 -4 -6 -6 rrcurveto
            -16 -11 -23 -21 -20 hhcurveto
            -18 -26 15 24 return
          </CharString>
          <CharString index="31">
            719 497 rmoveto
            45 callsubr
            -600 hlineto
            -33 -8 -8 -33 hvcurveto
            -73 -12 callgsubr
            53 237 -489 -93 vlineto
            -14 -27 0 -30 -31 0 callgsubr
            255 hlineto
            14 27 0 30 31 2 callgsubr
            hvcurveto
            -93 489 237 -53 hlineto
            -66 callsubr
            return
          </CharString>
          <CharString index="32">
            rmoveto
            -120 75 -9 6 -12 0 -9 -6 rlinecurve
            -118 -75 -33 -21 31 -49 33 20 rlinecurve
            103 62 103 -62 33 -20 31 49 -33 21 rlinecurve
            return
          </CharString>
          <CharString index="33">
            597 41 rmoveto
            89 vlineto
            20 0 21 -34 -35 0 -20 -21 vhcurveto
            -69 -319 489 78 -30 callsubr
            -201 -98 callsubr
            471 -31 callgsubr
            return
          </CharString>
          <CharString index="34">
            hlineto
            -84 callgsubr
            return
          </CharString>
          <CharString index="35">
            -20 30 callgsubr
            hintmask 01010011
            -103 callsubr
            hintmask 10000000
            -34 callsubr
            hintmask 01000000
            -67 callsubr
            hintmask 10100011
            -61 callgsubr
            return
          </CharString>
          <CharString index="36">
            11 callgsubr
            22 callsubr
            hintmask 0000101000000000
            11 -16 -35 19 -46 hhcurveto
            -94 -71 -75 -85 -43 17 -33 15 -19 hvcurveto
            hintmask 0000000100000000
            -11 -16 -9 -22 -30 vvcurveto
            -35 14 -25 9 -12 vhcurveto
            hintmask 1000010000010000
            -74 -45 0 -68 -11 vvcurveto
            -86 105 -61 128 128 105 62 85 vhcurveto
            hintmask 0100000100100000
            37 -18 50 -51 27 vhcurveto
            7 -13 -42 22 -90 hhcurveto
            -70 hlineto
            -8 -13 0 2 -8 hvcurveto
            -15 -6 0 14 -12 hvcurveto
            hintmask 0010001010000000
            -11 14 -1 22 0 vvcurveto
            4 2 14 4 10 vhcurveto
            -2 3 38 -23 49 hhcurveto
            92 73 72 89 hvcurveto
            hintmask 0011001001000000
            30 -9 29 -17 28 vhcurveto
            21 12 24 4 13 1 rrcurveto
            -27 6 23 -7 10 hhcurveto
            17 23 12 29 hvcurveto
            -180 -111 rmoveto
            -57 -44 -44 -52 -54 -42 47 53 vhcurveto
            hintmask 1100110010010000
            57 44 44 52 54 42 -47 -53 vhcurveto
            108 -359 rmoveto
            -44 -75 -43 -100 -100 -75 43 44 18 9 32 32 20 vhcurveto
            16 25 9 0 73 hhcurveto
            89 113 0 -86 hvcurveto
            return
          </CharString>
          <CharString index="37">
            -40 -43 callsubr
            -309 -98 callgsubr
            return
          </CharString>
          <CharString index="38">
            -54 hlineto
            -62 callsubr
            return
          </CharString>
          <CharString index="39">
            -20 113 callgsubr
            hintmask 11100100
            -106 callsubr
            -233 hlineto
            116 326 rlineto
            hintmask 00011000
            return
          </CharString>
          <CharString index="40">
            -29 20 42 -3 43 hhcurveto
            27 22 0 31 hvcurveto
            -165 103 rmoveto
            -22 0 -23 -39 -18 vhcurveto
            return
          </CharString>
          <CharString index="41">
            -19 0 -22 34 57 callgsubr
            vhcurveto
            return
          </CharString>
          <CharString index="42">
            734 400 118 callsubr
            4 callgsubr
            44 hlineto
            -84 -310 -92 336 rlineto
            17 -5 -5 18 -35 hhcurveto
            -30 -9 -11 -25 -7 hvcurveto
            -93 -343 -87 318 rlineto
            44 3 callsubr
            33 hlineto
            92 -338 rlineto
            -36 10 18 0 27 hhcurveto
            20 19 0 19 10 hvcurveto
            4 7 76 272 7 66 rrcurveto
            0 5 -33 33 -129 vhcurveto
            41 -153 rlineto
            -38 10 3 -11 43 hhcurveto
            24 19 0 34 9 hvcurveto
            93 340 rlineto
            33 hlineto
            101 callsubr
            return
          </CharString>
          <CharString index="43">
            274 44 callgsubr
            17 callgsubr
            hvcurveto
            return
          </CharString>
          <CharString index="44">
            743 30 118 callsubr
            -36 hlineto
            -257 296 238 193 rlineto
            40 hlineto
            15 26 0 30 31 2 callgsubr
            hvcurveto
            -145 hlineto
            -15 -25 0 -30 -31 20 0 35 hvcurveto
            -354 -288 rlineto
            288 54 -30 callsubr
            -164 -98 callsubr
            164 -90 callsubr
            129 hlineto
            162 132 227 -261 rlineto
            -36 -20 -105 callgsubr
            126 hlineto
            101 callsubr
            return
          </CharString>
          <CharString index="45">
            -16 -24 0 -31 -30 25 0 15 -41 callsubr
            return
          </CharString>
          <CharString index="46">
            hlineto
            -59 callsubr
            return
          </CharString>
          <CharString index="47">
            -72 callsubr
            hintmask 00001100
            return
          </CharString>
          <CharString index="48">
            15 -65 callgsubr
            return
          </CharString>
          <CharString index="49">
            -27 callgsubr
            hintmask 00001000
            -44 callgsubr
          </CharString>
          <CharString index="50">
            vlineto
            -54 callsubr
            return
          </CharString>
          <CharString index="51">
            -47 callsubr
            -16 return
          </CharString>
          <CharString index="52">
            59 -29 32 -36 -29 -21 -23 -27 -6 1 -42 52 -2 vhcurveto
            -4 -46 -27 -24 -14 -11 rrcurveto
            -8 -6 -9 -6 -15 79 callsubr
            22 70 59 89 vhcurveto
            return
          </CharString>
          <CharString index="53">
            31 -6 10 -34 -43 callsubr
            return
          </CharString>
          <CharString index="54">
            565 136 callsubr
            108 -62 38 -82 -58 -50 -21 -36 -39 vhcurveto
            return
          </CharString>
          <CharString index="55">
            rmoveto
            82 -110 0 -66 -66 -110 0 -82 -19 11 -12 20 24 4 17 12 2 vhcurveto
            20 5 68 0 42 hhcurveto
            43 67 0 -20 5 hvcurveto
            -12 2 4 -17 24 hhcurveto
            19 12 12 19 hvcurveto
            endchar
          </CharString>
          <CharString index="56">
            31 -6 10 -34 vhcurveto
            return
          </CharString>
          <CharString index="57">
            174 rmoveto
            75 -65 59 -74 21 vhcurveto
            80 27 45 49 57 vvcurveto
            82 -85 78 -119 -120 -84 -79 -81 -57 46 -50 79 -26 vhcurveto
            hintmask 11010010
            -75 -21 -64 -59 -75 vvcurveto
            -97 93 -88 125 126 92 88 97 vhcurveto
            -83 287 rmoveto
            -57 -62 -44 -73 vhcurveto
            hintmask 10101100
            -73 -62 45 56 52 56 48 79 78 57 -48 -52 hvcurveto
            14 -286 rmoveto
            -69 -66 -56 -83 vhcurveto
            hintmask 01010010
            -83 -66 56 69 61 58 63 91 92 57 -63 -61 hvcurveto
            endchar
          </CharString>
          <CharString index="58">
            193 rmoveto
            114 -88 89 -110 -52 -52 -17 -41 -45 vhcurveto
            141 14 94 82 88 hhcurveto
            34 16 -11 -5 5 hvcurveto
            -5 -5 -5 -6 -18 vvcurveto
            -24 18 -20 26 25 20 17 30 49 -36 54 -97 -134 -134 -121 -202 -237 112 -73 99 vhcurveto
            hintmask 11100101
            109 98 84 120 hvcurveto
            -69 hmoveto
            -86 -66 -57 -72 -65 -39 49 61 -20 vhcurveto
            -10 24 2 24 14 vvcurveto
            62 60 50 76 81 53 -67 -74 vhcurveto
            endchar
          </CharString>
          <CharString index="59">
            rmoveto
            101 -77 98 -118 -35 -44 -7 -22 -41 vhcurveto
            190 240 -30 callsubr
            -269 hlineto
            -33 -7 -9 -32 hvcurveto
            -266 vlineto
            -18 0 -23 32 18 4 5 10 8 vhcurveto
            32 27 41 18 58 hhcurveto
            82 45 -73 -65 -80 -71 -60 -84 -28 -64 8 55 -28 hvcurveto
            5 5 8 7 20 vvcurveto
            29 -23 16 -21 -15 -30 -9 -39 -83 84 -70 112 125 99 90 111 vhcurveto
            endchar
          </CharString>
          <CharString index="60">
            31 -24 0 return
          </CharString>
          <CharString index="61">
            hstemhm
            111 -43 callgsubr
            return
          </CharString>
          <CharString index="62">
            879 14 callsubr
            -96 hlineto
            -20 -23 0 -35 -15 hvcurveto
            -219 -501 -219 499 rlineto
            30 -13 -12 7 -33 hhcurveto
            -96 -98 callsubr
            164 -90 callsubr
            484 1 hlineto
            218 -497 rlineto
            -12 5 11 -25 28 hhcurveto
            9 21 4 31 14 hvcurveto
            218 499 rlineto
            1 -484 -54 -80 callgsubr
            164 -66 callgsubr
            return
          </CharString>
          <CharString index="63">
            rmoveto
            437 vlineto
            -51 callsubr
            -92 15 callgsubr
            63 -413 hlineto
            -37 -6 -87 -60 -6 -21 1 4 -3 vhcurveto
            -1 3 rlineto
            51 -35 2 -9 -23 -22 -17 -29 return
          </CharString>
          <CharString index="64">
            vhcurveto
            -83 -86 callsubr
            return
          </CharString>
          <CharString index="65">
            536 30 118 callsubr
            -35 hlineto
            -157 194 130 115 rlineto
            39 hlineto
            15 26 0 30 31 2 callgsubr
            hvcurveto
            -164 48 callgsubr
            -174 -154 rlineto
            354 vlineto
            -51 callsubr
            -70 -98 callsubr
            164 -90 callsubr
            80 hlineto
            87 77 127 -157 rlineto
            -19 -80 callgsubr
            126 hlineto
            101 callsubr
            return
          </CharString>
          <CharString index="66">
            hvcurveto
            177 -90 callsubr
            return
          </CharString>
          <CharString index="67">
            73 callgsubr
            -489 50 callsubr
            489 180 hlineto
            157 113 -119 -130 hvcurveto
            return
          </CharString>
          <CharString index="68">
            rmoveto
            -100 callgsubr
            167 hmoveto
            -100 callgsubr
            endchar
          </CharString>
          <CharString index="69">
            -54 vlineto
            -62 callsubr
            return
          </CharString>
          <CharString index="70">
            rmoveto
            20 -15 15 -20 return
          </CharString>
          <CharString index="71">
            -6 61 0 60 0 60 14 60 -58 84 callsubr
            hstemhm
            53 69 -69 70 221 72 -71 70 243 70 hintmask 0100110101100000
            728 109 rmoveto
            28 -29 0 -6 -15 -11 -2 -20 -7 vhcurveto
            -60 -24 -52 0 -12 hhcurveto
            -72 -72 53 83 -13 hvcurveto
            273 hlineto
            22 18 0 38 120 -63 91 -114 -38 -64 -11 -69 -57 hvcurveto
            80 -50 -94 0 -28 hhcurveto
            -42 -100 0 -73 -30 21 -16 24 16 27 10 36 1 hvcurveto
            8 1 1 15 2 vhcurveto
            1 15 9 0 14 hhcurveto
            hintmask 1001001010100000
            78 45 -35 -65 hvcurveto
            -30 vlineto
            -63 -2 -228 -7 -122 vvcurveto
            -64 61 -60 99 49 101 11 68 33 vhcurveto
            -66 57 70 -13 43 hhcurveto
            116 46 89 26 hvcurveto
            -70 142 rmoveto
            hintmask 0100111010100000
            -242 hlineto
            78 15 60 50 60 hhcurveto
            72 30 -62 -66 5 hvcurveto
            -309 -124 rmoveto
            -15 0 -25 -43 -17 vhcurveto
            -14 -34 -39 -1 -11 hhcurveto
            -59 -41 28 36 hvcurveto
            hintmask 0011000001000000
            35 74 17 15 4 vhcurveto
            47 11 39 1 48 2 rrcurveto
            3 -45 1 -10 -7 vvcurveto
            endchar
          </CharString>
          <CharString index="72">
            565 28 rmoveto
            5 vlineto
            16 -13 12 -15 vhcurveto
            -66 304 hlineto
            46 13 36 36 50 vvcurveto
            29 -12 37 -38 -30 -20 -24 -26 -18 10 -17 16 -9 vhcurveto
            -6 -4 -6 -4 -8 -3 rrcurveto
            return
          </CharString>
          <CharString index="73">
            -70 63 -64 97 66 50 20 18 26 vhcurveto
            return
          </CharString>
          <CharString index="74">
            418 0 61 122 61 42 61 203 61 hstemhm
            260 69 0 69 71 69 147 69 51 69 -40 69 hintmask 1011001101000000
            903 41 rmoveto
            89 vlineto
            33 callgsubr
            -69 -296 225 147 vlineto
            -41 0 -16 35 34 0 22 19 vhcurveto
            93 vlineto
            19 0 22 -34 -35 0 -16 -41 vhcurveto
            -147 203 hlineto
            hintmask 0001000010000000
            267 -53 hlineto
            -66 callsubr
            73 vlineto
            hintmask 1101101001000000
            -51 callsubr
            -505 hlineto
            -15 -26 -70 callgsubr
            27 0 14 hvcurveto
            17 hlineto
            -214 -489 rlineto
            -47 15 callgsubr
            159 -101 callsubr
            -37 hlineto
            53 122 rlineto
            209 -122 -30 hlineto
            hintmask 1101011001000000
            114 callgsubr
            424 -31 callgsubr
            -434 203 rmoveto
            -182 hlineto
            135 306 rlineto
            47 hlineto
            endchar
          </CharString>
          <CharString index="75">
            14 -15 17 -17 -22 -70 -59 -89 -59 29 -32 36 29 21 23 27 6 -1 42 -52 2 vhcurveto
            4 46 27 24 14 11 rrcurveto
            return
          </CharString>
          <CharString index="76">
            580 -87 callgsubr
            return
          </CharString>
          <CharString index="77">
            vlineto
            -102 callgsubr
            return
          </CharString>
          <CharString index="78">
            10 -6 61 -55 46 callgsubr
            125 69 callsubr
            30 80 -76 69 114 69 -40 69 hintmask 0111101100000000
            495 175 rmoveto
            49 -15 103 -97 68 vhcurveto
            69 37 14 46 30 vvcurveto
            65 -81 44 -96 -64 -114 -23 -93 vhcurveto
            -70 -54 vlineto
            -106 callgsubr
            54 -309 -98 callgsubr
            83 -31 callgsubr
            453 vlineto
            20 0 13 34 15 vhcurveto
            10 23 25 4 26 hhcurveto
            62 47 -25 -24 -22 -29 -51 -102 -3 hvcurveto
            -12 -1 -16 -7 -23 vvcurveto
            -25 24 -5 0 vhcurveto
            hintmask 1000010010000000
            135 -8 29 -132 -55 vvcurveto
            -77 -61 -43 -53 -7 -9 1 3 -6 vhcurveto
            hintmask 0000001000000000
            24 0 2 -7 10 vhcurveto
            9 -7 -12 7 -13 hhcurveto
            hintmask 1000010010000000
            -21 -20 -15 -27 -37 34 -38 68 92 91 71 110 hvcurveto
            endchar
          </CharString>
          <CharString index="79">
            30 -87 callgsubr
            -54 return
          </CharString>
          <CharString index="80">
            114 -68 81 -78 -79 -67 -84 -110 -114 68 -81 78 79 67 84 110 vhcurveto
            return
          </CharString>
          <CharString index="81">
            -156 -73 callsubr
            return
          </CharString>
          <CharString index="82">
            704 -31 callsubr
            9 callgsubr
            return
          </CharString>
          <CharString index="83">
            -35 callsubr
            hintmask 00100000
            3 -5 -5 2 -7 hhcurveto
            -107 hlineto
            hintmask 00010000
            -15 -13 -12 -16 hvcurveto
            -5 vlineto
            hintmask 10100011
            -4 callgsubr
            hintmask 00010010
            292 vlineto
            hintmask 00100000
            16 -13 12 -15 vhcurveto
            -107 hlineto
            hintmask 00010000
            -16 -13 -12 -16 hvcurveto
            -5 vlineto
            hintmask 10100011
            -15 callsubr
            hintmask 01000000
            -15 13 -13 15 vhcurveto
            108 hlineto
            15 13 13 15 hvcurveto
            hintmask 00000100
            return
          </CharString>
          <CharString index="84">
            544 rmoveto
            -100 callgsubr
            167 hmoveto
            -100 callgsubr
            return
          </CharString>
          <CharString index="85">
            3 0 3 -1 3 vhcurveto
            -20 66 -33 61 -42 54 42 55 33 61 20 66 rrcurveto
            1 3 0 3 3 vvcurveto
            16 -13 13 -16 vhcurveto
            -4 hlineto
            -13 -11 -8 -12 -4 hvcurveto
            -22 -67 -36 -61 -48 -52 rrcurveto
            -5 -5 -3 -7 -8 vvcurveto
            -7 3 -7 5 -5 vhcurveto
            48 -52 36 -61 22 -67 rrcurveto
            -12 4 11 -8 13 hhcurveto
            4 hlineto
            16 13 13 16 hvcurveto
            return
          </CharString>
          <CharString index="86">
            -11 callgsubr
            hintmask 01000000
            -20 12 -19 20 -7 vhcurveto
            hintmask 00010000
            -10 -6 -8 -6 -9 hhcurveto
            -6 -6 -2 -3 -4 hvcurveto
            hintmask 00100000
            17 -33 -36 9 -37 hhcurveto
            hintmask 11000011
            -54 callgsubr
            hintmask 00100001
            12 callsubr
            hintmask 00000100
            return
          </CharString>
          <CharString index="87">
            8 -3 7 -4 5 vhcurveto
            -49 52 -36 61 -22 67 rrcurveto
            12 -4 -11 8 -13 hhcurveto
            -4 hlineto
            -16 -13 -13 -16 -3 1 -3 1 -3 hvcurveto
            20 -66 32 -61 43 -55 -43 -54 -32 -61 -20 -66 rrcurveto
            -1 -3 -1 -3 -3 vvcurveto
            -16 13 -13 16 vhcurveto
            4 hlineto
            13 11 8 12 4 hvcurveto
            22 67 36 61 49 52 rrcurveto
            4 5 3 7 7 vvcurveto
            return
          </CharString>
          <CharString index="88">
            31 callsubr
            hstem
            713 30 118 callsubr
            -50 hlineto
            -212 263 171 226 rlineto
            49 -34 callgsubr
            22 hlineto
            -125 -168 -134 168 rlineto
            19 49 callsubr
            -156 15 callgsubr
            49 hlineto
            183 -226 -200 -263 rlineto
            -49 hlineto
            -15 -26 -70 callgsubr
            27 0 14 hvcurveto
            156 49 callsubr
            -23 hlineto
            155 212 165 -212 rlineto
            -21 -105 callsubr
            157 hlineto
            14 27 0 30 hvcurveto
            endchar
          </CharString>
          <CharString index="89">
            0 102 callgsubr
            hstem
            58 69 503 69 vstem
            710 41 rmoveto
            26 vlineto
            14 0 27 -28 -28 0 -26 -21 vhcurveto
            -129 hlineto
            8 38 16 29 54 71 rrcurveto
            45 59 51 66 82 vvcurveto
            121 -141 95 -179 -183 -138 -96 -120 -82 51 -66 46 -60 vhcurveto
            52 -68 17 -31 8 -38 rrcurveto
            -129 hlineto
            21 0 26 -28 -28 0 -27 -14 vhcurveto
            -26 vlineto
            -33 8 -8 33 vhcurveto
            169 hlineto
            18 22 0 34 76 -53 73 -37 50 hvcurveto
            -40 55 -40 56 62 vvcurveto
            83 109 72 142 145 107 -73 -82 -62 -40 -56 -41 -55 vhcurveto
            -35 -49 -54 -74 -76 vvcurveto
            -34 22 0 19 vhcurveto
            169 134 callsubr
          </CharString>
          <CharString index="90">
            rmoveto
            -55 callsubr
            return
          </CharString>
          <CharString index="91">
            -104 callsubr
            47 60 callsubr
            return
          </CharString>
          <CharString index="92">
            -15 13 -13 16 vhcurveto
            66 -259 hlineto
            -36 14 -34 30 -20 vhcurveto
            -21 32 37 -5 46 hhcurveto
            49 47 15 26 35 hvcurveto
            -7 vlineto
            return
          </CharString>
          <CharString index="93">
            rmoveto
            18 -15 17 -20 -8 -13 -3 -15 -10 vhcurveto
            -460 -698 rlineto
            -8 -13 -2 -6 -7 vvcurveto
            123 callgsubr
            18 7 10 11 7 vhcurveto
            459 695 rlineto
            9 13 1 6 7 vvcurveto
            -355 -160 11 callsubr
            return
          </CharString>
          <CharString index="94">
            -104 callsubr
            -22 return
          </CharString>
          <CharString index="95">
            198 152 147 169 return
          </CharString>
          <CharString index="96">
            214 0 45 callgsubr
            363 69 -40 69 hintmask 10111000
            670 167 rmoveto
            68 -64 65 -114 20 vhcurveto
            69 17 80 46 73 vvcurveto
            81 -99 74 -133 vhcurveto
            -323 -98 callsubr
            351 hlineto
            hintmask 01110100
            136 97 81 86 hvcurveto
            -98 288 rmoveto
            -56 -79 -51 -118 vhcurveto
            -166 202 198 hlineto
            hintmask 11011000
            96 69 -45 -50 hvcurveto
            29 -286 rmoveto
            -62 -89 -46 -103 vhcurveto
            -200 226 216 hlineto
            hintmask 00000100
            99 77 -56 -62 hvcurveto
            endchar
          </CharString>
          <CharString index="97">
            273 0 61 214 62 213 53 callgsubr
            -213 -59 hlineto
            -17 -14 -14 -17 -18 14 -13 17 hvcurveto
            59 -214 50 callsubr
            214 185 hlineto
            17 14 13 18 17 -14 14 -17 hvcurveto
            -185 213 122 callgsubr
          </CharString>
          <CharString index="98">
            -48 -6 -1 callsubr
            return
          </CharString>
          <CharString index="99">
            vhcurveto
            83 -66 callgsubr
            return
          </CharString>
          <CharString index="100">
            -311 -3 callgsubr
            return
          </CharString>
          <CharString index="101">
            565 -28 callsubr
            return
          </CharString>
          <CharString index="102">
            62 callsubr
            199 69 95 69 -40 69 return
          </CharString>
          <CharString index="103">
            61 111 61 390 -20 return
          </CharString>
          <CharString index="104">
            329 hlineto
            -51 callsubr
            return
          </CharString>
          <CharString index="105">
            264 hlineto
            -173 -184 -34 -220 -110 vvcurveto
            -14 0 -33 35 17 17 11 29 vhcurveto
            5 284 153 174 61 59 rrcurveto
            20 18 2 2 14 vvcurveto
            endchar
          </CharString>
          <CharString index="106">
            61 0 60 76 84 callsubr
            return
          </CharString>
          <CharString index="107">
            378 375 rmoveto
            28 -25 34 -50 -52 -41 -26 -35 -30 vhcurveto
            return
          </CharString>
          <CharString index="108">
            216 rmoveto
            62 -12 63 -41 45 vhcurveto
            43 -40 -60 14 -59 hhcurveto
            -59 -60 -14 -43 -40 hvcurveto
            -41 -45 -12 -63 -62 vvcurveto
            -62 12 -63 41 -45 vhcurveto
            -43 40 60 -14 59 hhcurveto
            59 60 14 43 40 hvcurveto
            41 45 12 63 62 vvcurveto
            -69 hmoveto
            -45 -7 -45 -29 -34 vhcurveto
            -30 -26 -41 -12 -40 hhcurveto
            -40 -41 12 30 -26 hvcurveto
            -29 34 -7 45 45 vvcurveto
            45 7 45 29 34 vhcurveto
            30 26 41 12 40 hhcurveto
            40 41 -12 -30 26 hvcurveto
            29 -34 7 -45 -45 vvcurveto
            endchar
          </CharString>
          <CharString index="109">
            185 0 61 184 61 244 142 callgsubr
            363 69 vstem
            641 428 rmoveto
            97 -105 86 -142 vhcurveto
            -308 -88 callsubr
            184 185 hlineto
            142 105 86 97 hvcurveto
            -69 hmoveto
            -65 -85 -57 -110 vhcurveto
            -168 244 168 hlineto
            111 84 -57 -65 hvcurveto
            endchar
          </CharString>
          <CharString index="110">
            hlineto
            15 26 0 30 31 2 callgsubr
            hvcurveto
            4 callgsubr
            return
          </CharString>
          <CharString index="111">
            vhcurveto
            -133 return
          </CharString>
          <CharString index="112">
            38 rmoveto
            17 vlineto
            19 -5 18 -29 vhcurveto
            hintmask 10111000
            -25 -11 -11 -20 hvcurveto
            -206 hlineto
            169 88 rlineto
            63 33 44 44 69 vvcurveto
            110 -122 37 -105 -67 -120 -14 -95 -27 19 -19 24 22 17 19 20 3 vhcurveto
            8 -4 9 8 vvcurveto
            2 vlineto
            28 10 88 0 8 hhcurveto
            62 95 -16 -71 -60 -66 -31 -91 -48 hvcurveto
            -166 -88 rlineto
            -11 -6 -21 -9 -22 vvcurveto
            -28 22 -2 16 vhcurveto
            348 hlineto
            26 13 9 29 hvcurveto
            endchar
          </CharString>
          <CharString index="113">
            167 vlineto
            16 0 20 -8 9 vhcurveto
            -1 2 -2 2 -2 1 -13 11 -18 0 -13 -11 -2 -1 -2 -2 -1 -2 rrcurveto
            -8 -9 0 -20 -16 vvcurveto
            -167 vlineto
            -13 10 -11 13 vhcurveto
            24 hlineto
            12 11 11 13 hvcurveto
            return
          </CharString>
          <CharString index="114">
            199 -87 callgsubr
            -78 352 hlineto
            33 -7 8 -34 vhcurveto
            -28 hlineto
            -24 -5 -1 -20 -13 hvcurveto
            -228 -358 rlineto
            -9 -13 0 -2 -20 vvcurveto
            -33 9 -7 31 vhcurveto
            252 -108 21 callgsubr
            108 78 -66 callgsubr
            -174 31 rmoveto
            -222 hlineto
            222 349 rlineto
            endchar
          </CharString>
          <CharString index="115">
            33 callsubr
            hintmask 01110110
            -94 callgsubr
            hintmask 10110010
            -72 callgsubr
            hintmask 00001000
            return
          </CharString>
          <CharString index="116">
            0 -4 callsubr
            return
          </CharString>
          <CharString index="117">
            rmoveto
            48 -23 19 -24 -22 -15 -17 -20 vhcurveto
            hintmask 01100000
            -5 1 -30 36 -3 vhcurveto
            -1 -13 -2 -24 -30 -24 rrcurveto
            -5 -5 -6 -4 -11 vvcurveto
            -10 11 -13 13 17 50 45 67 vhcurveto
            endchar
          </CharString>
          <CharString index="118">
            rmoveto
            -27 callsubr
            return
          </CharString>
          <CharString index="119">
            28 29 40 17 40 hhcurveto
            41 39 -17 -28 29 hvcurveto
            29 -29 17 -39 -41 vvcurveto
            return
          </CharString>
          <CharString index="120">
            108 rmoveto
            -100 callgsubr
            197 hmoveto
            -100 callgsubr
            return
          </CharString>
          <CharString index="121">
            -28 callsubr
            489 44 callsubr
            return
          </CharString>
          <CharString index="122">
            38 callgsubr
            111 69 return
          </CharString>
          <CharString index="123">
            31 rmoveto
            19 -14 11 -24 vhcurveto
            -93 347 hlineto
            20 -10 14 -21 -14 -9 -10 -8 -11 vhcurveto
            -29 -19 -35 -3 -33 -3 rrcurveto
            -12 hlineto
            -18 -14 -9 -18 -1 hvcurveto
            -3 vlineto
            -20 13 -11 24 35 30 8 8 35 vhcurveto
            -293 -94 vlineto
            -25 -12 -11 -19 -25 17 -6 22 hvcurveto
            259 hlineto
            22 12 12 19 hvcurveto
            endchar
          </CharString>
          <CharString index="124">
            30 -87 callgsubr
            -91 520 hlineto
            52 callgsubr
            -13 -5 -5 -12 -10 vhcurveto
            -38 -41 -60 -2 -21 -1 rrcurveto
            -14 -1 -15 -8 -22 vvcurveto
            hintmask 11010000
            -30 27 0 8 28 44 8 16 30 vhcurveto
            -463 -91 vlineto
            -106 callgsubr
            251 -66 callgsubr
            endchar
          </CharString>
          <CharString index="125">
            69 -26 58 -4 69 -58 58 hintmask 0001000000000000
            509 388 rmoveto
            23 -19 31 -54 -11 -49 -1 -34 -46 vhcurveto
            return
          </CharString>
          <CharString index="126">
            -48 -208 62 191 -20 hstem
            228 69 18 69 vstem
            384 -107 rmoveto
            90 callsubr
            37 0 18 -35 -34 0 -21 -18 vhcurveto
            -33 66 callgsubr
            vhcurveto
            endchar
          </CharString>
          <CharString index="127">
            0 46 callgsubr
            return
          </CharString>
          <CharString index="128">
            20 callsubr
            125 69 callsubr
            return
          </CharString>
          <CharString index="129">
            hstemhm
            29 58 -19 69 -57 69 180 18 callsubr
            return
          </CharString>
          <CharString index="130">
            10 -6 61 324 61 76 callsubr
            vstemhm
            -92 callgsubr
            return
          </CharString>
          <CharString index="131">
            -14 callgsubr
            -342 hmoveto
            -14 callgsubr
            -431 388 12 callgsubr
            endchar
          </CharString>
          <CharString index="132">
            -82 -86 -23 -71 -58 60 -35 63 82 86 19 52 31 hvcurveto
            -33 67 65 -38 74 hhcurveto
            83 65 70 85 hvcurveto
            -416 -56 rmoveto
            -29 -19 -63 0 -55 hhcurveto
            -25 -28 2 21 hvcurveto
            hintmask 0001000000000000
            24 55 0 43 vhcurveto
            hintmask 0010000000000000
            32 30 -8 -10 30 hvcurveto
            endchar
          </CharString>
          <CharString index="133">
            -18 19 0 6 20 32 5 9 21 vhcurveto
            -277 -65 vlineto
            -12 -17 0 -19 -18 18 0 11 hvcurveto
            180 hlineto
            11 18 0 18 hvcurveto
            return
          </CharString>
          <CharString index="134">
            -11 51 callsubr
            return
          </CharString>
          <CharString index="135">
            64 callgsubr
            hintmask 11000011
            -16 12 -12 16 vhcurveto
            66 -346 hlineto
            return
          </CharString>
          <CharString index="136">
            -6 63 callgsubr
            return
          </CharString>
          <CharString index="137">
            -200 100 100 52 callsubr
            return
          </CharString>
          <CharString index="138">
            0 52 callsubr
            return
          </CharString>
          <CharString index="139">
            -28 callsubr
            -3 callsubr
            -251 46 hlineto
            20 0 19 47 21 vhcurveto
            18 39 39 1 21 hhcurveto
            4 53 0 -9 hvcurveto
            -3 -1 -1 -7 vvcurveto
            -28 21 -17 23 24 21 17 29 vhcurveto
            return
          </CharString>
          <CharString index="140">
            hstemhm
            38 71 257 71 return
          </CharString>
          <CharString index="141">
            rmoveto
            35 -37 0 -14 vhcurveto
            -598 hlineto
            -14 -37 0 -35 -35 33 0 12 hvcurveto
            610 hlineto
            12 33 0 35 hvcurveto
            return
          </CharString>
          <CharString index="142">
            rmoveto
            24 -20 20 -24 -24 -20 -20 -24 -24 20 -20 24 24 20 20 24 vhcurveto
            return
          </CharString>
          <CharString index="143">
            10 29 callsubr
            return
          </CharString>
          <CharString index="144">
            591 rmoveto
            19 -15 16 -20 -11 -11 -6 -8 -6 vhcurveto
            -420 -571 rlineto
            -4 -6 -3 -7 -8 vvcurveto
            123 callgsubr
            12 10 6 8 7 vhcurveto
            100 callsubr
            2 7 8 vvcurveto
            endchar
          </CharString>
          <CharString index="145">
            -16 -12 -13 -15 hvcurveto
            -5 vlineto
            return
          </CharString>
          <CharString index="146">
            -27 callsubr
            -342 hmoveto
            -27 callsubr
            return
          </CharString>
          <CharString index="147">
            683 vlineto
            74 callsubr
            -683 vlineto
            -12 0 -35 35 35 0 35 12 vhcurveto
            return
          </CharString>
          <CharString index="148">
            17 14 14 17 17 -14 14 -17 hvcurveto
            return
          </CharString>
          <CharString index="149">
            hstemhm
            111 69 return
          </CharString>
          <CharString index="150">
            hlineto
            78 66 0 29 vhcurveto
            -4 9 -39 35 20 23 16 28 vhcurveto
            endchar
          </CharString>
          <CharString index="151">
            54 -101 callsubr
            return
          </CharString>
          <CharString index="152">
            73 vlineto
            -51 callsubr
            return
          </CharString>
          <CharString index="153">
            13 callsubr
            endchar
          </CharString>
          <CharString index="154">
            9 0 15 -22 -9 -4 -3 -7 -7 vhcurveto
            -25 -27 -43 -1 -16 hhcurveto
            -10 -1 -10 -5 -13 vvcurveto
            return
          </CharString>
          <CharString index="155">
            -165 31 callsubr
            return
          </CharString>
          <CharString index="156">
            hlineto
            15 26 0 30 31 -25 0 -16 hvcurveto
            return
          </CharString>
          <CharString index="157">
            -98 callgsubr
            322 hlineto
            178 142 136 164 hvcurveto
            -69 1 rmoveto
            -131 -118 -109 -151 vhcurveto
            -181 return
          </CharString>
          <CharString index="158">
            61 511 61 return
          </CharString>
          <CharString index="159">
            61 489 61 return
          </CharString>
          <CharString index="160">
            vmoveto
            58 callsubr
          </CharString>
          <CharString index="161">
            858 136 callsubr
            100 -54 46 -91 -55 -57 -19 -52 -49 vhcurveto
            56 -25 -53 15 -53 hhcurveto
            -55 -50 -19 -38 -42 hvcurveto
            return
          </CharString>
          <CharString index="162">
            301 -11 93 callgsubr
            return
          </CharString>
          <CharString index="163">
            vlineto
            52 callgsubr
            return
          </CharString>
          <CharString index="164">
            0 31 hvcurveto
            endchar
          </CharString>
          <CharString index="165">
            -39 callgsubr
            endchar
          </CharString>
          <CharString index="166">
            69 -35 69 hintmask 00000010
            589 41 rmoveto
            92 vlineto
            hintmask 00000100
            19 0 22 -34 vhcurveto
            return
          </CharString>
          <CharString index="167">
            172 rmoveto
            16 -15 16 -16 -11 -6 -5 -6 -7 vhcurveto
            return
          </CharString>
          <CharString index="168">
            rlineto
            40 -66 callgsubr
            return
          </CharString>
          <CharString index="169">
            hstemhm
            140 69 return
          </CharString>
          <CharString index="170">
            580 rmoveto
            -32 callsubr
            return
          </CharString>
          <CharString index="171">
            hstemhm
            29 58 -19 69 -57 69 return
          </CharString>
          <CharString index="172">
            -21 134 -20 return
          </CharString>
          <CharString index="173">
            89 -60 89 13 89 118 69 -40 69 hintmask 01101110
            return
          </CharString>
          <CharString index="174">
            -7 -7 0 -1 -7 hvcurveto
            -16 -2 -10 -10 -18 vvcurveto
            return
          </CharString>
          <CharString index="175">
            -18 callgsubr
            90 callsubr
            return
          </CharString>
          <CharString index="176">
            61 42 callsubr
            return
          </CharString>
          <CharString index="177">
            -15 -26 0 -30 -31 return
          </CharString>
          <CharString index="178">
            80 callsubr
            309 return
          </CharString>
          <CharString index="179">
            62 317 61 -56 61 -21 62 return
          </CharString>
          <CharString index="180">
            89 callgsubr
            hstemhm
            return
          </CharString>
          <CharString index="181">
            12 0 35 -35 -35 0 -35 -12 vhcurveto
            return
          </CharString>
          <CharString index="182">
            119 callsubr
            123 -20 return
          </CharString>
          <CharString index="183">
            hstemhm
            51 callgsubr
            return
          </CharString>
          <CharString index="184">
            393 -21 239 -20 return
          </CharString>
          <CharString index="185">
            46 callgsubr
            -55 61 return
          </CharString>
          <CharString index="186">
            vvcurveto
            -14 15 -17 17 return
          </CharString>
          <CharString index="187">
            -309 -69 callsubr
            return
          </CharString>
          <CharString index="188">
            -17 -4 -1 -12 -9 hvcurveto
            -164 -215 rlineto
            -7 -7 0 -2 -12 vvcurveto
            -19 7 -5 22 vhcurveto
            182 -64 hlineto
            return
          </CharString>
          <CharString index="189">
            hlineto
            -58 -138 rlineto
            -6 -14 0 -5 -3 vvcurveto
            -18 15 -17 20 23 7 16 13 5 vhcurveto
            70 166 rlineto
            return
          </CharString>
          <CharString index="190">
            318 267 rmoveto
            19 -17 0 -12 vhcurveto
            -65 312 hlineto
            return
          </CharString>
          <CharString index="191">
            60 128 61 return
          </CharString>
          <CharString index="192">
            -159 -122 118 137 141 125 115 156 159 122 -118 -137 return
          </CharString>
          <CharString index="193">
            vvcurveto
            39 0 13 -40 -30 -10 -5 -36 vhcurveto
            -17 vlineto
            -30 -2 -68 -80 -57 vhcurveto
            -35 -25 -18 -31 -40 vvcurveto
            return
          </CharString>
          <CharString index="194">
            71 -71 79 243 79 -52 69 hintmask 10111010
            return
          </CharString>
          <CharString index="195">
            68 -6 72 callgsubr
            return
          </CharString>
          <CharString index="196">
            10 -6 72 callsubr
            return
          </CharString>
          <CharString index="197">
            52 -39 32 -48 13 vhcurveto
            return
          </CharString>
          <CharString index="198">
            717 144 rmoveto
            19 -15 16 -20 -19 -16 -16 -19 -46 -34 -39 -44 -70 -61 34 31 -62 vhcurveto
            return
          </CharString>
          <CharString index="199">
            -45 hlineto
            -11 -18 0 -19 -18 18 0 11 hvcurveto
            130 hlineto
            10 18 0 18 19 -17 0 -11 hvcurveto
            return
          </CharString>
          <CharString index="200">
            -20 62 callsubr
            338 69 return
          </CharString>
          <CharString index="201">
            0 78 callsubr
            return
          </CharString>
          <CharString index="202">
            rmoveto
            59 -29 32 -36 -29 -21 -23 -27 -6 1 -42 52 -2 vhcurveto
            -4 -46 -27 -24 -14 -11 rrcurveto
            return
          </CharString>
          <CharString index="203">
            27 callsubr
            52 79 callgsubr
            58 return
          </CharString>
          <CharString index="204">
            -22 callgsubr
            48 64 return
          </CharString>
          <CharString index="205">
            31 callsubr
            32 return
          </CharString>
          <CharString index="206">
            130 callsubr
            hstem
            return
          </CharString>
          <CharString index="207">
            420 571 rlineto
            4 6 return
          </CharString>
          <CharString index="208">
            15 26 0 30 hvcurveto
            return
          </CharString>
          <CharString index="209">
            rmoveto
            13 -6 21 -31 -21 -29 -8 -6 -21 vhcurveto
            -3 -1 -25 -7 -20 -2 1 return
          </CharString>
          <CharString index="210">
            11 -1 20 -4 19 -5 rrcurveto
            -6 19 29 -8 21 hhcurveto
            35 2 28 5 hvcurveto
            return
          </CharString>
          <CharString index="211">
            -54 vlineto
            -106 callgsubr
            177 -61 callsubr
            return
          </CharString>
          <CharString index="212">
            61 165 62 284 61 hstemhm
            return
          </CharString>
          <CharString index="213">
            29 callsubr
            hstemhm
            return
          </CharString>
          <CharString index="214">
            -20 111 callsubr
            return
          </CharString>
          <CharString index="215">
            -28 -4 -4 -1 -2 -4 vhcurveto
            -1 3 rlineto
            return
          </CharString>
          <CharString index="216">
            9 callsubr
            50 64 return
          </CharString>
          <CharString index="217" raw="1">
            f8d815aa 0b  
          </CharString>
          <CharString index="218">
            64 callsubr
            180 69 -26 58 -4 69 -58 58 return
          </CharString>
          <CharString index="219">
            -48 -203 54 204 54 -54 60 22 54 0 84 callsubr
            return
          </CharString>
          <CharString index="220">
            -39 -25 24 34 31 24 19 26 6 hvcurveto
            39 25 -24 -34 hvcurveto
            return
          </CharString>
          <CharString index="221">
            68 0 119 callsubr
            113 61 return
          </CharString>
          <CharString index="222">
            -119 141 callgsubr
            return
          </CharString>
          <CharString index="223">
            90 62 79 callgsubr
            return
          </CharString>
          <CharString index="224">
            100 hstem
            95 101 vstem
            196 return
          </CharString>
          <CharString index="225">
            rmoveto
            31 2 callgsubr
            vhcurveto
            return
          </CharString>
          <CharString index="226">
            61 315 61 return
          </CharString>
          <CharString index="227">
            31 callsubr
            hstem
            38 69 237 69 237 69 return
          </CharString>
          <CharString index="228">
            rlineto
            -7 -5 -4 -9 -9 vvcurveto
            -17 14 -14 17 8 7 3 return
          </CharString>
          <CharString index="229">
            1 -10 3 -13 12 -8 rrcurveto
            endchar
          </CharString>
          <CharString index="230">
            61 226 61 return
          </CharString>
          <CharString index="231">
            109 callgsubr
            237 69 return
          </CharString>
          <CharString index="232">
            535 78 -21 214 70 213 -20 hstem
            991 return
          </CharString>
          <CharString index="233">
            -107 94 callsubr
            return
          </CharString>
          <CharString index="234">
            hstemhm
            73 69 344 69 -35 69 return
          </CharString>
          <CharString index="235">
            61 113 140 callsubr
            return
          </CharString>
          <CharString index="236">
            vvcurveto
            30 -11 37 -39 return
          </CharString>
          <CharString index="237">
            -21 133 -20 return
          </CharString>
          <CharString index="238">
            64 49 -20 40 64 -59 64 hstemhm
            hintmask 11100000
            439 return
          </CharString>
          <CharString index="239">
            -175 -21 514 108 -61 61 16 -20 hstemhm
            return
          </CharString>
          <CharString index="240">
            -147 -169 -173 154 -144 196 return
          </CharString>
          <CharString index="241">
            -31 callgsubr
            endchar
          </CharString>
          <CharString index="242" raw="1">
            c11d13a3 7c987e0b  
          </CharString>
          <CharString index="243">
            -28 callsubr
            230 hlineto
            return
          </CharString>
          <CharString index="244">
            1 44 5 43 2 44 rrcurveto
            1 14 3 15 return
          </CharString>
          <CharString index="245">
            -6 -1 callsubr
            hstemhm
            38 return
          </CharString>
          <CharString index="246">
            52 callsubr
            hstemhm
            38 69 return
          </CharString>
          <CharString index="247">
            61 143 callgsubr
            return
          </CharString>
          <CharString index="248">
            -200 100 94 61 return
          </CharString>
          <CharString index="249">
            69 286 69 vstem
            return
          </CharString>
          <CharString index="250">
            62 callsubr
            50 91 106 91 1 69 return
          </CharString>
          <CharString index="251">
            51 115 50 -45 51 -21 50 -29 50 return
          </CharString>
          <CharString index="252">
            hlineto
            -7 -10 0 -14 -13 11 0 6 hvcurveto
            return
          </CharString>
          <CharString index="253">
            vlineto
            -18 14 -13 17 17 14 13 18 vhcurveto
            return
          </CharString>
          <CharString index="254">
            90 hstem
            -384 91 76 91 vstem
            -293 return
          </CharString>
          <CharString index="255">
            65 -10 65 hstemhm
            return
          </CharString>
        <CharString name=".notdef">
          -235 endchar
        </CharString>
        <CharString name="A">
          9 callsubr
          hstem
          41 675 vstem
          -106 callsubr
          -233 hlineto
          116 326 rlineto
          endchar
        </CharString>
        <CharString name="AE">
          -33 callsubr
        </CharString>
        <CharString name="AE.dup">
          -33 callsubr
        </CharString>
        <CharString name="AEacute">
          418 0 61 122 61 42 61 203 61 63 79 callgsubr
          260 69 0 69 71 69 147 69 51 69 -40 69 hintmask 1011000011010000
          903 41 rmoveto
          89 vlineto
          33 callgsubr
          -69 -296 225 147 vlineto
          -41 0 -16 35 34 0 22 19 vhcurveto
          93 vlineto
          19 0 22 -34 -35 0 -16 -41 vhcurveto
          -147 203 hlineto
          hintmask 0001000000100000
          267 -53 hlineto
          -66 callsubr
          73 vlineto
          hintmask 1101001010010000
          -51 callsubr
          -505 hlineto
          -15 -26 -70 callgsubr
          27 0 14 hvcurveto
          17 hlineto
          -214 -489 rlineto
          -47 15 callgsubr
          159 -101 callsubr
          -37 hlineto
          53 122 rlineto
          209 -122 -30 hlineto
          hintmask 1101000110010000
          114 callgsubr
          424 -31 callgsubr
          -434 203 rmoveto
          -182 hlineto
          135 306 rlineto
          47 hlineto
          hintmask 0000110010000000
          104 202 -107 callsubr
        </CharString>
        <CharString name="Aacute">
          9 callsubr
          71 -21 134 -68 callsubr
          108 193 -107 callsubr
        </CharString>
        <CharString name="Abreve">
          109 callsubr
          49 -68 callsubr
          35 callgsubr
          endchar
        </CharString>
        <CharString name="Abreveacute">
          109 callsubr
          69 64 -59 64 65 -20 113 callgsubr
          hintmask 11100001
          -106 callsubr
          -233 hlineto
          116 326 rlineto
          hintmask 00010110
          35 callgsubr
          -70 150 -37 callsubr
          vhcurveto
          0 -8 0 -11 -5 4 callsubr
          -60 rlineto
          -14 -6 -11 -5 -18 vvcurveto
          hintmask 00001000
          -8 7 -32 26 vhcurveto
          hintmask 00000100
          7 5 2 3 6 hvcurveto
          hintmask 00001000
          133 59 rlineto
          24 11 4 13 11 vvcurveto
          endchar
        </CharString>
        <CharString name="Abrevedotbelow">
          -200 100 100 -4 callsubr
          50 64 49 -20 113 callgsubr
          -388 101 hintmask 01111110
          -106 callsubr
          -233 hlineto
          116 326 rlineto
          35 callgsubr
          hintmask 10000001
          -127 -885 -100 callsubr
        </CharString>
        <CharString name="Abrevegrave">
          109 callsubr
          49 -20 40 64 -59 64 113 callgsubr
          hintmask 11100001
          -106 callsubr
          -233 hlineto
          116 326 rlineto
          hintmask 00011100
          35 callgsubr
          -70 91 rmoveto
          -8 -7 -32 -26 vhcurveto
          hintmask 00000010
          -7 -5 2 3 -6 hvcurveto
          hintmask 00000100
          -133 59 rlineto
          -24 11 -4 13 11 vvcurveto
          20 15 15 20 vhcurveto
          0 8 0 11 -5 vhcurveto
          hintmask 00000010
          133 -60 rlineto
          14 -6 11 -5 -18 vvcurveto
          endchar
        </CharString>
        <CharString name="Abrevehookabove">
          109 callsubr
          279 -68 callsubr
          35 callgsubr
          -73 181 -107 callgsubr
        </CharString>
        <CharString name="Abrevetilde">
          109 callsubr
          89 65 -10 65 113 callgsubr
          hintmask 11100010
          -106 callsubr
          -233 hlineto
          116 326 rlineto
          hintmask 00010100
          178 176 rmoveto
          19 -11 12 -20 -24 -4 -17 -12 -2 vhcurveto
          -20 -5 -68 0 -42 hhcurveto
          -43 -67 0 20 -5 hvcurveto
          12 -2 -4 17 -24 hhcurveto
          -19 -12 -12 -19 -82 110 0 66 66 110 0 82 hvcurveto
          -1 159 -58 callsubr
        </CharString>
        <CharString name="Acaron">
          9 callsubr
          113 callgsubr
          vstemhm
          -106 callsubr
          -233 hlineto
          116 326 rlineto
          129 129 -75 callgsubr
        </CharString>
        <CharString name="Acircumflex">
          9 callsubr
          113 callgsubr
          vstemhm
          -106 callsubr
          -233 hlineto
          116 326 rlineto
          130 142 -104 callsubr
          endchar
        </CharString>
        <CharString name="Acircumflexacute">
          9 callsubr
          296 -20 113 callgsubr
          hintmask 11101000
          -106 callsubr
          -233 hlineto
          116 326 rlineto
          hintmask 00010000
          130 142 -13 callsubr
          163 -107 callsubr
        </CharString>
        <CharString name="Acircumflexdotbelow">
          -200 100 100 -4 callsubr
          113 callgsubr
          -388 101 hintmask 01111000
          -106 callsubr
          -233 hlineto
          116 326 rlineto
          130 142 -104 callsubr
          hintmask 10000100
          -79 -851 -100 callsubr
        </CharString>
        <CharString name="Acircumflexgrave">
          9 callsubr
          113 callgsubr
          vstemhm
          -106 callsubr
          -233 hlineto
          116 326 rlineto
          130 142 -79 callsubr
        </CharString>
        <CharString name="Acircumflexhookabove">
          9 callsubr
          372 -20 113 callgsubr
          hintmask 11101000
          -106 callsubr
          -233 hlineto
          116 326 rlineto
          hintmask 00010000
          130 142 -104 callsubr
          77 194 -107 callgsubr
        </CharString>
        <CharString name="Acircumflextilde">
          9 callsubr
          182 65 -10 65 113 callgsubr
          hintmask 11100100
          -106 callsubr
          -233 hlineto
          116 326 rlineto
          hintmask 00001000
          130 142 rmoveto
          -118 43 -6 2 -7 0 -6 -2 rlinecurve
          -118 -43 -36 -13 18 -54 36 11 rlinecurve
          109 33 109 -33 36 -11 18 54 -35 13 rlinecurve
          47 172 -80 callsubr
        </CharString>
        <CharString name="Adblgrave">
          9 callsubr
          71 -21 133 -68 callsubr
          136 132 -101 callgsubr
        </CharString>
        <CharString name="Adieresis">
          9 callsubr
          40 90 113 callgsubr
          -480 91 106 91 hintmask 11101000
          -106 callsubr
          -233 hlineto
          116 326 rlineto
          hintmask 00010110
          -51 129 -59 callgsubr
        </CharString>
        <CharString name="Adotbelow">
          -200 100 100 -4 callsubr
          113 callgsubr
          -388 101 hintmask 01111000
          -106 callsubr
          -233 hlineto
          116 326 rlineto
          hintmask 10000100
          51 -709 -100 callsubr
        </CharString>
        <CharString name="Agrave">
          9 callsubr
          71 -21 134 -68 callsubr
          107 134 -99 callgsubr
        </CharString>
        <CharString name="Ahookabove">
          9 callsubr
          72 -21 230 -68 callsubr
          104 245 -107 callgsubr
        </CharString>
        <CharString name="Alpha">
          9 callsubr
          hstem
          41 675 vstem
          -106 callsubr
          -233 hlineto
          116 326 rlineto
          endchar
        </CharString>
        <CharString name="Amacron">
          9 callsubr
          60 63 113 callgsubr
          hintmask 11101000
          -106 callsubr
          -233 hlineto
          116 326 rlineto
          hintmask 00010000
          191 135 -84 callsubr
        </CharString>
        <CharString name="Aogonek">
          -203 54 149 61 111 61 390 120 callgsubr
          hintmask 01111100
          716 30 -87 callgsubr
          -46 hlineto
          -189 528 rlineto
          34 -12 -20 0 -21 hhcurveto
          -19 hlineto
          -19 -22 0 -33 -12 hvcurveto
          -189 -529 rlineto
          -46 -80 callgsubr
          159 hlineto
          15 26 0 30 31 2 callgsubr
          hvcurveto
          -40 hlineto
          40 111 rlineto
          277 hlineto
          40 -111 rlineto
          -40 hlineto
          hintmask 01000010
          -84 callgsubr
          45 hlineto
          hintmask 11000001
          -39 -25 -26 -36 -47 -77 callsubr
          43 34 36 53 31 hvcurveto
          33 hlineto
          hintmask 00100010
          104 callgsubr
          endchar
        </CharString>
        <CharString name="Aogonekacute">
          -203 54 149 -4 callsubr
          71 -21 134 120 callgsubr
          hintmask 0111001100000000
          716 30 -87 callgsubr
          -46 hlineto
          -189 528 rlineto
          34 -12 -20 0 -21 hhcurveto
          -19 hlineto
          -19 -22 0 -33 -12 hvcurveto
          -189 -529 rlineto
          -46 -80 callgsubr
          159 hlineto
          15 26 0 30 31 2 callgsubr
          hvcurveto
          -40 hlineto
          40 111 rlineto
          277 hlineto
          40 -111 rlineto
          -40 hlineto
          hintmask 0100000010000000
          -84 callgsubr
          45 hlineto
          hintmask 1100000001000000
          -39 -25 -26 -36 -47 -77 callsubr
          43 34 36 53 31 hvcurveto
          33 hlineto
          hintmask 0010000010000000
          104 callgsubr
          hintmask 0000110000000000
          108 193 -107 callsubr
        </CharString>
        <CharString name="Aring">
          0 61 111 61 390 37 58 37 113 callgsubr
          -454 66 102 66 hintmask 11101000
          -106 callsubr
          hintmask 01000100
          -23 callgsubr
          hintmask 00110110
          52 130 -37 callgsubr
        </CharString>
        <CharString name="Aringacute">
          0 61 111 61 390 37 58 37 154 -20 113 callgsubr
          -454 66 102 66 hintmask 11100100
          -106 callsubr
          hintmask 01000010
          -23 callgsubr
          hintmask 00111011
          52 130 -63 callgsubr
          -11 185 -107 callsubr
        </CharString>
        <CharString name="Atilde">
          9 callsubr
          40 65 -10 65 113 callgsubr
          hintmask 11100100
          -106 callsubr
          -233 hlineto
          116 326 rlineto
          hintmask 00001000
          177 172 -80 callsubr
        </CharString>
        <CharString name="B">
          -11 callsubr
        </CharString>
        <CharString name="Beta">
          -11 callsubr
        </CharString>
        <CharString name="C">
          27 callsubr
          hstem
          58 69 503 69 vstem
          -79 callgsubr
          180 109 77 102 hvcurveto
          endchar
        </CharString>
        <CharString name="Cacute">
          124 callgsubr
          503 69 hintmask 11001100
          -79 callgsubr
          180 109 77 102 hvcurveto
          hintmask 00110000
          -175 584 -107 callsubr
        </CharString>
        <CharString name="Ccaron">
          116 callgsubr
          69 503 69 vstemhm
          -79 callgsubr
          180 109 77 102 hvcurveto
          -154 520 -75 callgsubr
        </CharString>
        <CharString name="Ccedilla">
          27 callsubr
          hstem
          58 69 285 69 18 69 62 69 vstem
          -79 callgsubr
          hvcurveto
          2 -16 hlineto
          -17 0 -20 30 -2 vhcurveto
          68 callsubr
          3 vlineto
          137 18 81 69 88 vvcurveto
          endchar
        </CharString>
        <CharString name="Ccircumflex">
          116 callgsubr
          69 503 69 vstemhm
          -79 callgsubr
          180 109 77 102 hvcurveto
          -153 533 -104 callsubr
          endchar
        </CharString>
        <CharString name="Cdotaccent">
          27 callsubr
          32 100 hstemhm
          58 69 239 101 163 69 hintmask 11010100
          -79 callgsubr
          180 109 77 102 hvcurveto
          hintmask 00101000
          -232 536 -100 callsubr
        </CharString>
        <CharString name="Chi">
          -19 callsubr
        </CharString>
        <CharString name="D">
          273 0 61 489 61 hstem
          140 69 450 69 vstem
          -40 callsubr
          endchar
        </CharString>
        <CharString name="Dcaron">
          273 0 127 callgsubr
          450 69 vstemhm
          -40 callsubr
          -232 387 -75 callgsubr
        </CharString>
        <CharString name="Dcroat">
          -10 callsubr
        </CharString>
        <CharString name="Ddotbelow">
          273 41 callgsubr
          140 69 39 101 310 69 hintmask 01110100
          -40 callsubr
          hintmask 10001000
          -310 -451 -100 callsubr
        </CharString>
        <CharString name="Delta">
          360 0 67 556 -20 hstem
          57 760 vstem
          817 19 rmoveto
          3 0 4 -6 10 vhcurveto
          -302 552 rlineto
          26 -14 -11 9 -36 hhcurveto
          -22 hlineto
          -25 -17 -2 -30 -17 hvcurveto
          -303 -553 rlineto
          -7 -12 0 -4 -3 vvcurveto
          -19 17 0 15 vhcurveto
          696 hlineto
          15 17 0 19 hvcurveto
          -102 48 rmoveto
          -556 hlineto
          278 509 rlineto
          endchar
        </CharString>
        <CharString name="Dlinebelow">
          273 -181 63 118 127 callgsubr
          450 69 hintmask 01111000
          -40 callsubr
          hintmask 10000000
          -170 -451 -84 callsubr
        </CharString>
        <CharString name="E">
          22 callgsubr
          -5 callsubr
          hintmask 11111010
          -96 callgsubr
          hintmask 00100100
          363 -53 hlineto
          -66 callsubr
          73 vlineto
          hintmask 10110010
          -51 callsubr
          -515 -98 callsubr
          544 134 callsubr
        </CharString>
        <CharString name="Eacute">
          22 callgsubr
          63 -21 134 -20 -5 callsubr
          hintmask 1110011010000000
          -96 callgsubr
          hintmask 0010000100000000
          363 -53 hlineto
          -66 callsubr
          73 vlineto
          hintmask 1010010010000000
          -51 callsubr
          -515 -98 callsubr
          544 -31 callgsubr
          hintmask 0001100000000000
          -213 711 -107 callsubr
        </CharString>
        <CharString name="Ebreve">
          22 callgsubr
          42 64 49 -20 -5 callsubr
          hintmask 1110011010000000
          -96 callgsubr
          hintmask 0010000100000000
          363 -53 hlineto
          -66 callsubr
          73 vlineto
          hintmask 1010010010000000
          -51 callsubr
          -515 -98 callsubr
          544 -31 callgsubr
          hintmask 0001100000000000
          -143 694 -91 callgsubr
        </CharString>
        <CharString name="Ecaron">
          22 callgsubr
          -5 callsubr
          hintmask 11111010
          -96 callgsubr
          hintmask 00100100
          363 -53 hlineto
          -66 callsubr
          73 vlineto
          hintmask 10110010
          -51 callsubr
          -515 -98 callsubr
          544 -31 callgsubr
          hintmask 00000000
          -192 647 -75 callgsubr
        </CharString>
        <CharString name="Ecircumflex">
          22 callgsubr
          -5 callsubr
          hintmask 11111010
          -96 callgsubr
          hintmask 00100100
          363 -53 hlineto
          -66 callsubr
          73 vlineto
          hintmask 10110010
          -51 callsubr
          -515 -98 callsubr
          544 -31 callgsubr
          hintmask 00000000
          -191 660 -104 callsubr
          endchar
        </CharString>
        <CharString name="Ecircumflexacute">
          22 callgsubr
          288 -20 -5 callsubr
          hintmask 11101101
          -96 callgsubr
          hintmask 00100010
          363 -53 hlineto
          -66 callsubr
          73 vlineto
          hintmask 10101001
          -51 callsubr
          -515 -98 callsubr
          544 -31 callgsubr
          hintmask 00010000
          -191 660 -13 callsubr
          163 -107 callsubr
        </CharString>
        <CharString name="Ecircumflexdotbelow">
          185 -200 100 100 56 callgsubr
          hstemhm
          140 69 90 101 8 69 95 69 -40 69 hintmask 0111101010000000
          -96 callgsubr
          hintmask 0001000100000000
          363 -53 hlineto
          -66 callsubr
          73 vlineto
          hintmask 0101100010000000
          -51 callsubr
          -515 -98 callsubr
          544 -31 callgsubr
          -191 660 -104 callsubr
          hintmask 1000010000000000
          -79 -851 -100 callsubr
        </CharString>
        <CharString name="Ecircumflexgrave">
          22 callgsubr
          -5 callsubr
          hintmask 11111010
          -96 callgsubr
          hintmask 00100100
          363 -53 hlineto
          -66 callsubr
          73 vlineto
          hintmask 10110010
          -51 callsubr
          -515 -98 callsubr
          544 -31 callgsubr
          hintmask 00000000
          -191 660 -79 callsubr
        </CharString>
        <CharString name="Ecircumflexhookabove">
          22 callgsubr
          364 -20 -5 callsubr
          hintmask 11101101
          -96 callgsubr
          hintmask 00100010
          363 -53 hlineto
          -66 callsubr
          73 vlineto
          hintmask 10101001
          -51 callsubr
          -515 -98 callsubr
          544 -31 callgsubr
          hintmask 00010000
          -191 660 -104 callsubr
          77 194 -107 callgsubr
        </CharString>
        <CharString name="Ecircumflextilde">
          22 callgsubr
          174 65 -10 65 -5 callsubr
          hintmask 1110011010000000
          -96 callgsubr
          hintmask 0010000100000000
          363 -53 hlineto
          -66 callsubr
          73 vlineto
          hintmask 1010010010000000
          -51 callsubr
          -515 -98 callsubr
          544 -31 callgsubr
          hintmask 0000100000000000
          -191 660 -16 callsubr
          hintmask 0001000000000000
          -28 -30 -26 -16 -14 hhcurveto
          -10 -8 9 12 -13 hvcurveto
          hintmask 0000100000000000
          -88 callgsubr
          hintmask 0001000000000000
          -16 15 -16 16 11 6 5 6 7 vhcurveto
          hintmask 0000100000000000
          28 30 26 16 14 hhcurveto
          10 8 -9 -12 13 hvcurveto
          hintmask 0001001000000000
          -91 callsubr
        </CharString>
        <CharString name="Edblgrave">
          22 callgsubr
          63 130 callsubr
          -5 callsubr
          hintmask 1110011010000000
          -96 callgsubr
          hintmask 0010000100000000
          363 -53 hlineto
          -66 callsubr
          73 vlineto
          hintmask 1010010010000000
          -51 callsubr
          -515 -98 callsubr
          544 -31 callgsubr
          hintmask 0001100000000000
          -156 650 -101 callgsubr
        </CharString>
        <CharString name="Edieresis">
          22 callgsubr
          32 90 62 callsubr
          -2 91 106 91 -87 69 95 69 -40 69 hintmask 1110100101000000
          -96 callgsubr
          hintmask 0010000010000000
          363 -53 hlineto
          -66 callsubr
          73 vlineto
          hintmask 1010100001000000
          -51 callsubr
          -515 -98 callsubr
          544 -31 callgsubr
          hintmask 0001011000000000
          -372 647 -59 callgsubr
        </CharString>
        <CharString name="Edotaccent">
          22 callgsubr
          43 100 62 callsubr
          90 101 8 69 95 69 -40 69 hintmask 1110101010000000
          -96 callgsubr
          hintmask 0010000100000000
          363 -53 hlineto
          -66 callsubr
          73 vlineto
          hintmask 1010100010000000
          -51 callsubr
          -515 -98 callsubr
          544 -31 callgsubr
          hintmask 0001010000000000
          -270 663 -100 callsubr
        </CharString>
        <CharString name="Edotbelow">
          185 -200 100 100 56 callgsubr
          hstemhm
          140 69 90 101 8 69 95 69 -40 69 hintmask 0111101010000000
          -96 callgsubr
          hintmask 0001000100000000
          363 -53 hlineto
          -66 callsubr
          73 vlineto
          hintmask 0101100010000000
          -51 callsubr
          -515 -98 callsubr
          544 -31 callgsubr
          hintmask 1000010000000000
          -270 -191 -100 callsubr
        </CharString>
        <CharString name="Egrave">
          22 callgsubr
          63 -21 134 -20 -5 callsubr
          hintmask 1110011010000000
          -96 callgsubr
          hintmask 0010000100000000
          363 -53 hlineto
          -66 callsubr
          73 vlineto
          hintmask 1010010010000000
          -51 callsubr
          -515 -98 callsubr
          544 -31 callgsubr
          hintmask 0001100000000000
          -214 652 -99 callgsubr
        </CharString>
        <CharString name="Ehookabove">
          22 callgsubr
          64 -21 230 -20 -5 callsubr
          hintmask 1110011010000000
          -96 callgsubr
          hintmask 0010000100000000
          363 -53 hlineto
          -66 callsubr
          73 vlineto
          hintmask 1010010010000000
          -51 callsubr
          -515 -98 callsubr
          544 -31 callgsubr
          hintmask 0001100000000000
          -217 763 -107 callgsubr
        </CharString>
        <CharString name="Emacron">
          22 callgsubr
          52 63 -5 callsubr
          hintmask 11101101
          -96 callgsubr
          hintmask 00100010
          363 -53 hlineto
          -66 callsubr
          73 vlineto
          hintmask 10101001
          -51 callsubr
          -515 -98 callsubr
          544 -31 callgsubr
          hintmask 00010000
          -130 653 -84 callsubr
        </CharString>
        <CharString name="Eng">
          552 70 hstem
          653 70 vstem
          723 306 rmoveto
          173 -135 143 -171 -90 -89 -26 -49 -58 vhcurveto
          23 vlineto
          31 -6 10 -34 vhcurveto
          -83 -88 callsubr
          364 hlineto
          90 13 114 37 110 hhcurveto
          132 104 -112 -134 -109 -33 -111 -82 -23 hvcurveto
          9 -8 -12 5 -12 hhcurveto
          -25 -19 -20 -24 -24 19 -20 25 142 75 157 160 hvcurveto
          endchar
        </CharString>
        <CharString name="Eogonek">
          185 -203 54 149 56 callgsubr
          -5 callsubr
          hintmask 01111101
          -96 callgsubr
          hintmask 00010010
          363 -53 hlineto
          -66 callsubr
          73 vlineto
          hintmask 11011001
          -51 callsubr
          -515 -98 callsubr
          416 hlineto
          -39 -25 -26 -36 -47 -77 callsubr
          43 34 36 53 31 hvcurveto
          47 134 callsubr
        </CharString>
        <CharString name="Eogonekacute">
          185 -203 54 149 56 callgsubr
          63 -21 134 -20 -5 callsubr
          hintmask 0111001101000000
          -96 callgsubr
          hintmask 0001000010000000
          363 -53 hlineto
          -66 callsubr
          73 vlineto
          hintmask 1101001001000000
          -51 callsubr
          -515 -98 callsubr
          416 hlineto
          -39 -25 -26 -36 -47 -77 callsubr
          43 34 36 53 31 hvcurveto
          47 -31 callgsubr
          hintmask 0000110000000000
          -213 711 -107 callsubr
        </CharString>
        <CharString name="Epsilon">
          22 callgsubr
          -5 callsubr
          hintmask 11111010
          -96 callgsubr
          hintmask 00100100
          363 -53 hlineto
          -66 callsubr
          73 vlineto
          hintmask 10110010
          -51 callsubr
          -515 -98 callsubr
          544 134 callsubr
        </CharString>
        <CharString name="Ereversed">
          22 callgsubr
          hstemhm
          46 69 -40 69 95 69 199 69 hintmask 10110010
          670 14 callsubr
          -515 hlineto
          hintmask 11101110
          -34 -6 -10 -31 hvcurveto
          -73 vlineto
          -20 0 -21 35 34 0 22 19 vhcurveto
          53 363 -203 -199 vlineto
          41 0 16 -35 -34 0 -22 -19 vhcurveto
          -93 vlineto
          -19 0 -22 34 35 0 16 41 vhcurveto
          199 -225 hlineto
          hintmask 10010000
          -392 69 hlineto
          20 0 21 -35 -34 0 -22 -19 vhcurveto
          -89 vlineto
          -32 7 -9 33 vhcurveto
          544 -66 callgsubr
          endchar
        </CharString>
        <CharString name="Eta">
          0 123 callsubr
          202 142 callgsubr
          339 69 vstem
          -87 callsubr
          endchar
        </CharString>
        <CharString name="Eth">
          -10 callsubr
        </CharString>
        <CharString name="Etilde">
          22 callgsubr
          32 65 -10 65 -5 callsubr
          hintmask 1110011010000000
          -96 callgsubr
          hintmask 0010000100000000
          363 -53 hlineto
          -66 callsubr
          73 vlineto
          hintmask 1010010010000000
          -51 callsubr
          -515 -98 callsubr
          544 -31 callgsubr
          hintmask 0000100000000000
          -144 690 rmoveto
          16 -15 16 -16 -11 -6 -5 -6 -7 vhcurveto
          hintmask 0001000000000000
          -28 -30 -26 -16 -14 hhcurveto
          -10 -8 9 12 -13 hvcurveto
          hintmask 0000100000000000
          -88 callgsubr
          hintmask 0001000000000000
          -16 15 -16 16 11 6 5 6 7 vhcurveto
          hintmask 0000100000000000
          28 30 26 16 14 hhcurveto
          10 8 -9 -12 13 hvcurveto
          hintmask 0001001000000000
          -91 callsubr
        </CharString>
        <CharString name="Euro">
          142 -11 62 0 62 98 62 66 62 97 62 0 62 hstemhm
          116 70 343 70 hintmask 01111011
          599 18 rmoveto
          91 vlineto
          15 -13 13 -16 vhcurveto
          -12 hlineto
          -14 -12 -10 -14 -3 hvcurveto
          -49 -9 -59 -13 -54 hhcurveto
          -60 -56 28 45 -39 hvcurveto
          -22 26 -17 29 -11 32 rrcurveto
          241 hlineto
          10 9 6 9 3 hvcurveto
          7 24 rlineto
          12 3 -12 11 -14 hhcurveto
          -261 hlineto
          -1 10 -1 11 12 vvcurveto
          11 1 11 1 11 vhcurveto
          299 hlineto
          10 9 6 9 3 hvcurveto
          6 24 rlineto
          12 4 -12 11 -15 hhcurveto
          -290 hlineto
          11 31 17 29 22 26 rrcurveto
          45 39 56 28 60 hhcurveto
          54 59 -13 -49 9 hvcurveto
          -14 3 12 -10 14 hhcurveto
          12 hlineto
          16 13 13 15 hvcurveto
          91 vlineto
          hintmask 10110111
          16 -13 13 -16 vhcurveto
          -4 hlineto
          -10 -8 -5 -8 -6 hvcurveto
          -10 -15 rlineto
          20 -37 -48 8 -47 hhcurveto
          -78 -73 -36 -58 -51 hvcurveto
          -33 -37 -23 -44 -13 -46 rrcurveto
          -39 111 callgsubr
          34 hlineto
          -1 -11 -1 -11 -11 vvcurveto
          -11 1 -12 1 -10 vhcurveto
          -28 111 callgsubr
          45 hlineto
          13 -47 23 -44 33 -37 rrcurveto
          -58 51 73 -36 78 hhcurveto
          47 48 9 19 37 hvcurveto
          10 -15 rlineto
          -8 6 8 -5 10 hhcurveto
          4 hlineto
          16 13 13 16 hvcurveto
          endchar
        </CharString>
        <CharString name="F">
          156 0 61 214 61 214 142 callgsubr
          193 69 86 69 cntrmask 11100000
          626 497 rmoveto
          45 callsubr
          -500 -98 callsubr
          201 -101 callsubr
          -78 214 193 hlineto
          -41 0 -16 35 34 0 22 19 vhcurveto
          93 vlineto
          19 0 22 -34 -35 0 -16 -41 vhcurveto
          -193 214 348 -53 hlineto
          -66 callsubr
          endchar
        </CharString>
        <CharString name="G">
          50 callgsubr
          hstem
          58 69 503 69 vstem
          -97 callgsubr
          endchar
        </CharString>
        <CharString name="Gacute">
          50 callgsubr
          52 79 callgsubr
          58 69 503 69 hintmask 11100110
          -97 callgsubr
          hintmask 00011000
          -257 513 -107 callsubr
        </CharString>
        <CharString name="Gamma">
          94 callgsubr
          hstem
          140 69 319 69 vstem
          597 497 rmoveto
          45 callsubr
          -471 -98 callsubr
          201 -101 callsubr
          -78 489 319 -53 hlineto
          -66 callsubr
          endchar
        </CharString>
        <CharString name="Gbreve">
          50 callgsubr
          31 131 callgsubr
          58 69 503 69 hintmask 11100110
          -97 callgsubr
          hintmask 00011000
          -187 496 -91 callgsubr
        </CharString>
        <CharString name="Gcaron">
          50 callgsubr
          hstemhm
          58 69 503 69 vstemhm
          -97 callgsubr
          -236 449 -75 callgsubr
        </CharString>
        <CharString name="Gcedilla">
          302 42 callgsubr
          22 61 159 61 291 61 hstem
          58 69 503 69 vstem
          -97 callgsubr
          -318 -339 -95 callsubr
        </CharString>
        <CharString name="Gcircumflex">
          50 callgsubr
          hstemhm
          58 69 503 69 vstemhm
          -97 callgsubr
          -235 462 -104 callsubr
          endchar
        </CharString>
        <CharString name="Gcommaaccent">
          302 42 callgsubr
          22 61 159 61 291 61 hstemhm
          58 69 503 69 hintmask 00111110
          -97 callgsubr
          hintmask 11000000
          -318 -339 -95 callsubr
        </CharString>
        <CharString name="Gdotaccent">
          50 callgsubr
          32 100 hstemhm
          58 69 231 101 171 69 hintmask 11101010
          -97 callgsubr
          hintmask 00010100
          -313 465 -100 callsubr
        </CharString>
        <CharString name="H">
          0 123 callsubr
          202 142 callgsubr
          339 69 vstem
          -87 callsubr
          endchar
        </CharString>
        <CharString name="H_uni0303">
          0 123 callsubr
          202 61 32 65 -10 65 62 callsubr
          339 69 hintmask 11100110
          -87 callsubr
          hintmask 00001000
          -156 701 -80 callsubr
        </CharString>
        <CharString name="Hbar">
          0 123 callsubr
          79 62 61 142 callgsubr
          339 69 vstem
          711 -28 callsubr
          366 59 hlineto
          41 callsubr
          -59 61 -28 callgsubr
          -61 -339 61 -28 callgsubr
          -61 -59 32 callgsubr
          59 -366 -69 callsubr
          226 339 -226 -15 callgsubr
          -163 318 rmoveto
          -339 79 339 hlineto
          endchar
        </CharString>
        <CharString name="Hbrevebelow">
          -206 64 49 -20 113 45 callgsubr
          339 69 hintmask 00111110
          -87 callsubr
          hintmask 11000000
          -155 -154 -91 callgsubr
        </CharString>
        <CharString name="Hcircumflex">
          0 45 callgsubr
          339 69 vstemhm
          -87 callsubr
          -203 671 -104 callsubr
          endchar
        </CharString>
        <CharString name="Hdieresis">
          0 123 callsubr
          202 61 32 90 62 callsubr
          27 91 106 91 24 69 hintmask 11101001
          -87 callsubr
          hintmask 00010110
          -384 658 -59 callgsubr
        </CharString>
        <CharString name="Hdotbelow">
          -200 100 100 45 callgsubr
          119 101 119 69 hintmask 01111010
          -87 callsubr
          hintmask 10000100
          -282 -180 -100 callsubr
        </CharString>
        <CharString name="I">
          48 callsubr
          hstem
          140 69 vstem
          -95 callgsubr
          endchar
        </CharString>
        <CharString name="I_J">
          325 -11 61 -50 127 callgsubr
          177 89 178 69 hintmask 01110100
          -95 callgsubr
          485 551 rmoveto
          30 2 callgsubr
          vhcurveto
          -181 -73 callsubr
          82 -410 hlineto
          hintmask 10101100
          -85 -82 -5 -19 -8 -48 0 26 -29 vhcurveto
          4 5 4 5 16 vvcurveto
          24 -19 20 -25 -23 -22 -15 -32 -63 66 -47 100 89 81 54 91 vhcurveto
          416 30 vlineto
          16 25 57 callsubr
        </CharString>
        <CharString name="Iacute">
          48 callsubr
          63 -21 134 -20 -52 callgsubr
          hintmask 00110000
          -26 722 -107 callsubr
        </CharString>
        <CharString name="Ibreve">
          48 callsubr
          42 64 49 -20 -52 callgsubr
          hintmask 00110000
          44 705 -91 callgsubr
        </CharString>
        <CharString name="Icaron">
          -165 0 127 callgsubr
          vstemhm
          -95 callgsubr
          -5 658 -75 callgsubr
        </CharString>
        <CharString name="Icircumflex">
          -165 0 127 callgsubr
          vstemhm
          -95 callgsubr
          -4 671 -104 callsubr
          endchar
        </CharString>
        <CharString name="Idblgrave">
          48 callsubr
          63 130 callsubr
          -52 callgsubr
          hintmask 00110000
          31 661 -101 callgsubr
        </CharString>
        <CharString name="Idieresis">
          48 callsubr
          32 90 hstemhm
          32 91 17 69 20 91 hintmask 11001000
          -95 callgsubr
          hintmask 00110100
          -185 658 -59 callgsubr
        </CharString>
        <CharString name="Idieresisacute">
          48 callsubr
          32 116 callsubr
          32 91 17 69 20 91 hintmask 11000010
          -95 callgsubr
          hintmask 00111101
          -185 658 rmoveto
          -100 callgsubr
          197 hmoveto
          -100 callgsubr
          -38 185 -107 callsubr
        </CharString>
        <CharString name="Idotaccent">
          48 callsubr
          43 100 hstemhm
          124 101 -85 -49 callgsubr
          hintmask 00110000
          -83 674 -100 callsubr
        </CharString>
        <CharString name="Idotbelow">
          -165 41 callgsubr
          124 101 -85 69 hintmask 01101000
          -95 callgsubr
          hintmask 10010000
          -83 -180 -100 callsubr
        </CharString>
        <CharString name="Igrave">
          48 callsubr
          63 -21 134 -20 -52 callgsubr
          hintmask 00110000
          -27 663 -99 callgsubr
        </CharString>
        <CharString name="Ihookabove">
          48 callsubr
          64 -21 230 -20 -52 callgsubr
          hintmask 00111000
          -30 774 -107 callgsubr
        </CharString>
        <CharString name="Imacron">
          48 callsubr
          52 63 62 callsubr
          hintmask 11010000
          -95 callgsubr
          hintmask 00100000
          57 664 -84 callsubr
        </CharString>
        <CharString name="Imacron.alt">
          48 callsubr
          52 63 62 callsubr
          hintmask 11010000
          -95 callgsubr
          hintmask 00100000
          -31 664 14 callgsubr
        </CharString>
        <CharString name="Iogonek">
          136 callgsubr
          hstem
          140 69 21 69 vstem
          -94 callsubr
          88 hlineto
          -34 -26 -30 -41 -41 -77 callsubr
          47 26 42 40 21 hvcurveto
          38 -66 callgsubr
          endchar
        </CharString>
        <CharString name="Iogonekacute">
          136 callgsubr
          63 79 callgsubr
          140 69 21 69 hintmask 11100110
          -94 callsubr
          88 hlineto
          -34 -26 -30 -41 -41 -77 callsubr
          47 26 42 40 21 hvcurveto
          38 -66 callgsubr
          hintmask 00011000
          -26 722 -107 callsubr
        </CharString>
        <CharString name="Iota">
          48 callsubr
          hstem
          140 69 vstem
          -95 callgsubr
          endchar
        </CharString>
        <CharString name="Itilde">
          48 callsubr
          32 65 -10 65 -52 callgsubr
          hintmask 00010000
          43 701 -96 callsubr
        </CharString>
        <CharString name="J">
          10 65 callgsubr
          hstem
          71 89 178 69 vstem
          -33 callgsubr
          endchar
        </CharString>
        <CharString name="J_uni030C.cap">
          10 -11 61 403 -21 104 75 -61 61 hstemhm
          71 89 178 69 hintmask 10011100
          -33 callgsubr
          130 -37 10 callsubr
        </CharString>
        <CharString name="Jacute">
          10 65 callgsubr
          63 79 callgsubr
          71 89 178 69 hintmask 11001100
          -33 callgsubr
          hintmask 00110000
          -24 171 -107 callsubr
        </CharString>
        <CharString name="Jcircumflex">
          10 65 callgsubr
          hstemhm
          71 89 178 69 vstemhm
          -33 callgsubr
          -2 120 -104 callsubr
          endchar
        </CharString>
        <CharString name="K">
          273 31 callsubr
          hstem
          147 56 333 56 95 56 vstem
          -63 callsubr
          endchar
        </CharString>
        <CharString name="Kappa">
          273 31 callsubr
          hstem
          147 56 333 56 95 56 vstem
          -63 callsubr
          endchar
        </CharString>
        <CharString name="Kcedilla">
          273 89 callgsubr
          hstem
          147 56 333 56 95 56 vstem
          -63 callsubr
          -304 -130 -95 callsubr
        </CharString>
        <CharString name="Kcommaaccent">
          273 73 callsubr
          147 56 333 56 95 56 hintmask 00111110
          -63 callsubr
          hintmask 11000000
          -304 -130 -95 callsubr
        </CharString>
        <CharString name="L">
          94 callgsubr
          hstem
          140 69 319 69 vstem
          -74 callsubr
          endchar
        </CharString>
        <CharString name="L_uni0303">
          94 callgsubr
          32 65 -10 65 62 callsubr
          319 69 hintmask 11001100
          -74 callsubr
          hintmask 00010000
          -101 690 -96 callsubr
        </CharString>
        <CharString name="Lacute">
          94 callgsubr
          63 79 callgsubr
          140 69 319 69 hintmask 11001100
          -74 callsubr
          hintmask 00110000
          -170 711 -107 callsubr
        </CharString>
        <CharString name="Lambda">
          185 0 61 562 -20 hstem
          40 619 vstem
          659 30 -87 callgsubr
          -35 hlineto
          -173 529 rlineto
          33 -11 -23 0 -18 hhcurveto
          -19 hlineto
          -18 -23 0 -33 -11 hvcurveto
          -173 -529 rlineto
          -35 -105 callsubr
          150 -101 callsubr
          -42 hlineto
          161 494 162 -494 rlineto
          -42 -105 callsubr
          150 -66 callgsubr
          endchar
        </CharString>
        <CharString name="Lcaron">
          127 0 61 392 -21 104 75 -61 31 callgsubr
          319 69 hintmask 10011100
          -74 callsubr
          -121 503 10 callsubr
        </CharString>
        <CharString name="Lcedilla">
          127 89 callgsubr
          hstem
          140 69 319 69 vstem
          -74 callsubr
          -231 -141 -95 callsubr
        </CharString>
        <CharString name="Lcommaaccent">
          127 73 callsubr
          140 69 319 69 hintmask 00111100
          -74 callsubr
          hintmask 11000000
          -231 -141 -95 callsubr
        </CharString>
        <CharString name="Ldot">
          127 0 61 206 100 183 31 callgsubr
          235 101 -17 69 hintmask 11110100
          -74 callsubr
          -52 276 135 callgsubr
          hintmask 01001000
          -31 -20 -25 -25 -27 23 -23 27 31 20 25 25 hvcurveto
          endchar
        </CharString>
        <CharString name="Ldotbelow">
          127 41 callgsubr
          140 69 61 101 157 69 hintmask 01110100
          -74 callsubr
          hintmask 10001000
          -226 -191 -100 callsubr
        </CharString>
        <CharString name="Ldotbelowmacron">
          127 30 callsubr
          52 63 62 callsubr
          61 101 157 69 hintmask 11101110
          -74 callsubr
          -226 -191 60 callgsubr
          hintmask 00010000
          5 844 -84 callsubr
        </CharString>
        <CharString name="Lslash">
          127 0 61 184 61 244 61 hstemhm
          71 69 0 69 319 69 hintmask 11101100
          597 41 rmoveto
          89 vlineto
          20 0 21 -34 -35 0 -20 -21 vhcurveto
          -69 -319 245 vlineto
          201 139 13 9 4 18 -10 14 rlinecurve
          1 vlineto
          -9 13 -18 4 -13 -9 -168 -118 rcurveline
          173 78 -30 callsubr
          -201 -86 callsubr
          -214 hlineto
          hintmask 11010100
          -69 -50 -12 -9 -5 -18 9 -14 rlinecurve
          1 hlineto
          8 -13 18 -5 14 11 36 27 rcurveline
          -204 -54 vlineto
          -106 callgsubr
          471 134 callsubr
        </CharString>
        <CharString name="M">
          418 31 callsubr
          hstem
          147 56 526 56 vstem
          -45 callsubr
          endchar
        </CharString>
        <CharString name="Mdotbelow">
          418 41 callgsubr
          147 56 213 101 212 56 hintmask 01110100
          -45 callsubr
          hintmask 10001000
          -362 -180 -100 callsubr
        </CharString>
        <CharString name="Mu">
          418 31 callsubr
          hstem
          147 56 526 56 vstem
          -45 callsubr
          endchar
        </CharString>
        <CharString name="N">
          31 callsubr
          hstem
          118 callgsubr
          vstem
          -93 callsubr
          endchar
        </CharString>
        <CharString name="Nacute">
          31 callsubr
          63 79 callgsubr
          118 callgsubr
          hintmask 11001100
          -93 callsubr
          hintmask 00110000
          -218 172 -107 callsubr
        </CharString>
        <CharString name="Ncaron">
          31 callsubr
          hstemhm
          118 callgsubr
          vstemhm
          -93 callsubr
          -197 108 -75 callgsubr
        </CharString>
        <CharString name="Ncedilla">
          89 callgsubr
          hstem
          118 callgsubr
          vstem
          -93 callsubr
          -279 -680 -95 callsubr
        </CharString>
        <CharString name="Ncommaaccent">
          73 callsubr
          118 callgsubr
          hintmask 00111100
          -93 callsubr
          hintmask 11000000
          -279 -680 -95 callsubr
        </CharString>
        <CharString name="Ndotaccent">
          98 callsubr
          100 hstemhm
          147 56 125 101 125 56 hintmask 11010100
          -93 callsubr
          hintmask 00101000
          -275 113 -100 callsubr
        </CharString>
        <CharString name="Ndotbelow">
          41 callgsubr
          147 56 125 101 125 56 hintmask 01110100
          -93 callsubr
          hintmask 10001000
          -275 -730 -100 callsubr
        </CharString>
        <CharString name="Ntilde">
          98 callsubr
          148 callsubr
          118 callgsubr
          hintmask 11001100
          -93 callsubr
          hintmask 00010000
          -149 151 -96 callsubr
        </CharString>
        <CharString name="Nu">
          31 callsubr
          hstem
          118 callgsubr
          vstem
          -93 callsubr
          endchar
        </CharString>
        <CharString name="O">
          29 callgsubr
          hstem
          70 callgsubr
          vstem
          -102 callsubr
          endchar
        </CharString>
        <CharString name="OE">
          -35 callgsubr
        </CharString>
        <CharString name="OE.dup">
          -35 callgsubr
        </CharString>
        <CharString name="Oacute">
          302 124 callgsubr
          562 69 hintmask 11001100
          -102 callsubr
          hintmask 00110000
          -174 435 -107 callsubr
        </CharString>
        <CharString name="Obreve">
          29 callgsubr
          31 64 49 -20 77 callgsubr
          hintmask 11001100
          -102 callsubr
          hintmask 00110000
          -104 418 -91 callgsubr
        </CharString>
        <CharString name="Ocaron">
          302 116 callgsubr
          69 562 69 vstemhm
          -102 callsubr
          -153 371 -75 callgsubr
        </CharString>
        <CharString name="Ocircumflex">
          302 116 callgsubr
          69 562 69 vstemhm
          -102 callsubr
          -152 384 -104 callsubr
          endchar
        </CharString>
        <CharString name="Ocircumflexacute">
          29 callgsubr
          277 -20 77 callgsubr
          hintmask 11011000
          -102 callsubr
          hintmask 00100000
          -152 384 -13 callsubr
          163 -107 callsubr
        </CharString>
        <CharString name="Ocircumflexdotbelow">
          302 108 callgsubr
          69 231 101 230 69 hintmask 01110100
          -102 callsubr
          -152 384 -104 callsubr
          hintmask 10001000
          -78 -851 -100 callsubr
        </CharString>
        <CharString name="Ocircumflexgrave">
          302 116 callgsubr
          69 562 69 vstemhm
          -102 callsubr
          -152 384 -79 callsubr
        </CharString>
        <CharString name="Ocircumflexhookabove">
          29 callgsubr
          353 -20 77 callgsubr
          hintmask 11011000
          -102 callsubr
          hintmask 00100000
          -152 384 -104 callsubr
          77 194 -107 callgsubr
        </CharString>
        <CharString name="Ocircumflextilde">
          29 callgsubr
          163 65 -10 65 77 callgsubr
          hintmask 11001100
          -102 callsubr
          hintmask 00010000
          -152 384 -10 callgsubr
        </CharString>
        <CharString name="Odblgrave">
          29 callgsubr
          52 130 callsubr
          77 callgsubr
          hintmask 11001100
          -102 callsubr
          hintmask 00110000
          -117 374 -101 callgsubr
        </CharString>
        <CharString name="Odieresis">
          29 callgsubr
          21 90 hstemhm
          58 69 138 91 106 91 136 69 hintmask 11010010
          -102 callsubr
          hintmask 00101100
          -333 371 -59 callgsubr
        </CharString>
        <CharString name="Odotbelow">
          302 108 callgsubr
          69 231 101 230 69 hintmask 01110100
          -102 callsubr
          hintmask 10001000
          -230 -467 -100 callsubr
        </CharString>
        <CharString name="Ograve">
          302 124 callgsubr
          562 69 hintmask 11001100
          -102 callsubr
          hintmask 00110000
          -175 376 -99 callgsubr
        </CharString>
        <CharString name="Ohookabove">
          29 callgsubr
          53 -21 230 -20 77 callgsubr
          hintmask 11001100
          -102 callsubr
          hintmask 00110000
          -178 487 -107 callgsubr
        </CharString>
        <CharString name="Ohorn">
          55 callsubr
          89 -20 hstemhm
          58 70 559 69 hintmask 00100000
          756 305 rmoveto
          86 -38 81 -64 57 vhcurveto
          hintmask 01001000
          -8 8 -9 7 -9 7 rrcurveto
          29 18 16 37 37 129 callsubr
          1 vhcurveto
          -30 -1 -20 -24 -25 vvcurveto
          -21 12 -19 20 -7 vhcurveto
          -10 -6 -8 -6 -9 hhcurveto
          hintmask 00100000
          -8 -7 -3 -5 -5 hvcurveto
          hintmask 00010000
          21 -48 -53 11 -54 hhcurveto
          hintmask 10100110
          -91 -88 -32 -61 -68 hvcurveto
          -63 -57 -39 -81 -86 vvcurveto
          -85 39 -81 63 -57 vhcurveto
          -61 68 88 -32 91 hhcurveto
          91 89 32 61 67 hvcurveto
          64 57 38 81 85 vvcurveto
          -69 13 rmoveto
          -72 -30 -68 -52 -50 vhcurveto
          -50 -53 -71 -28 -74 hhcurveto
          -73 -71 28 50 -53 hvcurveto
          -52 50 -30 68 72 vvcurveto
          hintmask 01010010
          66 31 62 51 44 vhcurveto
          47 54 71 24 72 hhcurveto
          73 70 -24 -47 55 hvcurveto
          50 -44 32 -62 -66 vvcurveto
          endchar
        </CharString>
        <CharString name="Ohornacute">
          55 callsubr
          52 -21 58 -20 96 -56 callgsubr
          -201 434 -107 callsubr
        </CharString>
        <CharString name="Ohorndotbelow">
          301 -200 100 89 93 callgsubr
          89 -20 hstemhm
          58 70 229 101 229 69 hintmask 0001000000000000
          756 305 rmoveto
          86 -38 81 -64 57 vhcurveto
          hintmask 0010010000000000
          -8 8 -9 7 -9 7 rrcurveto
          29 18 16 37 37 129 callsubr
          1 vhcurveto
          -30 -1 -20 -24 -25 vvcurveto
          -21 12 -19 20 -7 vhcurveto
          -10 -6 -8 -6 -9 hhcurveto
          hintmask 0001000000000000
          -8 -7 -3 -5 -5 hvcurveto
          hintmask 0000100000000000
          21 -48 -53 11 -54 hhcurveto
          hintmask 0101001010000000
          -91 -88 -32 -61 -68 hvcurveto
          -63 -57 -39 -81 -86 vvcurveto
          -85 39 -81 63 -57 vhcurveto
          -61 68 88 -32 91 hhcurveto
          91 89 32 61 67 hvcurveto
          64 57 38 81 85 vvcurveto
          -69 13 rmoveto
          -72 -30 -68 -52 -50 vhcurveto
          -50 -53 -71 -28 -74 hhcurveto
          -73 -71 28 50 -53 hvcurveto
          -52 50 -30 68 72 vvcurveto
          hintmask 0010100010000000
          66 31 62 51 44 vhcurveto
          47 54 71 24 72 hhcurveto
          73 70 -24 -47 55 hvcurveto
          50 -44 32 -62 -66 vvcurveto
          hintmask 1000000100000000
          -229 -468 -100 callsubr
        </CharString>
        <CharString name="Ohorngrave">
          55 callsubr
          52 -21 58 -20 96 -56 callgsubr
          -173 375 -99 callgsubr
        </CharString>
        <CharString name="Ohornhookabove">
          55 callsubr
          53 -21 57 -20 193 -56 callgsubr
          -176 486 -107 callgsubr
        </CharString>
        <CharString name="Ohorntilde">
          55 callsubr
          21 65 -10 65 -52 -20 hstemhm
          58 70 559 69 hintmask 0010000000000000
          756 305 rmoveto
          86 -38 81 -64 57 vhcurveto
          hintmask 0100100000000000
          -8 8 -9 7 -9 7 rrcurveto
          29 18 16 37 37 vvcurveto
          hintmask 0010001000000000
          30 -11 37 -39 1 vhcurveto
          -30 -1 -20 -24 -25 vvcurveto
          -21 12 -19 20 -7 vhcurveto
          -10 -6 -8 -6 -9 hhcurveto
          -8 -7 -3 -5 -5 hvcurveto
          hintmask 0001000000000000
          21 -48 -53 11 -54 hhcurveto
          hintmask 1010000110000000
          -91 -88 -32 -61 -68 hvcurveto
          -63 -57 -39 -81 -86 vvcurveto
          -85 39 -81 63 -57 vhcurveto
          -61 68 88 -32 91 hhcurveto
          91 89 32 61 67 hvcurveto
          64 57 38 81 85 vvcurveto
          -69 13 rmoveto
          -72 -30 -68 -52 -50 vhcurveto
          -50 -53 -71 -28 -74 hhcurveto
          -73 -71 28 50 -53 hvcurveto
          -52 50 -30 68 72 vvcurveto
          hintmask 0101000010000000
          66 31 62 51 44 vhcurveto
          47 54 71 24 72 hhcurveto
          73 70 -24 -47 55 hvcurveto
          50 -44 32 -62 -66 vvcurveto
          hintmask 0000010000000000
          -132 413 rmoveto
          16 -15 16 -16 -11 -6 -5 -6 -7 vhcurveto
          hintmask 0000100000000000
          -28 -30 -26 -16 -14 hhcurveto
          -10 -8 9 12 -13 hvcurveto
          hintmask 0000010000000000
          -88 callgsubr
          hintmask 0000100000000000
          -16 15 -16 16 11 6 5 6 7 vhcurveto
          hintmask 0000010000000000
          28 30 26 16 14 hhcurveto
          10 8 -9 -12 13 hvcurveto
          hintmask 0000100000000000
          -91 callsubr
        </CharString>
        <CharString name="Ohungarumlaut">
          29 callgsubr
          52 130 callsubr
          77 callgsubr
          hintmask 11001100
          -102 callsubr
          hintmask 00110000
          -296 434 -81 callgsubr
        </CharString>
        <CharString name="Omacron">
          29 callgsubr
          41 63 77 callgsubr
          hintmask 11011000
          -102 callsubr
          hintmask 00100000
          -91 377 -84 callsubr
        </CharString>
        <CharString name="Omega">
          -18 callsubr
        </CharString>
        <CharString name="Omicron">
          29 callgsubr
          hstem
          70 callgsubr
          vstem
          -102 callsubr
          endchar
        </CharString>
        <CharString name="Oogonek">
          29 callgsubr
          hstem
          70 callgsubr
          vstem
          -7 callgsubr
          endchar
        </CharString>
        <CharString name="Oogonekacute">
          302 124 callgsubr
          562 69 hintmask 11001100
          -7 callgsubr
          hintmask 00110000
          -174 435 -107 callsubr
        </CharString>
        <CharString name="Orogate">
          302 70 callgsubr
          vstem
          758 305 rmoveto
          164 -138 138 -181 14 vhcurveto
          112 vlineto
          74 callgsubr
          -112 vlineto
          -183 -15 -136 -140 -160 vvcurveto
          -164 138 -138 181 -14 vhcurveto
          -111 146 callsubr
          111 vlineto
          183 15 136 140 160 vvcurveto
          -85 callgsubr
          endchar
        </CharString>
        <CharString name="Oslash">
          302 -85 61 13 51 callsubr
          74 -20 hstem
          58 56 588 56 vstem
          -50 callgsubr
          endchar
        </CharString>
        <CharString name="Oslash.dup">
          302 -85 61 13 51 callsubr
          74 -20 hstem
          58 56 588 56 vstem
          -50 callgsubr
          endchar
        </CharString>
        <CharString name="Oslashacute">
          302 -85 61 13 51 callsubr
          52 -21 43 -20 111 -20 hstemhm
          58 56 588 56 hintmask 11101011
          -50 callgsubr
          hintmask 00010100
          -187 446 -107 callsubr
        </CharString>
        <CharString name="Otilde">
          29 callgsubr
          21 65 -10 65 77 callgsubr
          hintmask 11001100
          -102 callsubr
          hintmask 00010000
          -105 414 -96 callsubr
        </CharString>
        <CharString name="P">
          2 callsubr
        </CharString>
        <CharString name="Phi">
          0 61 93 61 181 61 93 61 hstem
          58 69 217 69 217 69 cntrmask 00001110
          699 305 rmoveto
          90 -150 57 -136 5 vhcurveto
          93 78 -30 callsubr
          -225 -105 callsubr
          78 -93 hlineto
          -140 -5 -146 -60 -86 vvcurveto
          -90 150 -57 136 -5 vhcurveto
          -93 -78 vlineto
          -106 callgsubr
          225 -101 callsubr
          -78 93 hlineto
          140 5 146 60 86 vvcurveto
          -355 -90 rmoveto
          -66 2 -151 24 65 vvcurveto
          61 142 27 75 2 vhcurveto
          286 -90 rmoveto
          -65 -151 -24 -66 -2 vhcurveto
          181 vlineto
          74 -2 143 -27 -61 vvcurveto
          endchar
        </CharString>
        <CharString name="Pi">
          0 61 489 142 callgsubr
          339 69 vstem
          711 14 callsubr
          -585 -88 callsubr
          489 339 -489 -15 callgsubr
          endchar
        </CharString>
        <CharString name="Psi">
          302 0 61 93 61 207 61 67 142 callgsubr
          165 69 164 69 vstem
          758 452 130 callgsubr
          -12 -47 -22 -21 -15 -14 vhcurveto
          -29 -28 -1 -37 -1 -25 -4 -95 -76 -40 -84 -7 rrcurveto
          335 78 -30 callsubr
          -225 -80 callgsubr
          78 -335 hlineto
          -94 8 -67 45 -4 92 rrcurveto
          101 -4 -68 22 -42 hhcurveto
          -11 -26 0 -31 -24 20 -5 4 -1 hvcurveto
          56 -5 1 -35 1 -30 2 -42 23 -63 42 -34 55 -43 52 -11 60 -5 rrcurveto
          -93 87 callgsubr
          93 hlineto
          129 10 99 64 5 126 1 25 1 38 52 5 rrcurveto
          16 2 12 9 19 vvcurveto
          endchar
        </CharString>
        <CharString name="Q">
          302 -118 -21 128 51 callsubr
          hstem
          70 callgsubr
          vstem
          -78 callgsubr
          29 33 3 10 40 vhcurveto
          4 2 3 0 0 vvcurveto
          15 -16 99 -109 rlineto
          -18 16 9 0 21 hhcurveto
          15 16 0 17 7 -13 14 -9 10 hvcurveto
          -108 119 rlineto
          162 88 18 133 56 vvcurveto
          -69 1 rmoveto
          -99 -63 -89 -93 -41 vhcurveto
          -48 51 -17 21 -11 11 rrcurveto
          10 -11 -1 1 -23 hhcurveto
          -22 -10 0 -22 hvcurveto
          81 -93 rlineto
          -30 -6 -33 0 0 vvcurveto
          85 callsubr
          hvcurveto
          endchar
        </CharString>
        <CharString name="R">
          0 61 214 61 214 31 callgsubr
          309 139 callgsubr
          hintmask 11101010
          754 94 130 callgsubr
          -10 -12 -19 0 -30 -3 vhcurveto
          -31 -3 -20 -14 -21 hhcurveto
          -54 0 50 61 54 0 16 -20 30 hvcurveto
          -14 20 -20 15 -22 11 rrcurveto
          hintmask 11110100
          -81 callsubr
          hintmask 11111010
          40 -23 0 -12 -60 vvcurveto
          -60 0 -27 26 -36 vhcurveto
          -27 20 36 -18 41 hhcurveto
          71 42 57 48 hvcurveto
          -197 349 rmoveto
          -63 -105 -44 -107 vhcurveto
          -136 214 136 hlineto
          hintmask 11100100
          99 callgsubr
          endchar
        </CharString>
        <CharString name="Racute">
          0 61 214 61 214 31 callgsubr
          309 139 callgsubr
          hintmask 11101010
          754 94 130 callgsubr
          -10 -12 -19 0 -30 -3 vhcurveto
          -31 -3 -20 -14 -21 hhcurveto
          -54 0 50 61 54 0 16 -20 30 hvcurveto
          -14 20 -20 15 -22 11 rrcurveto
          hintmask 11110100
          -81 callsubr
          hintmask 11111010
          40 -23 0 -12 -60 vvcurveto
          -60 0 -27 26 -36 vhcurveto
          -27 20 36 -18 41 hhcurveto
          71 42 57 48 hvcurveto
          -197 349 rmoveto
          -63 -105 -44 -107 vhcurveto
          -136 214 136 hlineto
          hintmask 11100100
          99 callgsubr
          hintmask 11100000
          -71 309 -107 callsubr
        </CharString>
        <CharString name="Rcaron">
          0 61 214 61 214 31 callgsubr
          309 139 callgsubr
          hintmask 11101010
          754 94 130 callgsubr
          -10 -12 -19 0 -30 -3 vhcurveto
          -31 -3 -20 -14 -21 hhcurveto
          -54 0 50 61 54 0 16 -20 30 hvcurveto
          -14 20 -20 15 -22 11 rrcurveto
          hintmask 11110100
          -81 callsubr
          hintmask 11111010
          40 -23 0 -12 -60 vvcurveto
          -60 0 -27 26 -36 vhcurveto
          -27 20 36 -18 41 hhcurveto
          71 42 57 48 hvcurveto
          -197 349 rmoveto
          -63 -105 -44 -107 vhcurveto
          -136 214 136 hlineto
          hintmask 11100100
          99 callgsubr
          hintmask 11100000
          -50 245 -75 callgsubr
        </CharString>
        <CharString name="Rcedilla">
          0 61 214 61 214 31 callgsubr
          309 139 callgsubr
          hintmask 11101010
          754 94 130 callgsubr
          -10 -12 -19 0 -30 -3 vhcurveto
          -31 -3 -20 -14 -21 hhcurveto
          -54 0 50 61 54 0 16 -20 30 hvcurveto
          -14 20 -20 15 -22 11 rrcurveto
          hintmask 11110100
          -81 callsubr
          hintmask 11111010
          40 -23 0 -12 -60 vvcurveto
          -60 0 -27 26 -36 vhcurveto
          -27 20 36 -18 41 hhcurveto
          71 42 57 48 hvcurveto
          -197 349 rmoveto
          -63 -105 -44 -107 vhcurveto
          -136 214 136 hlineto
          hintmask 11100100
          99 callgsubr
          -132 -543 -95 callsubr
        </CharString>
        <CharString name="Rcommaaccent">
          0 61 214 61 214 31 callgsubr
          309 139 callgsubr
          hintmask 11101010
          754 94 130 callgsubr
          -10 -12 -19 0 -30 -3 vhcurveto
          -31 -3 -20 -14 -21 hhcurveto
          -54 0 50 61 54 0 16 -20 30 hvcurveto
          -14 20 -20 15 -22 11 rrcurveto
          hintmask 11110100
          -81 callsubr
          hintmask 11111010
          40 -23 0 -12 -60 vvcurveto
          -60 0 -27 26 -36 vhcurveto
          -27 20 36 -18 41 hhcurveto
          71 42 57 48 hvcurveto
          -197 349 rmoveto
          -63 -105 -44 -107 vhcurveto
          -136 214 136 hlineto
          hintmask 11100100
          99 callgsubr
          hintmask 11100000
          -132 -543 -95 callsubr
        </CharString>
        <CharString name="Rdblgrave">
          0 61 214 61 214 31 callgsubr
          309 139 callgsubr
          hintmask 11101010
          754 94 130 callgsubr
          -10 -12 -19 0 -30 -3 vhcurveto
          -31 -3 -20 -14 -21 hhcurveto
          -54 0 50 61 54 0 16 -20 30 hvcurveto
          -14 20 -20 15 -22 11 rrcurveto
          hintmask 11110100
          -81 callsubr
          hintmask 11111010
          40 -23 0 -12 -60 vvcurveto
          -60 0 -27 26 -36 vhcurveto
          -27 20 36 -18 41 hhcurveto
          71 42 57 48 hvcurveto
          -197 349 rmoveto
          -63 -105 -44 -107 vhcurveto
          -136 214 136 hlineto
          hintmask 11100100
          99 callgsubr
          hintmask 11100000
          -43 248 -101 callgsubr
        </CharString>
        <CharString name="Rdotaccent">
          0 61 214 61 214 31 callgsubr
          119 101 89 139 callgsubr
          hintmask 11100101
          754 94 130 callgsubr
          -10 -12 -19 0 -30 -3 vhcurveto
          -31 -3 -20 -14 -21 hhcurveto
          -54 0 50 61 54 0 16 -20 30 hvcurveto
          -14 20 -20 15 -22 11 rrcurveto
          hintmask 11110010
          -81 callsubr
          hintmask 11110101
          40 -23 0 -12 -60 vvcurveto
          -60 0 -27 26 -36 vhcurveto
          -27 20 36 -18 41 hhcurveto
          71 42 57 48 hvcurveto
          -197 349 rmoveto
          -63 -105 -44 -107 vhcurveto
          -136 214 136 hlineto
          hintmask 11100010
          99 callgsubr
          hintmask 11101000
          -128 261 -100 callsubr
        </CharString>
        <CharString name="Rdotbelow">
          0 61 214 61 214 31 callgsubr
          119 101 89 139 callgsubr
          hintmask 11100101
          754 94 130 callgsubr
          -10 -12 -19 0 -30 -3 vhcurveto
          -31 -3 -20 -14 -21 hhcurveto
          -54 0 50 61 54 0 16 -20 30 hvcurveto
          -14 20 -20 15 -22 11 rrcurveto
          hintmask 11110010
          -81 callsubr
          hintmask 11110101
          40 -23 0 -12 -60 vvcurveto
          -60 0 -27 26 -36 vhcurveto
          -27 20 36 -18 41 hhcurveto
          71 42 57 48 hvcurveto
          -197 349 rmoveto
          -63 -105 -44 -107 vhcurveto
          -136 214 136 hlineto
          hintmask 11100010
          99 callgsubr
          hintmask 11101000
          -128 -593 -100 callsubr
        </CharString>
        <CharString name="Rdotbelowmacron">
          0 61 214 61 214 31 callgsubr
          119 101 89 139 callgsubr
          hintmask 11100101
          754 94 130 callgsubr
          -10 -12 -19 0 -30 -3 vhcurveto
          -31 -3 -20 -14 -21 hhcurveto
          -54 0 50 61 54 0 16 -20 30 hvcurveto
          -14 20 -20 15 -22 11 rrcurveto
          hintmask 11110010
          -81 callsubr
          hintmask 11110101
          40 -23 0 -12 -60 vvcurveto
          -60 0 -27 26 -36 vhcurveto
          -27 20 36 -18 41 hhcurveto
          71 42 57 48 hvcurveto
          -197 349 rmoveto
          -63 -105 -44 -107 vhcurveto
          -136 214 136 hlineto
          hintmask 11101010
          99 callgsubr
          -128 -593 60 callgsubr
          hintmask 11100000
          140 844 -84 callsubr
        </CharString>
        <CharString name="Rho">
          2 callsubr
        </CharString>
        <CharString name="S">
          68 27 callsubr
          hstem
          58 65 336 65 vstem
          524 166 rmoveto
          -99 callsubr
          -42 58 83 -6 47 hhcurveto
          133 76 90 87 hvcurveto
          endchar
        </CharString>
        <CharString name="S_S">
          652 27 callsubr
          hstem
          58 65 336 65 117 65 336 65 vstem
          524 166 rmoveto
          -99 callsubr
          -42 58 83 -6 47 hhcurveto
          133 76 90 87 hvcurveto
          583 hmoveto
          -99 callsubr
          -42 58 83 -6 47 hhcurveto
          133 76 90 87 hvcurveto
          endchar
        </CharString>
        <CharString name="Sacute">
          68 96 callsubr
          65 336 65 hintmask 11001100
          524 166 rmoveto
          -99 callsubr
          -42 58 83 -6 47 hhcurveto
          133 76 90 87 hvcurveto
          hintmask 00110000
          -126 586 -107 callsubr
        </CharString>
        <CharString name="Scaron">
          68 116 callgsubr
          65 336 65 vstemhm
          524 166 rmoveto
          -99 callsubr
          -42 58 83 -6 47 hhcurveto
          133 76 90 87 hvcurveto
          -105 522 -75 callgsubr
        </CharString>
        <CharString name="Scedilla">
          68 27 callsubr
          hstem
          58 65 75 65 196 65 vstem
          524 166 rmoveto
          -99 callsubr
          48 -34 64 -11 47 -2 rrcurveto
          -17 66 callgsubr
          52 -39 32 -48 13 vhcurveto
          2 vlineto
          108 16 61 80 78 vvcurveto
          endchar
        </CharString>
        <CharString name="Scircumflex">
          68 116 callgsubr
          65 336 65 vstemhm
          524 166 rmoveto
          -99 callsubr
          -42 58 83 -6 47 hhcurveto
          133 76 90 87 hvcurveto
          -104 535 -104 callsubr
          endchar
        </CharString>
        <CharString name="Sdotbelow">
          68 108 callgsubr
          65 118 101 117 65 hintmask 01110100
          524 166 rmoveto
          -99 callsubr
          -42 58 83 -6 47 hhcurveto
          133 76 90 87 hvcurveto
          hintmask 10001000
          -182 -316 -100 callsubr
        </CharString>
        <CharString name="Sigma">
          0 63 487 61 hstem
          630 69 vstem
          699 41 rmoveto
          75 vlineto
          33 callgsubr
          -53 -461 vlineto
          183 217 rlineto
          12 14 0 11 0 vvcurveto
          11 -5 6 -7 8 vhcurveto
          -188 220 rlineto
          466 -53 hlineto
          -66 callsubr
          45 callsubr
          -560 hlineto
          -16 -25 0 -31 -12 4 -4 7 -9 hvcurveto
          213 -250 -212 -253 rlineto
          -8 -9 -4 -5 -10 vvcurveto
          -28 28 0 13 vhcurveto
          560 134 callsubr
        </CharString>
        <CharString name="T">
          120 callsubr
          cntrmask 00111000
          -76 callsubr
          endchar
        </CharString>
        <CharString name="T_uni0303">
          98 callsubr
          148 callsubr
          38 69 237 69 237 69 hintmask 11001110
          -76 callsubr
          hintmask 00010000
          -164 234 -96 callsubr
        </CharString>
        <CharString name="T_uni0308">
          98 callsubr
          90 hstemhm
          38 69 129 91 17 69 20 91 126 69 hintmask 11010101
          -76 callsubr
          hintmask 00101010
          -392 191 -59 callgsubr
        </CharString>
        <CharString name="Tau">
          120 callsubr
          vstem
          -76 callsubr
          endchar
        </CharString>
        <CharString name="Tcaron">
          0 124 callsubr
          vstemhm
          -76 callsubr
          -212 191 -75 callgsubr
        </CharString>
        <CharString name="Tcedilla">
          -211 62 149 109 callgsubr
          -68 69 18 69 149 69 hintmask 01111001
          719 497 rmoveto
          45 callsubr
          -600 hlineto
          -33 -8 -8 -33 hvcurveto
          -73 -12 callgsubr
          53 237 -489 -93 vlineto
          -14 -27 0 -30 -31 0 callgsubr
          hintmask 11000110
          94 -30 hlineto
          -17 0 -20 30 -2 vhcurveto
          68 callsubr
          hintmask 01101001
          -1 13 rlineto
          93 hlineto
          14 27 0 30 31 2 callgsubr
          hvcurveto
          -93 489 237 -53 hlineto
          -66 callsubr
          endchar
        </CharString>
        <CharString name="Tdotbelow">
          41 callgsubr
          38 69 221 101 -85 69 237 69 hintmask 01110110
          -76 callsubr
          hintmask 10001000
          -290 -647 -100 callsubr
        </CharString>
        <CharString name="Theta">
          302 -11 61 222 67 222 61 hstem
          58 69 59 69 306 69 59 69 cntrmask 11100000
          -78 callgsubr
          -12 callsubr
          vhcurveto
          -69 1 rmoveto
          -141 -125 -115 -156 85 callsubr
          vhcurveto
          -59 -24 rmoveto
          47 vlineto
          20 0 21 -35 -11 -21 0 -31 -2 vhcurveto
          -306 hlineto
          30 -2 -20 1 -12 hhcurveto
          85 callgsubr
          hvcurveto
          -47 vlineto
          -20 0 -21 35 11 21 0 31 2 vhcurveto
          306 hlineto
          -30 2 20 -1 12 34 callgsubr
          endchar
        </CharString>
        <CharString name="Thorn">
          127 0 61 98 123 callsubr
          43 61 hstem
          140 70 303 70 vstem
          583 333 rmoveto
          87 -86 87 -135 vhcurveto
          -152 43 51 hlineto
          19 24 0 30 31 -23 0 -20 hvcurveto
          -172 hlineto
          -19 -24 0 -30 -31 23 0 20 hvcurveto
          51 -489 -51 hlineto
          -19 -24 0 -30 -31 23 0 20 hvcurveto
          172 hlineto
          19 24 0 30 31 -23 0 -20 hvcurveto
          -51 98 153 hlineto
          132 88 85 89 hvcurveto
          -70 hmoveto
          -57 -71 -56 -107 vhcurveto
          -125 226 137 hlineto
          105 61 -58 -55 hvcurveto
          endchar
        </CharString>
        <CharString name="Tlinebelow">
          -181 63 118 124 callsubr
          hintmask 01111100
          -76 callsubr
          hintmask 10000000
          -150 -647 -84 callsubr
        </CharString>
        <CharString name="U">
          -11 61 500 142 callgsubr
          339 69 vstem
          -103 callgsubr
          endchar
        </CharString>
        <CharString name="U_uni032F">
          -185 -21 49 64 82 61 500 31 callgsubr
          339 69 hintmask 00111100
          -103 callgsubr
          hintmask 11000100
          -132 -755 -52 callsubr
        </CharString>
        <CharString name="Uacute">
          65 callgsubr
          63 79 callgsubr
          140 69 339 69 hintmask 11001100
          -103 callgsubr
          hintmask 00110000
          -202 172 -107 callsubr
        </CharString>
        <CharString name="Ubreve">
          65 callgsubr
          42 64 49 -20 62 callsubr
          339 69 hintmask 11001100
          -103 callgsubr
          hintmask 00110100
          -132 155 -91 callgsubr
        </CharString>
        <CharString name="Ucaron">
          -11 61 500 31 callgsubr
          339 69 vstemhm
          -103 callgsubr
          -181 108 -75 callgsubr
        </CharString>
        <CharString name="Ucircumflex">
          -11 61 500 31 callgsubr
          339 69 vstemhm
          -103 callgsubr
          -180 121 -104 callsubr
          endchar
        </CharString>
        <CharString name="Udblgrave">
          65 callgsubr
          63 130 callsubr
          62 callsubr
          339 69 hintmask 11001100
          -103 callgsubr
          hintmask 00110000
          -145 111 -101 callgsubr
        </CharString>
        <CharString name="Udieresis">
          65 callgsubr
          32 90 143 callsubr
          hintmask 11010010
          -103 callgsubr
          hintmask 00101100
          -6 callgsubr
          endchar
        </CharString>
        <CharString name="Udieresisacute">
          65 callgsubr
          32 90 62 -21 134 -20 143 callsubr
          hintmask 1100010010000000
          -103 callgsubr
          hintmask 0011101100000000
          -6 callgsubr
          -38 185 -107 callsubr
        </CharString>
        <CharString name="Udieresiscaron">
          65 callgsubr
          32 90 143 callsubr
          hintmask 11010010
          -103 callgsubr
          hintmask 00101100
          -6 callgsubr
          -17 121 -75 callgsubr
        </CharString>
        <CharString name="Udieresisgrave">
          65 callgsubr
          32 90 62 -21 134 -20 143 callsubr
          hintmask 1100010010000000
          -103 callgsubr
          hintmask 0011101100000000
          -6 callgsubr
          -39 126 -99 callgsubr
        </CharString>
        <CharString name="Udotbelow">
          -200 100 89 61 500 31 callgsubr
          142 101 96 69 hintmask 01110100
          -103 callgsubr
          hintmask 10001000
          -259 -730 -100 callsubr
        </CharString>
        <CharString name="Ugrave">
          65 callgsubr
          63 79 callgsubr
          140 69 339 69 hintmask 11001100
          -103 callgsubr
          hintmask 00110000
          -203 113 -99 callgsubr
        </CharString>
        <CharString name="Uhookabove">
          65 callgsubr
          64 101 callgsubr
          140 69 339 69 hintmask 11001100
          -103 callgsubr
          hintmask 00110000
          -206 224 -107 callgsubr
        </CharString>
        <CharString name="Uhorn">
          65 callgsubr
          -28 61 67 93 callsubr
          hintmask 01010000
          693 644 rmoveto
          30 -12 36 -38 1 vhcurveto
          -30 -1 -20 -24 -25 vvcurveto
          -19 10 -17 16 -9 vhcurveto
          -4 -4 -5 -3 -6 -3 rrcurveto
          3 -5 -5 2 -6 hhcurveto
          -107 64 callgsubr
          hintmask 11001100
          -16 12 -12 16 vhcurveto
          66 -346 hlineto
          -41 -18 -39 -31 -28 vhcurveto
          -30 -32 -43 -16 -45 hhcurveto
          -45 -43 16 30 -32 hvcurveto
          -31 28 -18 39 41 vvcurveto
          346 66 vlineto
          16 12 12 16 hvcurveto
          hintmask 00100000
          5 vlineto
          hintmask 01000000
          15 -12 13 -16 vhcurveto
          -201 64 callgsubr
          hintmask 11001100
          -16 12 -12 16 vhcurveto
          66 -346 hlineto
          -59 27 -55 44 -39 vhcurveto
          -41 45 60 -21 62 hhcurveto
          62 60 21 41 45 hvcurveto
          45 39 26 55 59 vvcurveto
          342 vlineto
          hintmask 00100000
          44 13 33 38 47 vvcurveto
          endchar
        </CharString>
        <CharString name="Uhornacute">
          65 callgsubr
          -28 61 30 -21 58 -20 96 93 callsubr
          hintmask 01001000
          -69 callgsubr
          hintmask 00010100
          -214 108 -107 callsubr
        </CharString>
        <CharString name="Uhorndotbelow">
          -200 100 89 102 callgsubr
          -28 61 67 -20 62 callsubr
          119 101 118 69 hintmask 00101000
          693 644 rmoveto
          30 -12 36 -38 1 vhcurveto
          -30 -1 -20 -24 -25 vvcurveto
          -19 10 -17 16 -9 vhcurveto
          -4 -4 -5 -3 -6 -3 rrcurveto
          3 -5 -5 2 -6 hhcurveto
          -107 hlineto
          hintmask 00010000
          38 callsubr
          hintmask 01100101
          -16 12 -12 16 vhcurveto
          66 -346 hlineto
          -41 -18 -39 -31 -28 vhcurveto
          -30 -32 -43 -16 -45 hhcurveto
          -45 -43 16 30 -32 hvcurveto
          -31 28 -18 39 41 vvcurveto
          346 66 vlineto
          16 12 12 16 hvcurveto
          hintmask 00010000
          5 vlineto
          hintmask 00100000
          15 -12 13 -16 vhcurveto
          -201 hlineto
          hintmask 00010000
          38 callsubr
          hintmask 01100101
          -16 12 -12 16 vhcurveto
          66 -346 hlineto
          -59 27 -55 44 -39 vhcurveto
          -41 45 60 -21 62 hhcurveto
          62 60 21 41 45 hvcurveto
          45 39 26 55 59 vvcurveto
          342 vlineto
          hintmask 00010000
          44 13 33 38 47 vvcurveto
          hintmask 10000010
          -264 -794 -100 callsubr
        </CharString>
        <CharString name="Uhorngrave">
          65 callgsubr
          -28 61 30 -21 58 -20 96 93 callsubr
          hintmask 01001000
          -69 callgsubr
          hintmask 00010100
          -185 49 -99 callgsubr
        </CharString>
        <CharString name="Uhornhookabove">
          65 callgsubr
          -28 61 31 -21 57 -20 193 93 callsubr
          hintmask 01001000
          -69 callgsubr
          hintmask 00010100
          -188 160 -107 callgsubr
        </CharString>
        <CharString name="Uhorntilde">
          65 callgsubr
          -28 61 -1 65 -10 65 -52 93 callsubr
          hintmask 01000100
          -69 callgsubr
          hintmask 00001001
          -115 87 -80 callsubr
        </CharString>
        <CharString name="Uhungarumlaut">
          65 callgsubr
          63 130 callsubr
          62 callsubr
          339 69 hintmask 11001100
          -103 callgsubr
          hintmask 00110000
          -324 171 -81 callgsubr
        </CharString>
        <CharString name="Umacron">
          65 callgsubr
          52 63 62 callsubr
          339 69 hintmask 11011000
          -103 callgsubr
          hintmask 00100000
          -119 114 -84 callsubr
        </CharString>
        <CharString name="Uogonek">
          -203 54 138 61 500 31 callgsubr
          0 69 270 69 hintmask 01110100
          711 -31 callsubr
          -74 callgsubr
          -338 hlineto
          -114 -97 -48 -72 -76 -94 50 112 vhcurveto
          338 54 vlineto
          -78 callsubr
          -344 hlineto
          -111 86 -84 107 -18 vhcurveto
          hintmask 11101100
          -30 -26 -25 -37 -38 -77 callsubr
          40 19 36 30 23 hvcurveto
          127 4 104 91 122 vvcurveto
          344 78 callgsubr
          hvcurveto
          endchar
        </CharString>
        <CharString name="Upsilon">
          302 0 61 509 52 hstem
          58 69 247 69 246 69 vstem
          758 492 rmoveto
          71 -73 59 -89 -108 -60 -97 -124 -19 vhcurveto
          -1 hlineto
          111 -19 -52 110 -117 hhcurveto
          -89 -73 -59 -71 -31 25 0 10 31 2 17 17 1 hvcurveto
          41 4 37 34 55 hhcurveto
          120 31 -160 -98 hvcurveto
          -251 87 callgsubr
          251 hlineto
          104 33 154 117 52 39 -31 -45 5 vhcurveto
          -16 1 2 -17 31 hhcurveto
          10 25 57 callsubr
        </CharString>
        <CharString name="Uring">
          65 callgsubr
          12 37 58 37 62 callsubr
          76 66 102 66 29 69 hintmask 11001001
          -103 callgsubr
          hintmask 00110110
          -258 109 -37 callgsubr
        </CharString>
        <CharString name="Utilde">
          65 callgsubr
          32 65 -10 65 62 callsubr
          339 69 hintmask 11001100
          -103 callgsubr
          hintmask 00010000
          -133 151 -96 callsubr
        </CharString>
        <CharString name="V">
          13 -21 558 61 hstem
          28 701 vstem
          729 -31 callsubr
          -154 hlineto
          114 callgsubr
          39 hlineto
          -195 -499 -196 499 rlineto
          39 49 callsubr
          -154 -80 callgsubr
          41 hlineto
          205 -522 rlineto
          -25 10 7 -11 38 hhcurveto
          19 hlineto
          24 18 1 34 13 hvcurveto
          205 523 rlineto
          41 -66 callgsubr
          endchar
        </CharString>
        <CharString name="W">
          535 13 -21 558 61 hstem
          24 1001 vstem
          -62 callgsubr
          endchar
        </CharString>
        <CharString name="Wacute">
          535 13 -21 558 61 63 79 callgsubr
          24 1001 hintmask 11001000
          -62 callgsubr
          hintmask 00110000
          -393 172 -107 callsubr
        </CharString>
        <CharString name="Wcircumflex">
          535 13 -21 558 61 hstemhm
          24 1001 vstemhm
          -62 callgsubr
          -371 121 -104 callsubr
          endchar
        </CharString>
        <CharString name="Wdieresis">
          535 13 -21 558 61 32 90 hstemhm
          24 1001 -643 91 106 91 hintmask 01000100
          1025 580 118 callsubr
          -135 hlineto
          95 callgsubr
          27 0 14 hvcurveto
          42 hlineto
          -152 -507 -160 534 rlineto
          34 -10 -22 0 -22 hhcurveto
          -27 -17 0 -34 -10 hvcurveto
          -161 -534 -152 507 rlineto
          42 hlineto
          15 26 0 30 31 2 callgsubr
          hvcurveto
          -135 hlineto
          hintmask 11010000
          -84 callgsubr
          34 hlineto
          161 -536 rlineto
          -22 11 22 0 17 hhcurveto
          28 15 1 36 11 hvcurveto
          160 533 161 -532 rlineto
          -31 9 8 -7 37 hhcurveto
          22 22 0 34 10 hvcurveto
          157 524 rlineto
          34 hlineto
          101 callsubr
          hintmask 00101100
          -552 46 callsubr
        </CharString>
        <CharString name="Wgrave">
          535 13 -21 558 61 63 79 callgsubr
          24 1001 hintmask 11001000
          -62 callgsubr
          hintmask 00110000
          -394 113 -99 callgsubr
        </CharString>
        <CharString name="X">
          -19 callsubr
        </CharString>
        <CharString name="Xi">
          185 0 59 47 -20 176 -21 47 59 47 -20 157 -21 42 59 hstemhm
          44 69 -63 69 27 69 269 69 27 69 -63 69 hintmask 0000011010010000
          649 551 rmoveto
          19 vlineto
          -51 callsubr
          -518 hlineto
          -33 -8 -8 -33 hvcurveto
          -19 vlineto
          -19 0 -22 34 35 0 20 22 vhcurveto
          461 hlineto
          -22 0 -20 35 34 0 22 19 vhcurveto
          6 -510 rmoveto
          hintmask 1111100101101000
          24 vlineto
          19 0 22 -34 -35 0 -19 -28 vhcurveto
          -473 hlineto
          28 0 19 -35 -34 0 -22 -19 vhcurveto
          -24 vlineto
          -33 8 -8 33 vhcurveto
          530 -31 callgsubr
          -102 241 rmoveto
          71 vlineto
          20 0 21 -34 -35 0 -19 -28 vhcurveto
          -269 hlineto
          28 0 19 -35 -34 0 -21 -20 vhcurveto
          -71 vlineto
          -20 0 -21 34 35 0 19 28 vhcurveto
          269 hlineto
          -28 0 -19 35 34 0 21 20 vhcurveto
          endchar
        </CharString>
        <CharString name="Y">
          31 callsubr
          hstem
          344 69 vstem
          -89 callsubr
          endchar
        </CharString>
        <CharString name="Yacute">
          31 callsubr
          63 79 callgsubr
          344 69 hintmask 11001000
          -89 callsubr
          hintmask 00110000
          -241 172 -107 callsubr
        </CharString>
        <CharString name="Ycircumflex">
          31 callsubr
          hstemhm
          344 69 vstemhm
          -89 callsubr
          -219 121 -104 callsubr
          endchar
        </CharString>
        <CharString name="Ydieresis">
          98 callsubr
          90 hstemhm
          236 91 17 69 20 91 hintmask 11001000
          -89 callsubr
          hintmask 00110100
          -400 46 callsubr
        </CharString>
        <CharString name="Ydotbelow">
          41 callgsubr
          328 101 -85 69 hintmask 01101000
          -89 callsubr
          hintmask 10010000
          -298 -730 -100 callsubr
        </CharString>
        <CharString name="Ygrave">
          31 callsubr
          63 79 callgsubr
          344 69 hintmask 11001000
          -89 callsubr
          hintmask 00110000
          -242 113 -99 callgsubr
        </CharString>
        <CharString name="Yhookabove">
          31 callsubr
          64 101 callgsubr
          344 69 hintmask 11001000
          -89 callsubr
          hintmask 00111000
          -245 224 -107 callgsubr
        </CharString>
        <CharString name="Ytilde">
          98 callsubr
          148 callsubr
          344 69 hintmask 11001000
          -89 callsubr
          hintmask 00010000
          -172 151 -96 callsubr
        </CharString>
        <CharString name="Z">
          -36 callgsubr
          endchar
        </CharString>
        <CharString name="Zacute">
          94 callgsubr
          63 -21 134 -20 hstemhm
          73 69 344 59 callsubr
          hintmask 11001010
          -38 callgsubr
          hintmask 11000100
          3 callgsubr
          hintmask 00000010
          33 7 9 32 hvcurveto
          hintmask 00110000
          -162 711 -107 callsubr
        </CharString>
        <CharString name="Zcaron">
          -36 callgsubr
          hintmask 00000000
          -141 647 -75 callgsubr
        </CharString>
        <CharString name="Zdotaccent">
          94 callgsubr
          43 100 hstemhm
          73 69 128 101 115 59 callsubr
          hintmask 11010010
          -38 callgsubr
          hintmask 11000100
          3 callgsubr
          hintmask 00000010
          33 7 9 32 hvcurveto
          hintmask 00101000
          -218 663 -100 callsubr
        </CharString>
        <CharString name="Zdotbelow">
          127 41 callgsubr
          73 69 128 101 115 59 callsubr
          hintmask 01110010
          -38 callgsubr
          hintmask 01100100
          3 callgsubr
          hintmask 00000010
          33 7 9 32 hvcurveto
          hintmask 10001000
          -218 -191 -100 callsubr
        </CharString>
        <CharString name="Zeta">
          -36 callgsubr
          endchar
        </CharString>
        <CharString name="a">
          -22 callgsubr
          30 callgsubr
          hintmask 01011100
          -103 callsubr
          hintmask 10000000
          -34 callsubr
          hintmask 01000000
          -67 callsubr
          hintmask 10101100
          -61 callgsubr
          endchar
        </CharString>
        <CharString name="aacute">
          -22 callgsubr
          58 -21 134 -72 callsubr
          hintmask 00001101
          28 358 -107 callsubr
        </CharString>
        <CharString name="abreve">
          97 callsubr
          49 -60 callsubr
          37 callgsubr
          endchar
        </CharString>
        <CharString name="abreveacute">
          97 callsubr
          69 64 -59 64 65 -20 30 callgsubr
          hintmask 0101000011000000
          -103 callsubr
          hintmask 1000000000000000
          -34 callsubr
          hintmask 0100000000000000
          -67 callsubr
          hintmask 1010000011000000
          -61 callgsubr
          hintmask 0000101100000000
          37 callgsubr
          -70 150 -37 callsubr
          vhcurveto
          0 -8 0 -11 -5 4 callsubr
          -60 rlineto
          -14 -6 -11 -5 -18 vvcurveto
          hintmask 0000010000000000
          -8 7 -32 26 vhcurveto
          hintmask 0000001000000000
          7 5 2 3 6 hvcurveto
          hintmask 0000010001000000
          133 59 rlineto
          24 11 4 13 11 vvcurveto
          endchar
        </CharString>
        <CharString name="abrevedotbelow">
          -5 -200 100 94 -5 callgsubr
          48 131 callgsubr
          43 69 92 101 29 69 hintmask 0010100101000000
          -103 callsubr
          hintmask 0100000000000000
          -34 callsubr
          hintmask 0010000000000000
          -67 callsubr
          hintmask 0101011101000000
          -61 callgsubr
          37 callgsubr
          hintmask 1000000010000000
          -127 -720 -100 callsubr
        </CharString>
        <CharString name="abrevegrave">
          97 callsubr
          49 -20 40 64 -59 64 30 callgsubr
          hintmask 0101000011000000
          -103 callsubr
          hintmask 1000000000000000
          -34 callsubr
          hintmask 0100000000000000
          -67 callsubr
          hintmask 1010000011000000
          -61 callgsubr
          hintmask 0000111000000000
          37 callgsubr
          -70 91 rmoveto
          -8 -7 -32 -26 vhcurveto
          hintmask 0000000100000000
          -7 -5 2 3 -6 hvcurveto
          hintmask 0000001000000000
          -133 59 rlineto
          -24 11 -4 13 11 vvcurveto
          20 15 15 20 vhcurveto
          0 8 0 11 -5 vhcurveto
          hintmask 0000000100000000
          133 -60 rlineto
          14 -6 11 -5 -18 vvcurveto
          endchar
        </CharString>
        <CharString name="abrevehookabove">
          97 callsubr
          279 -60 callsubr
          37 callgsubr
          -73 181 -107 callgsubr
        </CharString>
        <CharString name="abrevetilde">
          97 callsubr
          89 65 -10 65 30 callgsubr
          hintmask 0101000110000000
          -103 callsubr
          hintmask 1000000000000000
          -34 callsubr
          hintmask 0100000000000000
          -67 callsubr
          hintmask 1010000110000000
          -61 callgsubr
          hintmask 0000101000000000
          98 352 -2 callgsubr
          hintmask 0000010000000000
          -28 -30 -26 -16 -14 hhcurveto
          -10 -8 9 12 -13 hvcurveto
          hintmask 0000001000000000
          -88 callgsubr
          hintmask 0000010100000000
          -16 15 -16 16 11 6 5 6 7 vhcurveto
          hintmask 0000001000000000
          28 30 26 16 14 hhcurveto
          10 8 -9 -12 13 hvcurveto
          hintmask 0000010000000000
          -91 callsubr
        </CharString>
        <CharString name="acaron">
          -22 callgsubr
          30 callgsubr
          hintmask 01011100
          -103 callsubr
          hintmask 10000000
          -34 callsubr
          hintmask 01000000
          -67 callsubr
          hintmask 10101100
          -61 callgsubr
          hintmask 00000000
          56 338 -64 callgsubr
        </CharString>
        <CharString name="acircumflex">
          -22 callgsubr
          30 callgsubr
          hintmask 01011100
          -103 callsubr
          hintmask 10000000
          -34 callsubr
          hintmask 01000000
          -67 callsubr
          hintmask 10101100
          -61 callgsubr
          hintmask 00000000
          56 314 -75 callsubr
          endchar
        </CharString>
        <CharString name="acircumflexacute">
          -22 callgsubr
          292 -20 30 callgsubr
          hintmask 01010110
          -103 callsubr
          hintmask 10000000
          -34 callsubr
          hintmask 01000000
          -67 callsubr
          hintmask 10100110
          -61 callgsubr
          hintmask 00001010
          50 316 -13 callsubr
          163 -107 callsubr
        </CharString>
        <CharString name="acircumflexdotbelow">
          -5 -200 100 94 -5 callgsubr
          hstemhm
          43 69 92 101 29 69 hintmask 00101101
          -103 callsubr
          hintmask 01000000
          -34 callsubr
          hintmask 00100000
          -67 callsubr
          hintmask 01010101
          -61 callgsubr
          56 314 -75 callsubr
          hintmask 10000010
          -85 -682 -100 callsubr
        </CharString>
        <CharString name="acircumflexgrave">
          -22 callgsubr
          30 callgsubr
          hintmask 01011100
          -103 callsubr
          hintmask 10000000
          -34 callsubr
          hintmask 01000000
          -67 callsubr
          hintmask 10101100
          -61 callgsubr
          hintmask 00000000
          50 316 -79 callsubr
        </CharString>
        <CharString name="acircumflexhookabove">
          -22 callgsubr
          368 -20 30 callgsubr
          hintmask 01010110
          -103 callsubr
          hintmask 10000000
          -34 callsubr
          hintmask 01000000
          -67 callsubr
          hintmask 10100110
          -61 callgsubr
          hintmask 00001000
          50 316 -104 callsubr
          77 194 -107 callgsubr
        </CharString>
        <CharString name="acircumflextilde">
          -22 callgsubr
          178 65 -10 65 30 callgsubr
          hintmask 01010011
          -103 callsubr
          hintmask 10000000
          -34 callsubr
          hintmask 01000000
          -67 callsubr
          hintmask 10100011
          -61 callgsubr
          hintmask 00000100
          50 316 -16 callsubr
          hintmask 00001000
          -28 -30 -26 -16 -14 hhcurveto
          -10 -8 9 12 -13 hvcurveto
          hintmask 00000100
          13 -13 -20 21 -34 hhcurveto
          -27 -28 -16 -17 -23 hvcurveto
          -20 -15 -29 -22 -18 vvcurveto
          hintmask 00001010
          -44 callgsubr
        </CharString>
        <CharString name="acute">
          10 498 65 callsubr
          hstem
          369 576 -107 callsubr
        </CharString>
        <CharString name="acute.cap">
          10 493 65 callsubr
          hstem
          369 571 -107 callsubr
        </CharString>
        <CharString name="acute.dup">
          10 498 65 callsubr
          hstem
          369 576 -107 callsubr
        </CharString>
        <CharString name="acute.ts1">
          10 499 130 callsubr
          21 -20 hstemhm
          hintmask 00100000
          408 576 rmoveto
          18 -15 18 -20 vhcurveto
          hintmask 11000000
          -6 -1 -13 -2 -13 -8 -12 -5 rlinecurve
          -42 -18 -93 -26 -33 vvcurveto
          -22 15 -19 22 vhcurveto
          16 2 17 10 15 7 80 35 rcurveline
          21 10 28 6 28 vvcurveto
          endchar
        </CharString>
        <CharString name="adblgrave">
          -22 callgsubr
          59 -21 133 -60 callsubr
          85 298 -101 callgsubr
        </CharString>
        <CharString name="adieresis">
          -22 callgsubr
          59 90 hstemhm
          43 69 15 91 76 91 -51 69 hintmask 0101010010000000
          -103 callsubr
          hintmask 1000000000000000
          -34 callsubr
          hintmask 0100000000000000
          -67 callsubr
          hintmask 1010010010000000
          -61 callgsubr
          hintmask 0000101100000000
          -116 326 -39 callsubr
        </CharString>
        <CharString name="adotbelow">
          -5 -200 100 94 -5 callgsubr
          hstemhm
          43 69 92 101 29 69 hintmask 00101101
          -103 callsubr
          hintmask 01000000
          -34 callsubr
          hintmask 00100000
          -67 callsubr
          hintmask 01010101
          -61 callgsubr
          hintmask 10000010
          -29 -368 -100 callsubr
        </CharString>
        <CharString name="ae">
          -36 callsubr
        </CharString>
        <CharString name="ae.dup">
          -36 callsubr
        </CharString>
        <CharString name="aeacute">
          -6 61 0 60 0 60 14 60 -58 84 callsubr
          58 79 callgsubr
          53 69 -69 70 221 72 -71 70 243 70 hintmask 0100110001011000
          728 109 rmoveto
          28 -29 0 -6 -15 -11 -2 -20 -7 vhcurveto
          -60 -24 -52 0 -12 hhcurveto
          -72 -72 53 83 -13 hvcurveto
          273 hlineto
          22 18 0 38 120 -63 91 -114 -38 -64 -11 -69 -57 hvcurveto
          80 -50 -94 0 -28 hhcurveto
          -42 -100 0 -73 -30 21 -16 24 16 27 10 36 1 hvcurveto
          8 1 1 15 2 vhcurveto
          1 15 9 0 14 hhcurveto
          hintmask 1001000010101000
          78 45 -35 -65 hvcurveto
          -30 vlineto
          -63 -2 -228 -7 -122 vvcurveto
          -64 61 -60 99 49 101 11 68 33 vhcurveto
          -66 57 70 -13 43 hhcurveto
          116 46 89 26 hvcurveto
          -70 142 rmoveto
          hintmask 0100110010101000
          -242 hlineto
          78 15 60 50 60 hhcurveto
          72 30 -62 -66 5 hvcurveto
          -309 -124 rmoveto
          -15 0 -25 -43 -17 vhcurveto
          -14 -34 -39 -1 -11 hhcurveto
          -59 -41 28 36 hvcurveto
          hintmask 0011000000010000
          35 74 17 15 4 vhcurveto
          47 11 39 1 48 2 rrcurveto
          3 -45 1 -10 -7 vvcurveto
          hintmask 0000001100000000
          137 449 -107 callsubr
        </CharString>
        <CharString name="agrave">
          -22 callgsubr
          58 -21 134 -60 callsubr
          27 299 -99 callgsubr
        </CharString>
        <CharString name="ahookabove">
          -22 callgsubr
          10 -21 230 -60 callsubr
          24 361 -107 callgsubr
        </CharString>
        <CharString name="amacron">
          -22 callgsubr
          73 63 30 callgsubr
          hintmask 01010110
          -103 callsubr
          hintmask 10000000
          -34 callsubr
          hintmask 01000000
          -67 callsubr
          hintmask 10100110
          -61 callgsubr
          hintmask 00001000
          111 326 -84 callsubr
        </CharString>
        <CharString name="ampersand">
          302 -11 61 56 61 203 61 130 61 hstemhm
          44 69 63 56 147 56 220 69 -22 56 hintmask 1011111100000000
          764 36 callgsubr
          -212 -105 callsubr
          76 hlineto
          -70 -116 -35 -57 -64 -62 -8 7 -80 70 -47 87 rrcurveto
          100 72 51 53 61 vvcurveto
          63 -42 74 -79 -61 -77 -47 -96 -49 12 -56 22 -52 vhcurveto
          -107 -75 rlineto
          -29 -21 -30 -38 -50 vvcurveto
          -88 87 -61 103 69 64 26 43 54 vhcurveto
          -55 80 59 -14 50 hhcurveto
          hintmask 1100000010000000
          94 54 62 55 32 -28 0 0 -24 -3 -22 -11 -1 hvcurveto
          -38 -5 -46 -17 -41 hhcurveto
          -39 -52 13 36 -53 hvcurveto
          7 7 22 23 28 38 17 22 17 23 15 24 rrcurveto
          hintmask 1011111100000000
          83 134 rlineto
          69 -66 callgsubr
          -385 85 rmoveto
          -39 -77 -59 -45 -31 vhcurveto
          -25 61 0 58 4 vvcurveto
          63 55 19 27 45 20 -45 -31 vhcurveto
          -4 -387 rmoveto
          -13 -19 -50 -35 -71 hhcurveto
          -68 -54 39 51 46 37 23 88 57 hvcurveto
          21 -39 27 -33 19 -23 28 -33 36 -35 6 -5 rrcurveto
          endchar
        </CharString>
        <CharString name="anglearc">
          302 -23 -21 700 -20 hstem
          565 70 vstem
          758 35 rmoveto
          14 -9 13 -12 5 4 callsubr
          57 rlineto
          20 58 11 62 62 vvcurveto
          62 -11 62 -20 58 vhcurveto
          133 57 rlineto
          12 5 9 13 14 vvcurveto
          19 -16 16 -19 -5 -5 -1 -2 -4 4 callsubr
          -57 -16 32 -19 30 -23 29 rlinecurve
          8 -6 -10 5 -11 hhcurveto
          -20 -15 -16 -19 -8 2 -8 5 -6 hvcurveto
          19 -23 16 -25 14 -27 -433 -186 rcurveline
          -12 -5 -9 -13 -14 vvcurveto
          -14 9 -13 12 -5 vhcurveto
          433 -186 -14 -27 -16 -25 -19 -23 rlinecurve
          -5 -6 -2 -8 -8 vvcurveto
          -19 15 -16 20 11 10 5 8 6 vhcurveto
          23 29 19 30 16 32 133 -57 rcurveline
          -2 4 5 -1 5 hhcurveto
          19 16 16 19 hvcurveto
          -193 271 rmoveto
          -53 -9 -52 -17 -49 vhcurveto
          -357 154 357 154 rlineto
          17 -49 9 -52 -53 vvcurveto
          endchar
        </CharString>
        <CharString name="angleleft">
          -107 -62 -21 777 -20 21 -20 hstemhm
          hintmask 00100000
          349 -49 rmoveto
          17 -14 21 -7 17 vhcurveto
          -129 279 rlineto
          -3 6 -6 8 7 vvcurveto
          4 2 3 2 3 vhcurveto
          7 16 9 21 10 20 10 21 rlinecurve
          111 240 3 7 4 8 1 8 rlinecurve
          3 vlineto
          19 -16 16 -19 vhcurveto
          hintmask 11000000
          -6 -1 -20 -3 -7 -18 -7 -16 rlinecurve
          -51 -107 -46 -109 -53 -106 rrcurveto
          -4 -10 -5 -9 -11 vvcurveto
          -18 17 -26 10 -21 vhcurveto
          133 -287 rlineto
          -18 7 10 -18 22 hhcurveto
          19 16 16 18 hvcurveto
          endchar
        </CharString>
        <CharString name="angleright">
          -107 -62 -21 778 -20 hstem
          292 307 rmoveto
          9 -5 9 -4 8 vhcurveto
          -88 191 -63 135 rlineto
          17 -6 -11 19 -21 hhcurveto
          0 -5 0 -2 -1 vhcurveto
          -17 -3 -12 -15 -17 vvcurveto
          -17 12 -18 8 -15 vhcurveto
          130 -282 rlineto
          3 -6 6 -8 -7 vvcurveto
          -8 -7 -9 -3 -7 vhcurveto
          -44 -99 -51 -98 -42 -99 -5 -10 -6 -10 -1 -11 rrcurveto
          -3 vlineto
          -19 16 -16 20 vhcurveto
          22 1 8 18 8 17 151 324 rcurveline
          4 10 5 9 11 vvcurveto
          endchar
        </CharString>
        <CharString name="aogonek">
          -5 -203 54 143 61 -55 61 318 61 30 callgsubr
          hintmask 00111100
          -103 callsubr
          hintmask 11000000
          -34 callsubr
          7 -11 11 -6 12 -5 rrcurveto
          -39 -25 -39 -46 -47 -77 callsubr
          hvcurveto
          hintmask 00100000
          43 41 36 53 31 vhcurveto
          27 22 0 31 hvcurveto
          -165 103 rmoveto
          -22 0 -23 -39 -18 vhcurveto
          hintmask 01001100
          -61 callgsubr
          endchar
        </CharString>
        <CharString name="aogonekacute">
          -5 -203 54 143 61 -55 61 318 61 58 -21 134 -20 30 callgsubr
          hintmask 00110011
          -103 callsubr
          hintmask 11000000
          -34 callsubr
          7 -11 11 -6 12 -5 rrcurveto
          -39 -25 -39 -46 -47 -77 callsubr
          hvcurveto
          hintmask 00100000
          43 41 36 53 31 vhcurveto
          27 22 0 31 hvcurveto
          -165 103 rmoveto
          -22 0 -23 -39 -18 vhcurveto
          hintmask 01000011
          -61 callgsubr
          hintmask 00001101
          28 358 -107 callsubr
        </CharString>
        <CharString name="aring">
          -22 callgsubr
          52 37 58 37 hstemhm
          43 69 26 66 102 66 -38 69 hintmask 0101001001000000
          -103 callsubr
          hintmask 1000000000000000
          -34 callsubr
          hintmask 0100000000000000
          -67 callsubr
          hintmask 1010001001000000
          -61 callgsubr
          hintmask 0000110110000000
          -28 340 -37 callgsubr
        </CharString>
        <CharString name="aringacute">
          -22 callgsubr
          52 37 58 37 154 -20 hstemhm
          43 69 26 66 102 66 -38 69 hintmask 0101000100100000
          -103 callsubr
          hintmask 1000000000000000
          -34 callsubr
          hintmask 0100000000000000
          -67 callsubr
          hintmask 1010000100100000
          -61 callgsubr
          hintmask 0000111011000000
          -28 340 -63 callgsubr
          -11 185 -107 callsubr
        </CharString>
        <CharString name="asciicircum">
          10 437 538 rmoveto
          -163 79 -7 3 -9 0 -7 -3 rlinecurve
          -163 -79 -35 -17 24 -52 34 15 rlinecurve
          151 65 151 -65 35 -15 24 52 -35 17 rlinecurve
          endchar
        </CharString>
        <CharString name="asciitilde">
          10 438 334 rmoveto
          16 -15 16 -16 -11 -6 -5 -6 -7 vhcurveto
          -28 -30 -26 -16 -14 hhcurveto
          -10 -8 9 12 -13 hvcurveto
          -88 callgsubr
          -16 15 -16 16 11 6 5 6 7 vhcurveto
          28 30 26 16 14 hhcurveto
          10 8 -9 -12 13 hvcurveto
          -91 callsubr
        </CharString>
        <CharString name="asciitilde.low">
          10 438 88 rmoveto
          16 -15 16 -16 -11 -6 -5 -6 -7 vhcurveto
          -28 -30 -26 -16 -14 hhcurveto
          -10 -8 9 12 -13 hvcurveto
          -88 callgsubr
          -16 15 -16 16 11 6 5 6 7 vhcurveto
          28 30 26 16 14 hhcurveto
          10 8 -9 -12 13 hvcurveto
          -91 callsubr
        </CharString>
        <CharString name="asterisk">
          10 111 -21 431 -20 hstem
          229 66 vstem
          456 214 rmoveto
          17 -12 9 -2 1 vhcurveto
          -25 17 -68 33 -26 14 108 59 rcurveline
          12 7 13 7 19 vvcurveto
          4 0 29 -40 vhcurveto
          -124 -72 rlineto
          2 26 1 66 29 vvcurveto
          9 0 33 -33 -33 0 -33 -9 -29 1 -66 2 -26 vhcurveto
          -108 63 rlineto
          9 -14 -2 0 -7 hhcurveto
          -20 -13 -18 -15 -19 11 -6 13 -7 hvcurveto
          109 -59 -108 -59 rlineto
          -12 -7 -13 -6 -20 vvcurveto
          -4 0 -29 40 vhcurveto
          124 72 rlineto
          -2 -26 -1 -66 -29 vvcurveto
          -9 0 -33 33 33 0 33 9 29 -1 66 -2 26 vhcurveto
          61 -34 -37 20 70 -42 rrcurveto
          -16 27 2 0 8 hhcurveto
          20 13 18 15 hvcurveto
          endchar
        </CharString>
        <CharString name="asterisk.math">
          10 113 -21 430 -20 hstemhm
          229 64 -62 64 hintmask 00100000
          455 217 rmoveto
          17 -13 11 -16 7 vhcurveto
          -27 15 -24 13 -24 16 -26 10 rlinecurve
          2 vlineto
          26 10 24 16 24 13 27 15 rcurveline
          16 7 13 11 17 vvcurveto
          16 -13 19 -20 -14 -12 -10 -7 -12 vhcurveto
          -30 -19 -31 -17 -30 -19 rrcurveto
          hintmask 01010000
          36 2 37 36 vvcurveto
          15 vlineto
          17 -8 21 -25 vhcurveto
          hintmask 00100000
          -19 -14 -13 -22 hvcurveto
          -10 vlineto
          -13 0 -13 1 -13 vhcurveto
          -33 vlineto
          hintmask 00010000
          -15 1 -15 -15 vvcurveto
          -30 19 -31 17 -30 19 rrcurveto
          7 -12 -12 10 -14 hhcurveto
          -20 -13 -19 -16 -17 13 -11 16 -7 hvcurveto
          27 -15 24 -13 24 -16 26 -10 rlinecurve
          -2 vlineto
          -26 -10 -24 -16 -24 -13 -27 -15 rcurveline
          -16 -7 -13 -11 -17 vvcurveto
          -16 13 -19 20 14 12 10 7 12 vhcurveto
          30 19 31 17 30 19 rrcurveto
          -15 -1 -15 -15 vvcurveto
          -33 vlineto
          hintmask 10100000
          -1 -13 0 -13 -13 vvcurveto
          -10 vlineto
          -22 14 -13 19 vhcurveto
          hintmask 00010000
          25 8 21 17 hvcurveto
          15 vlineto
          hintmask 00100000
          36 -2 37 36 vvcurveto
          30 -19 31 -17 30 -19 rrcurveto
          -7 12 12 -10 14 hhcurveto
          20 13 19 16 hvcurveto
          endchar
        </CharString>
        <CharString name="at">
          185 -6 61 51 61 277 61 -33 61 23 61 hstemhm
          58 56 150 56 237 56 -28 56 hintmask 1001110100000000
          641 80 rmoveto
          28 -28 0 -10 -15 -2 0 -10 -16 vhcurveto
          -36 -64 -60 -7 -39 hhcurveto
          -165 -128 117 133 139 132 112 160 34 34 -6 -17 29 hvcurveto
          22 -12 17 -17 15 -32 rrcurveto
          hintmask 1110111010000000
          24 -35 -37 9 -32 hhcurveto
          -106 -83 -91 -108 -114 87 -86 101 82 107 62 148 114 -22 187 -213 -192 -156 -141 -170 -170 153 -142 197 hvcurveto
          hintmask 0000000100000000
          83 71 25 29 51 hvcurveto
          hintmask 0110001010000000
          17 9 11 6 17 vvcurveto
          -56 226 rmoveto
          -79 -62 -60 -70 -76 -57 64 74 79 62 60 70 76 57 -64 -74 vhcurveto
          endchar
        </CharString>
        <CharString name="atilde">
          -22 callgsubr
          44 65 -10 65 30 callgsubr
          hintmask 01010011
          -103 callsubr
          hintmask 10000000
          -34 callsubr
          hintmask 01000000
          -67 callsubr
          hintmask 10100011
          -61 callgsubr
          hintmask 00000100
          97 354 -27 callgsubr
          hintmask 00001010
          -44 callgsubr
        </CharString>
        <CharString name="b">
          68 -6 25 callgsubr
          187 -57 callsubr
          -509 hlineto
          -20 0 -21 35 34 0 18 35 vhcurveto
          16 callgsubr
          84 callgsubr
        </CharString>
        <CharString name="backslash">
          10 466 -48 rmoveto
          8 -4 10 -3 6 vhcurveto
          -331 691 rlineto
          10 -5 -8 17 -22 hhcurveto
          -20 -15 -17 -18 -8 4 -10 3 -6 hvcurveto
          331 -691 rlineto
          -10 5 8 -17 22 hhcurveto
          20 15 17 18 hvcurveto
          endchar
        </CharString>
        <CharString name="baht">
          214 0 45 callgsubr
          117 62 184 69 -40 69 hintmask 10111100
          670 167 rmoveto
          68 -64 65 -114 20 vhcurveto
          69 17 80 46 73 vvcurveto
          81 -99 74 -133 vhcurveto
          -21 62 hlineto
          17 -14 14 -17 -18 -13 -14 -17 vhcurveto
          -62 -240 vlineto
          -97 callsubr
          240 -62 hlineto
          -17 13 -14 18 17 14 14 17 vhcurveto
          62 49 vlineto
          hintmask 01101010
          136 97 81 86 hvcurveto
          -98 288 rmoveto
          -54 -73 -49 -111 -4 vhcurveto
          202 19 vlineto
          hintmask 11111100
          96 69 -45 -50 hvcurveto
          -246 -107 rmoveto
          -117 202 117 hlineto
          275 -381 rmoveto
          -62 -89 -46 -103 vhcurveto
          -21 226 37 hlineto
          hintmask 11011010
          99 77 -56 -62 hvcurveto
          -275 -108 rmoveto
          -117 226 117 hlineto
          endchar
        </CharString>
        <CharString name="bar">
          10 227 70 vstem
          297 -36 rmoveto
          40 callsubr
          endchar
        </CharString>
        <CharString name="bigcircle">
          96 0 57 497 57 hstem
          0 57 497 57 vstem
          -48 callgsubr
          endchar
        </CharString>
        <CharString name="blanksymbol">
          68 -6 25 callgsubr
          75 vlineto
          101 88 rlineto
          7 5 4 9 9 vvcurveto
          17 -14 14 -17 -8 -7 -3 -4 -6 vhcurveto
          -60 -53 rlineto
          30 -57 callsubr
          -70 hlineto
          -83 -72 121 callsubr
          4 5 vhcurveto
          43 37 rlineto
          -357 vlineto
          -20 0 -21 35 34 0 18 35 vhcurveto
          16 callgsubr
          84 callgsubr
        </CharString>
        <CharString name="braceleft">
          107 callgsubr
          -52 rmoveto
          29 -25 1 -9 vhcurveto
          -136 3 0 36 31 vvcurveto
          161 vlineto
          25 -3 41 -55 30 vhcurveto
          42 25 15 33 1 25 rrcurveto
          132 vlineto
          25 0 40 3 8 vhcurveto
          38 18 88 2 35 hhcurveto
          6 20 6 24 -47 callsubr
          -18 -70 -109 -13 -88 -17 hvcurveto
          -1 -6 0 -50 -28 vvcurveto
          -90 vlineto
          -36 0 -15 -36 -16 vhcurveto
          -15 -36 -50 -1 -23 hhcurveto
          -6 -20 -6 -24 -30 24 -1 10 hvcurveto
          26 -1 109 -3 2 -54 rrcurveto
          -166 vlineto
          -30 0 -45 52 -29 vhcurveto
          -23 42 55 -7 48 hhcurveto
          18 24 57 callsubr
        </CharString>
        <CharString name="braceright">
          107 callgsubr
          305 rmoveto
          30 -24 1 -10 vhcurveto
          -24 1 -110 2 -2 56 rrcurveto
          167 vlineto
          28 0 45 -52 29 vhcurveto
          26 -48 -63 4 -35 hhcurveto
          -17 -25 0 -31 -26 19 -4 14 hvcurveto
          138 -2 0 -36 -33 vvcurveto
          -161 vlineto
          -40 15 -32 43 -23 vhcurveto
          -56 -32 -2 -47 -4 vvcurveto
          -178 vlineto
          -29 0 -36 -145 -2 vhcurveto
          -6 -20 -6 -24 -31 25 0 17 87 95 20 81 15 hvcurveto
          1 6 0 50 28 vvcurveto
          90 vlineto
          36 0 15 36 16 vhcurveto
          15 36 48 1 24 hhcurveto
          6 20 6 24 hvcurveto
          endchar
        </CharString>
        <CharString name="bracketleft">
          -218 -83 61 655 61 hstem
          110 69 vstem
          273 -53 -87 callgsubr
          -54 655 44 callsubr
          -83 hlineto
          -33 -7 -9 -32 hvcurveto
          -695 vlineto
          -31 6 -10 34 -8 callsubr
          endchar
        </CharString>
        <CharString name="bracketright">
          -218 -83 61 655 61 hstem
          117 69 vstem
          186 -42 rmoveto
          695 vlineto
          -57 callgsubr
          -655 -54 -80 callgsubr
          83 134 callsubr
        </CharString>
        <CharString name="breve">
          10 488 64 49 -20 hstem
          439 570 -91 callgsubr
        </CharString>
        <CharString name="breve.cap">
          10 472 64 49 -20 hstem
          439 554 -91 callgsubr
        </CharString>
        <CharString name="breve.ts1">
          127 497 69 46 -20 21 -20 hstemhm
          hintmask 10100000
          555 582 rmoveto
          17 -12 14 -19 -11 -9 -5 -9 -6 vhcurveto
          -7 -10 6 -18 -61 -5 rrcurveto
          -4 -43 -43 0 -43 hhcurveto
          -36 hlineto
          -47 -53 2 17 -20 hvcurveto
          hintmask 11000000
          9 -11 3 22 -26 hhcurveto
          -3 -2 0 -1 -3 hvcurveto
          -17 -3 -6 -13 -14 vvcurveto
          -75 119 -9 69 vhcurveto
          22 17 1 7 hhcurveto
          52 hlineto
          78 105 7 77 hvcurveto
          endchar
        </CharString>
        <CharString name="brokenbar">
          10 227 70 vstem
          297 407 rmoveto
          240 vlineto
          74 callsubr
          -240 vlineto
          -18 16 -13 19 19 16 13 18 vhcurveto
          -443 vmoveto
          240 vlineto
          18 -16 13 -19 -19 -16 -13 -18 vhcurveto
          -240 vlineto
          -12 0 -35 35 35 0 35 12 vhcurveto
          endchar
        </CharString>
        <CharString name="bullet">
          302 96 276 hstem
          270 276 92 callgsubr
          endchar
        </CharString>
        <CharString name="c">
          -48 29 callsubr
          hstem
          44 69 228 84 vstem
          -45 callgsubr
          endchar
        </CharString>
        <CharString name="cacute">
          -48 29 callsubr
          58 79 callgsubr
          44 69 228 84 hintmask 11001100
          -45 callgsubr
          hintmask 00110000
          -73 467 -107 callsubr
        </CharString>
        <CharString name="caron">
          10 397 556 -64 callgsubr
        </CharString>
        <CharString name="caron.cap">
          10 390 507 -75 callgsubr
        </CharString>
        <CharString name="caron.ts1">
          127 498 -21 141 -20 hstem
          540 576 rmoveto
          18 -10 24 -22 -8 -7 -3 -3 -7 vhcurveto
          -23 -9 -42 -17 -43 -16 -42 -19 rlinecurve
          -5 -1 -5 -3 -5 -1 rrcurveto
          -10 -20 10 6 -12 hvcurveto
          -41 17 -44 14 -40 20 rrcurveto
          3 -6 -6 2 -7 hhcurveto
          -3 hlineto
          -19 -1 -12 -22 -18 vvcurveto
          -24 28 -5 32 -13 vhcurveto
          137 -52 rlineto
          -2 7 8 -4 8 hhcurveto
          8 8 4 3 8 hvcurveto
          134 51 rlineto
          26 10 35 5 26 vvcurveto
          endchar
        </CharString>
        <CharString name="ccaron">
          -48 106 callsubr
          44 69 228 84 vstemhm
          -45 callgsubr
          -45 447 -64 callgsubr
        </CharString>
        <CharString name="ccedilla">
          -48 106 callsubr
          44 69 138 69 18 69 -66 84 hintmask 11110100
          437 109 rmoveto
          28 -29 0 -6 -16 -10 -2 -20 -7 vhcurveto
          -13 -6 -19 -47 -74 hhcurveto
          -85 -72 70 91 48 28 115 135 21 39 0 -9 hvcurveto
          -35 1 19 -14 24 hhcurveto
          24 21 17 29 73 -104 0 -45 -172 -60 -136 -88 -116 88 -99 119 -7 hvcurveto
          -21 vlineto
          -17 0 -20 30 -2 vhcurveto
          hintmask 00011000
          68 callsubr
          10 vlineto
          93 22 24 73 14 vvcurveto
          endchar
        </CharString>
        <CharString name="ccircumflex">
          -48 106 callsubr
          44 69 228 84 vstemhm
          -45 callgsubr
          -45 423 -75 callsubr
          endchar
        </CharString>
        <CharString name="cdotaccent">
          -48 29 callsubr
          54 100 hstemhm
          44 69 93 101 34 84 hintmask 11010100
          -45 callgsubr
          hintmask 00101000
          -130 435 -100 callsubr
        </CharString>
        <CharString name="cedilla">
          19 callsubr
        </CharString>
        <CharString name="cedilla.dup">
          19 callsubr
        </CharString>
        <CharString name="cent">
          -48 -5 61 323 61 hstem
          44 69 113 62 53 84 vstem
          437 109 rmoveto
          28 -29 0 -6 -16 -10 -2 -20 -7 vhcurveto
          -5 -12 -17 -40 -59 -7 rrcurveto
          323 vlineto
          21 27 -1 -8 hvcurveto
          -35 1 19 -14 24 hhcurveto
          24 21 17 29 67 -88 6 -49 hvcurveto
          53 vlineto
          74 callgsubr
          -57 vlineto
          -134 -24 -48 -117 -79 vvcurveto
          -107 75 -94 107 -18 vhcurveto
          -59 vlineto
          -17 14 -14 17 17 14 14 17 vhcurveto
          57 vlineto
          119 10 30 88 16 vvcurveto
          -211 -47 rmoveto
          -65 19 -48 60 75 vvcurveto
          41 21 91 92 25 vhcurveto
          endchar
        </CharString>
        <CharString name="cent.oldstyle">
          -48 -6 61 -58 61 320 61 hstemhm
          44 69 74 69 51 62 -28 84 hintmask 10000100
          437 109 rmoveto
          28 -29 0 -6 -16 -10 -2 -20 -7 vhcurveto
          -13 -6 -19 -47 -74 hhcurveto
          hintmask 01100100
          -9 -10 1 2 -9 hvcurveto
          65 320 rlineto
          15 14 -3 -5 hvcurveto
          -35 1 19 -14 24 hhcurveto
          hintmask 01111010
          24 21 17 29 55 -58 13 -48 4 hvcurveto
          9 47 rlineto
          20 4 -14 18 -20 hhcurveto
          -15 -13 -11 -14 -2 hvcurveto
          -12 -60 rlineto
          -157 -10 -55 -129 -84 vvcurveto
          -88 50 -78 76 -35 vhcurveto
          -14 -71 rlineto
          -19 -4 15 -18 20 hhcurveto
          15 12 11 14 3 hvcurveto
          13 65 rlineto
          hintmask 10010000
          -2 11 11 -1 12 hhcurveto
          139 34 98 17 hvcurveto
          -194 268 rmoveto
          -59 -296 rlineto
          -42 29 -29 49 57 vvcurveto
          44 23 99 107 18 vhcurveto
          endchar
        </CharString>
        <CharString name="centigrade">
          477 -11 62 384 61 5 61 -1 62 -61 61 hstemhm
          291 70 hintmask 11001100
          932 170 rmoveto
          6 vlineto
          19 -2 -13 8 -21 hhcurveto
          -39 14 -24 -33 -14 hvcurveto
          -76 -24 -121 -19 -59 hhcurveto
          -132 -160 84 172 157 149 98 139 83 108 -35 -92 20 hvcurveto
          -24 6 8 -10 24 hhcurveto
          34 0 22 19 hvcurveto
          144 vlineto
          24 -11 13 -20 -19 -7 -15 -15 -7 vhcurveto
          hintmask 11010100
          -5 -11 -6 -10 -4 -11 rrcurveto
          45 -60 -78 17 -74 hhcurveto
          -172 -178 -119 -205 -183 180 -127 172 97 192 32 149 hvcurveto
          -699 326 rmoveto
          61 -48 55 -72 vhcurveto
          -7 hlineto
          -60 -7 -46 -50 -60 vvcurveto
          -61 48 -55 72 vhcurveto
          7 hlineto
          60 7 46 50 60 vvcurveto
          -71 -1 rmoveto
          -24 -22 -22 -24 -23 -19 19 22 -3 vhcurveto
          6 vlineto
          24 22 22 24 vhcurveto
          hintmask 00100000
          23 19 -19 -22 3 hvcurveto
          endchar
        </CharString>
        <CharString name="circumflex">
          10 397 532 -75 callsubr
          endchar
        </CharString>
        <CharString name="circumflex.cap">
          10 391 520 -104 callsubr
          endchar
        </CharString>
        <CharString name="circumflex.dup">
          10 397 532 -75 callsubr
          endchar
        </CharString>
        <CharString name="colon">
          -223 0 100 231 100 hstem
          96 100 vstem
          196 381 -9 callgsubr
          -331 53 callsubr
        </CharString>
        <CharString name="colonmonetary">
          561 61 hstem
          58 69 259 62 182 69 vstem
          699 168 rmoveto
          33 -24 0 -11 -10 -22 0 -29 -2 vhcurveto
          -2 -24 -3 -38 -66 -32 -30 -15 -41 -9 -40 -3 rrcurveto
          508 vlineto
          41 -4 38 -11 28 -17 60 -35 9 -40 7 -28 rrcurveto
          -23 5 19 0 9 34 callgsubr
          139 56 callsubr
          -19 -5 -10 -15 -7 vhcurveto
          -9 -15 0 -2 -9 -20 -35 27 -60 26 -77 7 rrcurveto
          53 vlineto
          74 callgsubr
          -52 vlineto
          -190 -10 -138 -143 -162 vvcurveto
          -160 135 -145 193 -11 vhcurveto
          -52 vlineto
          -17 14 -14 17 17 14 14 17 vhcurveto
          52 vlineto
          157 10 94 73 95 vvcurveto
          -313 -117 rmoveto
          -153 14 -106 114 127 vvcurveto
          127 109 114 150 13 vhcurveto
          endchar
        </CharString>
        <CharString name="comma">
          -223 -118 141 callgsubr
          146 62 vstem
          208 10 rmoveto
          64 -30 26 -32 -30 -20 -23 -27 -6 1 -40 49 -4 vhcurveto
          -2 -17 -3 -33 -39 -32 rrcurveto
          -7 -6 -8 -6 -14 79 callsubr
          22 67 60 89 vhcurveto
          endchar
        </CharString>
        <CharString name="copyleft">
          96 0 57 497 57 hstem
          0 57 497 57 vstem
          -48 callgsubr
          -85 hmoveto
          75 -67 66 -90 -42 -34 -14 -14 -18 vhcurveto
          -4 9 0 1 -4 7 rrcurveto
          6 -3 -3 5 -8 hhcurveto
          -14 0 -11 -7 hvcurveto
          -63 vlineto
          -8 0 -10 16 4 9 0 10 2 vhcurveto
          3 13 4 18 27 15 rrcurveto
          10 16 23 6 23 hhcurveto
          74 55 -54 -60 -60 -54 -54 -76 -21 -25 4 8 -17 hvcurveto
          -29 14 -2 17 -1 11 rrcurveto
          13 -1 -9 0 -5 hhcurveto
          -5 -11 0 -15 -45 49 -35 80 92 66 67 75 hvcurveto
          endchar
        </CharString>
        <CharString name="copyright">
          96 0 57 291 57 149 57 hstem
          0 57 497 57 vstem
          -48 callgsubr
          -125 -62 rmoveto
          15 -11 0 -5 -4 -10 0 -13 -1 vhcurveto
          -1 -11 -1 -17 -30 -14 rrcurveto
          -9 -17 -25 -4 -21 hhcurveto
          -76 -54 54 61 60 55 54 74 24 22 -6 -9 16 hvcurveto
          27 -16 4 -18 3 -12 rrcurveto
          -11 3 8 0 4 hhcurveto
          16 0 10 9 hvcurveto
          62 vlineto
          7 0 11 -14 -8 -2 -4 -7 -3 vhcurveto
          -5 -7 0 -1 -4 -9 rrcurveto
          15 -18 -33 13 -43 hhcurveto
          -90 -67 -66 -75 -75 66 -67 92 80 49 35 45 hvcurveto
          endchar
        </CharString>
        <CharString name="copyright.alt">
          233 -159 57 634 57 hstem
          0 57 76 49 354 49 106 57 vstem
          748 215 rmoveto
          230 -144 144 -230 -229 -145 -144 -230 -229 145 -145 229 230 144 145 229 vhcurveto
          -57 hmoveto
          -194 -122 -123 -195 -194 -123 123 194 195 123 122 194 195 122 -122 -195 vhcurveto
          -106 -97 rmoveto
          24 -17 0 -8 -7 -15 0 -21 -2 vhcurveto
          -1 -17 -2 -27 -47 -22 rrcurveto
          -13 -26 -40 -7 -34 hhcurveto
          -119 -85 85 96 95 87 84 116 37 36 -9 -15 25 hvcurveto
          43 -24 6 -29 5 -19 rrcurveto
          -16 4 13 0 6 hhcurveto
          25 0 14 14 hvcurveto
          98 vlineto
          12 0 17 -21 -14 -3 -7 -10 -5 vhcurveto
          -6 -11 0 -1 -7 -14 rrcurveto
          22 -29 -52 21 -68 hhcurveto
          -142 -105 -104 -118 -118 103 -106 145 127 77 54 72 hvcurveto
          endchar
        </CharString>
        <CharString name="currency">
          302 73 70 326 70 hstem
          175 70 327 70 vstem
          655 59 rmoveto
          25 24 -25 25 -8 8 -51 51 rcurveline
          29 39 17 48 52 vvcurveto
          52 -17 48 -29 39 vhcurveto
          51 51 8 8 25 25 -25 24 rlinecurve
          -24 25 -25 -25 -8 -8 -51 -51 rcurveline
          29 -39 -48 16 -52 hhcurveto
          -52 -47 -17 -28 -39 hvcurveto
          -52 51 -8 8 -25 25 -24 -25 rlinecurve
          -25 -24 25 -25 8 -8 51 -52 rcurveline
          -28 -38 -17 -48 -52 vvcurveto
          -52 17 -48 28 -38 vhcurveto
          -51 -52 -8 -8 -25 -25 25 -24 rlinecurve
          24 -25 25 25 8 8 52 51 rcurveline
          -28 39 47 -17 52 hhcurveto
          52 48 16 29 39 hvcurveto
          51 -51 8 -8 25 -25 24 25 rlinecurve
          -83 247 rmoveto
          -90 -73 -73 -91 -90 -73 73 90 90 73 73 90 91 73 -73 -90 vhcurveto
          endchar
        </CharString>
        <CharString name="cwm">
          -515 endchar
        </CharString>
        <CharString name="cwmascender">
          -515 endchar
        </CharString>
        <CharString name="cwmcapital">
          -515 endchar
        </CharString>
        <CharString name="d">
          68 -6 97 callgsubr
          289 69 hintmask 01111100
          -13 callgsubr
          hintmask 10000100
          24 callgsubr
          hintmask 10101100
          27 callgsubr
          endchar
        </CharString>
        <CharString name="dagger">
          -71 -195 -21 613 67 241 -20 hstem
          164 67 -43 67 -43 67 cntrmask 00011100
          387 430 102 callsubr
          20 1 28 11 65 rrcurveto
          5 37 6 37 37 vvcurveto
          8 0 33 -33 -34 0 -32 -9 -35 9 -58 4 -24 vhcurveto
          7 -46 3 -32 1 -29 59 callgsubr
          -2 -25 -3 -20 -5 -25 rrcurveto
          -14 -72 0 -8 -53 vvcurveto
          -151 11 -168 9 -95 vhcurveto
          -14 1 1 -6 11 hhcurveto
          12 0 5 13 2 hvcurveto
          6 50 3 53 2 51 rrcurveto
          4 63 5 103 96 vvcurveto
          54 0 7 -14 71 vhcurveto
          -5 23 -3 21 -2 27 103 callsubr
          endchar
        </CharString>
        <CharString name="daggerdbl">
          -71 -184 -21 194 66 389 67 194 -20 hstem
          164 67 -43 67 -43 67 cntrmask 00001110
          387 477 102 callsubr
          30 7 34 3 14 rrcurveto
          6 33 7 40 28 vvcurveto
          7 0 32 -34 -10 -23 -3 -36 -20 4 -29 7 -35 vhcurveto
          7 -41 5 -28 1 -26 59 callgsubr
          -1 -30 -7 -34 -3 -14 rrcurveto
          -6 -33 -7 -40 -28 vvcurveto
          -35 22 -4 11 30 4 25 14 20 -4 29 -7 35 vhcurveto
          -7 41 -5 28 -1 26 103 callsubr
          -455 vmoveto
          17 -12 16 -21 -20 -17 -3 -8 -31 vhcurveto
          -26 -8 -7 -2 -22 -2 2 28 4 24 7 42 rrcurveto
          11 56 0 23 5 vvcurveto
          35 -22 4 -11 -30 -4 -25 -14 -29 8 -43 6 -34 vhcurveto
          3 -11 5 -31 2 -30 -23 2 -3 1 -40 11 rrcurveto
          9 -32 -17 0 -7 hhcurveto
          -25 -9 -20 -13 -15 10 -18 24 24 24 6 4 11 hvcurveto
          39 10 7 1 17 2 -2 -28 -4 -24 -7 -42 rrcurveto
          -11 -56 0 -23 -5 vvcurveto
          -35 22 -4 11 30 4 25 14 29 -8 43 -6 34 vhcurveto
          -3 11 -5 31 -2 30 23 -2 3 -1 40 -11 rrcurveto
          -9 33 18 0 5 hhcurveto
          24 10 18 15 hvcurveto
          endchar
        </CharString>
        <CharString name="dblbracketleft">
          -92 -82 70 637 70 hstem
          110 70 60 70 vstem
          399 -47 rmoveto
          17 -4 18 -28 vhcurveto
          -57 637 57 hlineto
          28 4 18 17 16 -5 19 -25 hvcurveto
          -222 hlineto
          -26 -11 -12 -23 hvcurveto
          -704 vlineto
          -20 5 -18 32 vhcurveto
          222 hlineto
          25 5 19 16 hvcurveto
          -159 35 rmoveto
          -60 637 60 hlineto
          endchar
        </CharString>
        <CharString name="dblbracketright">
          -92 -82 70 637 70 hstem
          112 70 60 70 vstem
          312 -47 rmoveto
          704 vlineto
          20 -5 18 -32 vhcurveto
          -221 hlineto
          -25 -5 -19 -16 -17 4 -18 28 hvcurveto
          56 -637 -56 hlineto
          -28 -4 -18 -17 -16 5 -19 25 hvcurveto
          221 hlineto
          26 11 12 23 hvcurveto
          -70 35 rmoveto
          -60 637 60 hlineto
          endchar
        </CharString>
        <CharString name="dblgrave.ts1">
          10 500 99 callsubr
          236 518 rmoveto
          47 callgsubr
          175 hmoveto
          47 callgsubr
          endchar
        </CharString>
        <CharString name="dblverticalbar">
          10 193 -36 rmoveto
          40 callsubr
          210 hmoveto
          40 callsubr
          endchar
        </CharString>
        <CharString name="dcaron">
          68 -6 61 -55 119 callsubr
          16 -21 104 75 -61 61 hstemhm
          44 69 289 69 hintmask 01100111
          -13 callgsubr
          hintmask 10000001
          24 callgsubr
          hintmask 10100111
          27 callgsubr
          199 281 rmoveto
          48 -23 19 -24 -22 -15 -17 -20 vhcurveto
          hintmask 00011000
          -5 1 -30 36 -3 vhcurveto
          -1 -13 -2 -24 -30 -24 rrcurveto
          -5 -5 -6 -4 -11 vvcurveto
          -10 11 -13 13 17 50 45 67 vhcurveto
          endchar
        </CharString>
        <CharString name="dcroat">
          68 -6 61 -55 119 callsubr
          22 62 29 61 hstemhm
          44 69 289 69 hintmask 01111110
          -6 callsubr
          398 59 hlineto
          41 callsubr
          -59 49 hlineto
          -57 callgsubr
          -29 -169 32 callgsubr
          169 -73 hlineto
          36 -41 -48 15 -45 hhcurveto
          -123 -101 -98 -124 hvcurveto
          hintmask 10000010
          24 callgsubr
          hintmask 10100110
          27 callgsubr
          endchar
        </CharString>
        <CharString name="ddotbelow">
          68 -200 100 94 97 callgsubr
          128 101 60 69 hintmask 00111101
          -13 callgsubr
          hintmask 01000001
          -123 97 -98 116 71 49 37 27 25 vhcurveto
          -17 vlineto
          hintmask 00100000
          -31 6 -10 34 -8 callsubr
          -163 167 rmoveto
          hintmask 01010101
          27 callgsubr
          hintmask 10000010
          -60 -413 -100 callsubr
        </CharString>
        <CharString name="degree">
          -121 319 70 152 70 hstem
          51 70 152 70 vstem
          343 465 rmoveto
          81 -66 65 -80 -81 -65 -65 -81 -80 65 -66 81 80 66 66 80 vhcurveto
          -70 hmoveto
          -42 -34 -34 -42 -42 -34 34 42 42 34 34 42 42 34 -34 -42 vhcurveto
          endchar
        </CharString>
        <CharString name="diameter">
          302 -33 70 538 70 hstem
          69 70 538 70 vstem
          758 621 rmoveto
          19 -16 16 -19 -10 -8 -4 -6 -7 vhcurveto
          -76 -77 rlineto
          48 -59 -74 28 -81 hhcurveto
          -187 -152 -152 -187 -81 28 -74 48 -59 hvcurveto
          -77 -76 rlineto
          -6 -7 -4 -8 -10 vvcurveto
          123 callgsubr
          10 8 4 6 7 vhcurveto
          76 77 rlineto
          -48 59 74 -28 81 hhcurveto
          187 152 152 187 81 -28 74 -48 59 hvcurveto
          77 76 rlineto
          6 7 4 8 10 vvcurveto
          -81 -315 rmoveto
          -149 -120 -120 -149 -62 -56 21 35 -46 vhcurveto
          377 377 rlineto
          35 -46 21 -56 -62 vvcurveto
          -105 213 rmoveto
          -377 -377 rlineto
          -35 46 -21 56 62 vvcurveto
          149 120 120 149 62 56 -21 -35 46 vhcurveto
          endchar
        </CharString>
        <CharString name="died">
          10 4 -21 313 64 189 -20 hstem
          227 70 vstem
          495 329 rmoveto
          27 -20 5 -18 vhcurveto
          -17 hlineto
          -10 -11 -1 -10 hhcurveto
          -112 156 hlineto
          27 -17 6 -19 -29 -5 -17 -21 vhcurveto
          -151 -112 vlineto
          -10 -11 1 -10 hhcurveto
          -17 hlineto
          -18 -20 -5 -27 -18 11 -16 22 hvcurveto
          10 hlineto
          14 13 1 14 hhcurveto
          114 -272 hlineto
          -23 3 -18 34 33 0 23 19 vhcurveto
          271 114 vlineto
          14 13 -1 14 hhcurveto
          10 hlineto
          21 12 14 20 hvcurveto
          endchar
        </CharString>
        <CharString name="dieresis">
          10 499 90 hstem
          134 91 76 91 vstem
          -24 callgsubr
          endchar
        </CharString>
        <CharString name="dieresis.cap">
          10 462 90 hstem
          119 91 106 91 vstem
          10 callgsubr
          endchar
        </CharString>
        <CharString name="dieresis.dup">
          10 499 90 hstem
          134 91 76 91 vstem
          -24 callgsubr
          endchar
        </CharString>
        <CharString name="dieresis.ts1">
          10 513 100 hstem
          413 563 rmoveto
          23 -18 27 -29 vhcurveto
          -3 -3 -1 -3 hhcurveto
          -29 -4 -14 -23 -22 vvcurveto
          -20 15 -30 32 28 24 19 31 vhcurveto
          -203 hmoveto
          22 -18 28 -30 vhcurveto
          -3 -3 -1 -3 hhcurveto
          -25 -4 -17 -20 -25 vvcurveto
          -23 18 -27 29 32 20 24 26 vhcurveto
          endchar
        </CharString>
        <CharString name="discount">
          10 22 -21 693 -20 21 -20 hstemhm
          121 114 54 114 -67 114 hintmask 00100000
          466 656 rmoveto
          3 vlineto
          20 -16 16 -19 vhcurveto
          hintmask 11010100
          -6 -1 -19 -3 -8 -17 -8 -16 rlinecurve
          -54 -99 -224 -414 -36 -66 rlineto
          -7 -13 -11 -14 -16 vvcurveto
          -19 15 -16 20 vhcurveto
          2 hlineto
          21 1 8 17 9 16 317 586 rcurveline
          6 11 8 12 2 12 rrcurveto
          -231 -47 rmoveto
          -31 -24 -19 -26 -6 vhcurveto
          113 callsubr
          168 -524 rmoveto
          -31 -24 -19 -26 -6 vhcurveto
          hintmask 00001000
          113 callsubr
          endchar
        </CharString>
        <CharString name="divide">
          302 82 100 89 70 89 100 hstem
          358 100 cntrmask 11100000
          758 306 34 callsubr
          -300 174 -9 callgsubr
          -348 53 callsubr
        </CharString>
        <CharString name="divorced">
          10 -44 -21 156 66 299 66 157 -20 hstem
          -208 65 241 68 61 70 61 69 239 65 vstem
          166 308 rmoveto
          106 -73 108 -119 vhcurveto
          -9 hlineto
          -112 -12 -61 -104 -100 vvcurveto
          -106 73 -109 117 vhcurveto
          9 hlineto
          116 14 59 104 99 vvcurveto
          565 -2 rmoveto
          102 -70 115 -113 -5 -5 0 -1 -5 vhcurveto
          -113 -13 -62 -103 -101 vvcurveto
          -107 75 -107 116 vhcurveto
          9 hlineto
          116 14 57 103 98 vvcurveto
          -434 -330 rmoveto
          666 vlineto
          25 -12 12 -22 -5 -5 -1 -1 -4 vhcurveto
          -21 -1 -27 -14 hvcurveto
          -666 vlineto
          -28 15 -7 18 37 0 21 20 vhcurveto
          -199 329 rmoveto
          -69 -48 -79 -72 vhcurveto
          -5 hlineto
          -69 7 -38 63 -8 69 rrcurveto
          4 -1 5 4 vvcurveto
          70 51 77 70 vhcurveto
          6 hlineto
          69 -5 45 -76 -70 vvcurveto
          568 6 rmoveto
          -5 0 -6 -1 -5 vhcurveto
          -6 -55 -31 -77 -77 -6 rrcurveto
          -5 hlineto
          -76 -43 82 69 65 38 75 75 8 hvcurveto
          6 hlineto
          70 50 -76 -69 hvcurveto
          endchar
        </CharString>
        <CharString name="dlinebelow">
          68 -181 63 112 97 callgsubr
          289 69 hintmask 00111110
          -13 callgsubr
          hintmask 01000010
          -123 97 -98 116 71 49 37 27 25 vhcurveto
          -17 vlineto
          hintmask 00100000
          -31 6 -10 34 -8 callsubr
          -163 167 rmoveto
          hintmask 01010110
          27 callgsubr
          hintmask 10000000
          79 -413 -84 callsubr
        </CharString>
        <CharString name="dollar">
          10 -5 62 -61 61 -61 62 hstem
          58 64 110 61 109 64 cntrmask 11100000
          466 171 rmoveto
          49 -28 99 -145 27 vhcurveto
          208 vlineto
          33 -4 50 -14 16 -51 rrcurveto
          -10 -8 -5 -12 -13 vvcurveto
          -23 17 -21 27 21 24 12 37 77 -55 72 -118 10 vhcurveto
          37 56 callsubr
          -31 0 -25 -16 vhcurveto
          -38 vlineto
          -110 -13 -64 -76 -74 vvcurveto
          -24 6 -108 168 -31 vhcurveto
          -232 vlineto
          -45 6 -41 22 -15 51 rrcurveto
          6 4 10 8 23 vvcurveto
          28 -24 17 -20 -9 -36 -4 -46 -83 58 -77 116 -11 vhcurveto
          -37 vlineto
          -16 0 -25 31 30 0 25 16 vhcurveto
          38 vlineto
          122 19 51 86 70 vvcurveto
          -234 188 rmoveto
          -57 10 -53 36 51 vvcurveto
          48 48 40 62 10 vhcurveto
          170 -387 rmoveto
          -51 -45 -47 -64 -11 vhcurveto
          218 vlineto
          66 -13 43 -45 -51 vvcurveto
          endchar
        </CharString>
        <CharString name="dollar.oldstyle">
          126 -61 -21 78 62 -54 64 -62 62 0 64 -60 64 411 64 -56 62 -62 64 76 -20 hstemhm
          58 65 -53 64 1 64 19 62 41 64 -24 62 96 64 hintmask 000000100100000110000000
          583 167 rmoveto
          91 -85 59 -75 15 vhcurveto
          215 vlineto
          31 -6 45 -19 7 -32 rrcurveto
          -2 vlineto
          -11 -12 -10 -14 vvcurveto
          -26 19 -18 29 31 10 29 21 71 -49 46 -58 22 vhcurveto
          -25 9 -28 4 0 vvcurveto
          46 vlineto
          21 -7 17 -24 -24 -7 -19 -21 vhcurveto
          hintmask 000000010000000100000000
          -38 vlineto
          hintmask 000100001110111000000000
          1 -15 -8 1 -17 hhcurveto
          -10 -21 -1 -2 -10 hvcurveto
          38 vlineto
          24 -4 17 -28 -25 -5 -20 -22 vhcurveto
          -48 vlineto
          0 -8 -2 -11 -2 vhcurveto
          -60 -18 -81 -51 -74 vvcurveto
          -90 85 -46 75 -17 vhcurveto
          -237 vlineto
          hintmask 000010000000100000000000
          -33 10 -38 18 -12 36 rrcurveto
          hintmask 000001000001000000000000
          -1 4 rlineto
          10 13 10 15 vvcurveto
          25 -21 20 -25 vhcurveto
          hintmask 000000000010000000000000
          -29 -14 -25 -26 hvcurveto
          hintmask 101000000001010000000000
          -21 3 -18 9 -20 vhcurveto
          30 -64 58 -29 60 -9 rrcurveto
          -52 vlineto
          -20 12 -14 19 25 6 19 21 vhcurveto
          hintmask 010000000000010100000000
          38 81 -37 vlineto
          hintmask 100000000000001000000000
          -20 3 -14 21 -7 vhcurveto
          13 hlineto
          hintmask 000101010010010110000000
          20 4 5 16 20 vvcurveto
          48 vlineto
          47 19 rlineto
          53 27 60 45 70 vvcurveto
          -222 179 rmoveto
          -81 18 rlineto
          191 81 vlineto
          158 -389 rmoveto
          -51 -58 -27 -38 -16 vhcurveto
          187 vlineto
          40 -10 56 -35 -48 vvcurveto
          -301 211 rmoveto
          -37 13 -58 20 48 vvcurveto
          43 55 30 40 11 vhcurveto
          143 -484 rmoveto
          hintmask 010000000000010100000000
          -81 235 hlineto
          81 -18 rlineto
          endchar
        </CharString>
        <CharString name="dong">
          68 -62 62 -31 62 187 62 hstemhm
          hintmask 01000000
          537 59 rmoveto
          30 -23 0 -15 vhcurveto
          -52 378 56 hlineto
          17 13 13 16 16 -13 14 -17 hvcurveto
          -56 46 hlineto
          30 -5 9 -33 vhcurveto
          -78 hlineto
          -15 -23 0 -28 -30 22 0 16 hvcurveto
          51 -27 -161 hlineto
          -16 -13 -14 -16 -16 13 -13 16 hvcurveto
          161 -70 hlineto
          34 -39 -46 15 -42 hhcurveto
          -117 -96 -93 -118 -117 92 -93 110 68 46 35 26 24 hvcurveto
          -16 vlineto
          -30 6 -9 32 vhcurveto
          79 hlineto
          14 24 0 28 hvcurveto
          -90 vmoveto
          hintmask 10000000
          17 -14 14 -17 vhcurveto
          -433 hlineto
          hintmask 01000000
          -17 -14 -14 -17 hvcurveto
          hintmask 10000000
          -17 14 -14 17 vhcurveto
          433 hlineto
          hintmask 01100000
          17 14 14 17 hvcurveto
          -155 249 rmoveto
          -57 -52 -78 -81 -79 -63 69 83 86 71 67 81 67 56 -52 -56 vhcurveto
          endchar
        </CharString>
        <CharString name="dotaccent">
          -223 494 117 callsubr
          544 -100 callsubr
        </CharString>
        <CharString name="dotaccent.alt">
          -223 471 117 callsubr
          521 -100 callsubr
        </CharString>
        <CharString name="dotaccent.cap">
          -223 462 117 callsubr
          512 -100 callsubr
        </CharString>
        <CharString name="dotlessi">
          -223 0 61 309 140 callsubr
          vstem
          -86 callgsubr
          endchar
        </CharString>
        <CharString name="dotlessj">
          49 callgsubr
          hstemhm
          -46 89 28 69 0 69 hintmask 01110100
          209 -47 -44 callsubr
          vhcurveto
          hintmask 10001000
          -46 44 -30 73 vhcurveto
          hintmask 00000100
          105 33 108 73 hvcurveto
          endchar
        </CharString>
        <CharString name="e">
          -48 138 callsubr
          71 257 71 hintmask 01111100
          -94 callgsubr
          hintmask 10110100
          -72 callgsubr
          endchar
        </CharString>
        <CharString name="eacute">
          -9 callsubr
          58 -21 134 -20 33 callsubr
          hintmask 01110011
          -94 callgsubr
          hintmask 10110001
          -72 callgsubr
          hintmask 00001100
          -26 325 -107 callsubr
        </CharString>
        <CharString name="ebreve">
          -9 callsubr
          48 64 49 -20 33 callsubr
          hintmask 01110011
          -94 callgsubr
          hintmask 10110001
          -72 callgsubr
          hintmask 00001100
          44 319 -91 callgsubr
        </CharString>
        <CharString name="ecaron">
          -48 138 callsubr
          71 257 71 hintmask 01111100
          -94 callgsubr
          hintmask 10110100
          -72 callgsubr
          hintmask 00000000
          2 305 -64 callgsubr
        </CharString>
        <CharString name="ecircumflex">
          -48 138 callsubr
          71 257 71 hintmask 01111100
          -94 callgsubr
          hintmask 10110100
          -72 callgsubr
          hintmask 00000000
          2 281 -75 callsubr
          endchar
        </CharString>
        <CharString name="ecircumflexacute">
          -9 callsubr
          292 -20 8 callsubr
          -4 283 -13 callsubr
          163 -107 callsubr
        </CharString>
        <CharString name="ecircumflexdotbelow">
          -48 -200 100 94 -1 callsubr
          hstemhm
          38 71 74 101 82 71 hintmask 00111101
          -94 callgsubr
          hintmask 01011001
          -72 callgsubr
          2 281 -75 callsubr
          hintmask 10000010
          -84 -682 -100 callsubr
        </CharString>
        <CharString name="ecircumflexgrave">
          -48 138 callsubr
          71 257 71 hintmask 01111100
          -94 callgsubr
          hintmask 10110100
          -72 callgsubr
          hintmask 00000000
          -4 283 -79 callsubr
        </CharString>
        <CharString name="ecircumflexhookabove">
          -9 callsubr
          368 -20 8 callsubr
          -4 283 -104 callsubr
          77 194 -107 callgsubr
        </CharString>
        <CharString name="ecircumflextilde">
          -9 callsubr
          178 65 -10 65 33 callsubr
          hintmask 01110011
          -94 callgsubr
          hintmask 10110001
          -72 callgsubr
          hintmask 00000100
          -4 283 rmoveto
          -118 43 -6 2 -7 0 -6 -2 rlinecurve
          -118 -43 -36 -13 18 -54 36 11 rlinecurve
          109 33 109 -33 36 -11 18 54 -35 13 rlinecurve
          47 172 -58 callsubr
        </CharString>
        <CharString name="edblgrave">
          -9 callsubr
          59 130 callsubr
          33 callsubr
          hintmask 01110011
          -94 callgsubr
          hintmask 10110001
          -72 callgsubr
          hintmask 00001100
          31 265 -101 callgsubr
        </CharString>
        <CharString name="edieresis">
          -9 callsubr
          59 90 hstemhm
          38 71 -4 91 76 91 3 71 hintmask 0111010010000000
          -94 callgsubr
          hintmask 1011000010000000
          -72 callgsubr
          hintmask 0000101100000000
          -170 293 -39 callsubr
        </CharString>
        <CharString name="edotaccent">
          -9 callsubr
          54 100 hstemhm
          38 71 74 101 82 71 hintmask 01110101
          -94 callgsubr
          hintmask 10110001
          -72 callgsubr
          hintmask 00001010
          -82 293 -100 callsubr
        </CharString>
</ttFont>
